NunitoSans-ExpandedExtraBold.ufo
<glyph name="exclam" format="2">
  <advance width="310.43975903614455"/>
  <unicode hex="0021"/>
  <outline>
    <contour>
      <point x="105.74698795180723" y="231.66265060240966" type="line"/>
      <point x="204.69277108433735" y="231.66265060240966" type="line"/>
      <point x="255.80722891566265" y="705.0" type="line"/>
      <point x="54.63253012048193" y="705.0" type="line"/>
    </contour>
    <contour>
      <point x="66.98795180722891" y="0.0" type="line"/>
      <point x="242.79518072289156" y="0.0" type="line"/>
      <point x="242.79518072289156" y="172.83734939759034" type="line"/>
      <point x="66.98795180722891" y="172.83734939759034" type="line"/>
    </contour>
  </outline>
</glyph>
<glyph name="numbersign" format="2">
  <advance width="732.5060240963855"/>
  <unicode hex="0023"/>
  <outline>
    <contour>
      <point x="91.36144578313254" y="0.0" type="line"/>
      <point x="205.36746987951807" y="0.0" type="line"/>
      <point x="245.4879518072289" y="162.10843373493978" type="line"/>
      <point x="394.5722891566265" y="162.10843373493978" type="line"/>
      <point x="354.4518072289157" y="0.0" type="line"/>
      <point x="468.4578313253012" y="0.0" type="line"/>
      <point x="508.23493975903614" y="162.10843373493978" type="line"/>
      <point x="664.0903614457832" y="162.10843373493978" type="line"/>
      <point x="664.0903614457832" y="262.2048192771084" type="line"/>
      <point x="531.3373493975904" y="262.2048192771084" type="line"/>
      <point x="577.8915662650603" y="450.79518072289153" type="line"/>
      <point x="690.7168674698796" y="450.79518072289153" type="line"/>
      <point x="690.7168674698796" y="550.8915662650602" type="line"/>
      <point x="600.9939759036146" y="550.8915662650602" type="line"/>
      <point x="639.4578313253012" y="705.0" type="line"/>
      <point x="525.4518072289156" y="705.0" type="line"/>
      <point x="487.33132530120486" y="550.8915662650602" type="line"/>
      <point x="338.5903614457831" y="550.8915662650602" type="line"/>
      <point x="376.71084337349396" y="705.0" type="line"/>
      <point x="262.3614457831325" y="705.0" type="line"/>
      <point x="224.5843373493976" y="550.8915662650602" type="line"/>
      <point x="68.4156626506024" y="550.8915662650602" type="line"/>
      <point x="68.4156626506024" y="450.79518072289153" type="line"/>
      <point x="201.4819277108434" y="450.79518072289153" type="line"/>
      <point x="154.9277108433735" y="262.2048192771084" type="line"/>
      <point x="41.78915662650603" y="262.2048192771084" type="line"/>
      <point x="41.78915662650603" y="162.10843373493978" type="line"/>
      <point x="131.13855421686748" y="162.10843373493978" type="line"/>
    </contour>
    <contour>
      <point x="268.933734939759" y="262.2048192771084" type="line"/>
      <point x="315.83132530120486" y="450.79518072289153" type="line"/>
      <point x="463.8855421686747" y="450.79518072289153" type="line"/>
      <point x="416.9879518072289" y="262.2048192771084" type="line"/>
    </contour>
  </outline>
</glyph>
<glyph name="dollar" format="2">
  <advance width="748.0"/>
  <unicode hex="0024"/>
  <outline>
    <contour>
      <point x="319.3493975903615" y="-115.0" type="line"/>
      <point x="452.0240963855421" y="-115.0" type="line"/>
      <point x="452.0240963855421" y="20.192771084337352" type="line"/>
      <point x="412.69879518072287" y="-5.656626506024097" type="line"/>
      <point x="602.4578313253012" y="5.566265060240963"/>
      <point x="710.710843373494" y="82.72891566265059"/>
      <point x="710.710843373494" y="211.80120481927707" type="curve" smooth="yes"/>
      <point x="710.710843373494" y="320.4578313253012"/>
      <point x="642.7710843373494" y="383.62048192771084"/>
      <point x="494.68072289156623" y="406.2771084337349" type="curve" smooth="yes"/>
      <point x="326.35542168674704" y="432.1867469879518" type="line" smooth="yes"/>
      <point x="260.4096385542169" y="441.5903614457832"/>
      <point x="223.19879518072287" y="458.921686746988"/>
      <point x="223.19879518072287" y="499.89759036144574" type="curve" smooth="yes"/>
      <point x="223.19879518072287" y="545.6204819277108"/>
      <point x="276.45783132530124" y="571.1024096385541"/>
      <point x="375.7469879518072" y="571.1024096385541" type="curve" smooth="yes"/>
      <point x="480.9698795180723" y="571.1024096385541"/>
      <point x="560.8493975903615" y="551.0120481927711"/>
      <point x="626.656626506024" y="505.39759036144585" type="curve"/>
      <point x="681.8614457831326" y="630.4156626506024" type="line"/>
      <point x="624.0843373493976" y="676.9698795180723"/>
      <point x="534.8012048192771" y="704.6867469879518"/>
      <point x="432.1144578313253" y="710.3132530120482" type="curve"/>
      <point x="452.0240963855421" y="692.4036144578313" type="line"/>
      <point x="452.0240963855421" y="820.0" type="line"/>
      <point x="319.3493975903615" y="820.0" type="line"/>
      <point x="319.3493975903615" y="692.4036144578313" type="line"/>
      <point x="340.28915662650604" y="709.0" type="line"/>
      <point x="163.94578313253015" y="696.867469879518"/>
      <point x="56.54216867469879" y="612.9879518072289"/>
      <point x="56.54216867469879" y="488.39156626506025" type="curve" smooth="yes"/>
      <point x="56.54216867469879" y="377.45180722891564"/>
      <point x="134.45180722891564" y="310.31927710843377"/>
      <point x="278.421686746988" y="291.3192771084337" type="curve" smooth="yes"/>
      <point x="447.0903614457831" y="268.6927710843373" type="line" smooth="yes"/>
      <point x="509.9939759036145" y="260.2289156626506"/>
      <point x="544.4277108433735" y="242.89759036144576"/>
      <point x="544.4277108433735" y="199.89156626506025" type="curve" smooth="yes"/>
      <point x="544.4277108433735" y="156.94578313253012"/>
      <point x="490.6024096385542" y="133.89759036144576"/>
      <point x="386.6265060240964" y="133.89759036144576" type="curve" smooth="yes"/>
      <point x="268.59638554216866" y="133.89759036144576"/>
      <point x="177.74698795180723" y="155.9277108433735"/>
      <point x="94.03012048192771" y="205.10843373493975" type="curve"/>
      <point x="38.51204819277108" y="72.86746987951808" type="line"/>
      <point x="111.57228915662651" y="27.03012048192771"/>
      <point x="221.4518072289157" y="-2.3433734939759034"/>
      <point x="341.5421686746988" y="-6.313253012048193" type="curve"/>
      <point x="319.3493975903615" y="19.50602409638554" type="line"/>
    </contour>
  </outline>
</glyph>
<glyph name="percent" format="2">
  <advance width="1180.277108433735"/>
  <unicode hex="0025"/>
  <outline>
    <contour>
      <point x="387.4096385542169" y="-30.87951807228916" type="line"/>
      <point x="892.9036144578313" y="667.1987951807229" type="line"/>
      <point x="793.5542168674699" y="735.5361445783133" type="line"/>
      <point x="287.3734939759036" y="37.45783132530121" type="line"/>
    </contour>
    <contour>
      <point x="274.12048192771084" y="287.59638554216866" type="curve" smooth="yes"/>
      <point x="417.8192771084337" y="287.59638554216866"/>
      <point x="498.0722891566265" y="370.84939759036143"/>
      <point x="498.0722891566265" y="501.5963855421687" type="curve" smooth="yes"/>
      <point x="498.0722891566265" y="632.6867469879518"/>
      <point x="418.50602409638554" y="716.2831325301205"/>
      <point x="274.12048192771084" y="716.2831325301205" type="curve" smooth="yes"/>
      <point x="129.39156626506025" y="716.2831325301205"/>
      <point x="50.16867469879518" y="631.3132530120482"/>
      <point x="50.16867469879518" y="501.5963855421687" type="curve" smooth="yes"/>
      <point x="50.16867469879518" y="371.1927710843374"/>
      <point x="130.42168674698794" y="287.59638554216866"/>
    </contour>
    <contour>
      <point x="274.12048192771084" y="390.3795180722891" type="curve" smooth="yes"/>
      <point x="217.5180722891566" y="390.3795180722891"/>
      <point x="185.1265060240964" y="429.45783132530124"/>
      <point x="185.1265060240964" y="501.5963855421687" type="curve" smooth="yes"/>
      <point x="185.1265060240964" y="573.3915662650602"/>
      <point x="217.5180722891566" y="613.5"/>
      <point x="274.12048192771084" y="613.5" type="curve" smooth="yes"/>
      <point x="331.066265060241" y="613.5"/>
      <point x="363.11445783132535" y="573.7349397590363"/>
      <point x="363.11445783132535" y="501.5963855421687" type="curve" smooth="yes"/>
      <point x="363.11445783132535" y="429.1144578313253"/>
      <point x="330.7228915662651" y="390.3795180722891"/>
    </contour>
    <contour>
      <point x="906.8433734939758" y="-11.283132530120481" type="curve" smooth="yes"/>
      <point x="1050.5421686746988" y="-11.283132530120481"/>
      <point x="1130.7951807228915" y="71.96987951807229"/>
      <point x="1130.7951807228915" y="202.71686746987953" type="curve" smooth="yes"/>
      <point x="1130.7951807228915" y="333.8072289156627"/>
      <point x="1051.2289156626507" y="417.40361445783134"/>
      <point x="906.8433734939758" y="417.40361445783134" type="curve" smooth="yes"/>
      <point x="762.1144578313252" y="417.40361445783134"/>
      <point x="682.8915662650603" y="332.43373493975906"/>
      <point x="682.8915662650603" y="202.71686746987953" type="curve" smooth="yes"/>
      <point x="682.8915662650603" y="72.3132530120482"/>
      <point x="763.144578313253" y="-11.283132530120481"/>
    </contour>
    <contour>
      <point x="906.8433734939758" y="91.5" type="curve" smooth="yes"/>
      <point x="850.2409638554217" y="91.5"/>
      <point x="817.8493975903615" y="130.57831325301206"/>
      <point x="817.8493975903615" y="202.71686746987953" type="curve" smooth="yes"/>
      <point x="817.8493975903615" y="274.5120481927711"/>
      <point x="850.2409638554217" y="314.62048192771084"/>
      <point x="906.8433734939758" y="314.62048192771084" type="curve" smooth="yes"/>
      <point x="963.7891566265062" y="314.62048192771084"/>
      <point x="995.8373493975904" y="274.855421686747"/>
      <point x="995.8373493975904" y="202.71686746987953" type="curve" smooth="yes"/>
      <point x="995.8373493975904" y="130.23493975903614"/>
      <point x="963.4457831325301" y="91.5"/>
    </contour>
  </outline>
</glyph>
<glyph name="ampersand" format="2">
  <advance width="911.5542168674698"/>
  <unicode hex="0026"/>
  <outline>
    <contour>
      <point x="365.71084337349396" y="-10.626506024096384" type="curve" smooth="yes"/>
      <point x="480.51807228915663" y="-10.626506024096384"/>
      <point x="579.8614457831325" y="23.180722891566266"/>
      <point x="654.7409638554217" y="83.45180722891565" type="curve"/>
      <point x="630.5783132530121" y="83.45180722891565" type="line"/>
      <point x="730.5361445783133" y="0.0" type="line"/>
      <point x="934.6807228915661" y="0.0" type="line"/>
      <point x="724.210843373494" y="166.98192771084337" type="line"/>
      <point x="726.5240963855423" y="148.3855421686747" type="line"/>
      <point x="786.7469879518071" y="221.63855421686745"/>
      <point x="823.3132530120481" y="319.26506024096386"/>
      <point x="829.9698795180723" y="432.5783132530121" type="curve"/>
      <point x="691.7289156626506" y="432.5783132530121" type="line"/>
      <point x="687.0722891566265" y="348.96385542168673"/>
      <point x="663.0421686746988" y="278.7530120481928"/>
      <point x="624.2951807228916" y="225.9457831325301" type="curve"/>
      <point x="646.5180722891566" y="225.9457831325301" type="line"/>
      <point x="457.49397590361446" y="383.5240963855422" type="line"/>
      <point x="432.8253012048193" y="351.04819277108436" type="line"/>
      <point x="565.0783132530121" y="400.1686746987952"/>
      <point x="631.0481927710842" y="467.19879518072287"/>
      <point x="631.0481927710842" y="552.0783132530121" type="curve" smooth="yes"/>
      <point x="631.0481927710842" y="650.4638554216867"/>
      <point x="544.0662650602409" y="715.6265060240964"/>
      <point x="405.3975903614458" y="715.6265060240964" type="curve" smooth="yes"/>
      <point x="266.2831325301205" y="715.6265060240964"/>
      <point x="168.70481927710844" y="644.5240963855422"/>
      <point x="168.70481927710844" y="541.8253012048193" type="curve" smooth="yes"/>
      <point x="168.70481927710844" y="478.6746987951807"/>
      <point x="206.25903614457835" y="426.3313253012048"/>
      <point x="266.2590361445783" y="377.8975903614458" type="curve"/>
      <point x="295.210843373494" y="412.62650602409633" type="line"/>
      <point x="265.7469879518072" y="400.5060240963855" type="line" smooth="yes"/>
      <point x="148.13855421686748" y="358.81927710843377"/>
      <point x="67.52409638554217" y="287.4759036144578"/>
      <point x="67.52409638554217" y="188.95180722891564" type="curve" smooth="yes"/>
      <point x="67.52409638554217" y="69.47590361445783"/>
      <point x="185.789156626506" y="-10.626506024096384"/>
    </contour>
    <contour>
      <point x="380.12650602409644" y="112.82530120481927" type="curve" smooth="yes"/>
      <point x="284.30120481927713" y="112.82530120481927"/>
      <point x="233.0301204819277" y="147.03614457831327"/>
      <point x="233.0301204819277" y="203.4578313253012" type="curve" smooth="yes"/>
      <point x="233.0301204819277" y="259.0301204819277"/>
      <point x="280.5421686746988" y="293.18072289156623"/>
      <point x="348.59036144578306" y="319.078313253012" type="curve" smooth="yes"/>
      <point x="376.45783132530124" y="330.8855421686747" type="line"/>
      <point x="319.6867469879518" y="336.28915662650604" type="line"/>
      <point x="545.9457831325301" y="148.6987951807229" type="line"/>
      <point x="545.9457831325302" y="162.63855421686745" type="line"/>
      <point x="502.36144578313247" y="129.75301204819277"/>
      <point x="446.8493975903615" y="112.82530120481927"/>
    </contour>
    <contour>
      <point x="404.7409638554217" y="606.2771084337351" type="curve" smooth="yes"/>
      <point x="456.7590361445783" y="606.2771084337351"/>
      <point x="491.6265060240964" y="582.1636867469879"/>
      <point x="491.6265060240964" y="544.1686746987951" type="curve" smooth="yes"/>
      <point x="491.6265060240964" y="486.1506024096385"/>
      <point x="416.7289156626506" y="456.0301204819277"/>
      <point x="348.1024096385542" y="430.5361445783132" type="curve"/>
      <point x="399.7530120481928" y="427.789156626506" type="line"/>
      <point x="346.2590361445783" y="472.0301204819277"/>
      <point x="312.855421686747" y="500.210843373494"/>
      <point x="312.855421686747" y="539.7951807228915" type="curve" smooth="yes"/>
      <point x="312.855421686747" y="580.8258072289157"/>
      <point x="349.09638554216866" y="606.2771084337351"/>
    </contour>
  </outline>
</glyph>
<glyph name="quotesingle" format="2">
  <advance width="304.03614457831327"/>
  <unicode hex="0027"/>
  <outline>
    <contour>
      <point x="97.43373493975903" y="402.5722891566265" type="line"/>
      <point x="206.6024096385542" y="402.5722891566265" type="line"/>
      <point x="247.52409638554215" y="705.0" type="line"/>
      <point x="57.19879518072289" y="705.0" type="line"/>
    </contour>
  </outline>
</glyph>
<glyph name="parenleft" format="2">
  <advance width="452.9096385542168"/>
  <unicode hex="0028"/>
  <outline>
    <contour>
      <point x="300.68072289156623" y="-196.56626506024097" type="curve"/>
      <point x="406.9698795180723" y="-146.10843373493978" type="line"/>
      <point x="328.2530120481928" y="9.024096385542165"/>
      <point x="298.4457831325301" y="119.90963855421687"/>
      <point x="298.4457831325301" y="263.0" type="curve" smooth="yes"/>
      <point x="298.4457831325301" y="406.77710843373495"/>
      <point x="328.2530120481928" y="516.9759036144579"/>
      <point x="406.9698795180723" y="672.1084337349398" type="curve"/>
      <point x="300.68072289156623" y="722.5662650602409" type="line"/>
      <point x="180.81927710843374" y="583.6987951807229"/>
      <point x="122.06024096385542" y="433.75903614457826"/>
      <point x="122.06024096385542" y="263.0" type="curve" smooth="yes"/>
      <point x="122.06024096385542" y="92.92771084337349"/>
      <point x="180.81927710843374" y="-58.042168674698786"/>
    </contour>
  </outline>
</glyph>
<glyph name="parenright" format="2">
  <advance width="452.9096385542168"/>
  <unicode hex="0029"/>
  <outline>
    <contour>
      <point x="152.2289156626506" y="-196.56626506024097" type="line"/>
      <point x="272.0903614457831" y="-58.042168674698786"/>
      <point x="330.84939759036143" y="92.92771084337349"/>
      <point x="330.84939759036143" y="263.0" type="curve" smooth="yes"/>
      <point x="330.84939759036143" y="433.4156626506024"/>
      <point x="272.0903614457831" y="584.0421686746988"/>
      <point x="152.2289156626506" y="722.5662650602409" type="curve"/>
      <point x="45.93975903614458" y="672.1084337349398" type="line"/>
      <point x="124.3132530120482" y="516.9759036144578"/>
      <point x="155.15060240963854" y="406.43373493975906"/>
      <point x="155.15060240963854" y="263.0" type="curve" smooth="yes"/>
      <point x="155.15060240963854" y="119.56626506024097"/>
      <point x="124.3132530120482" y="9.024096385542165"/>
      <point x="45.93975903614458" y="-146.10843373493978" type="curve"/>
    </contour>
  </outline>
</glyph>
<glyph name="asterisk" format="2">
  <advance width="501.1325301204819"/>
  <unicode hex="002A"/>
  <outline>
    <contour>
      <point x="188.57831325301203" y="292.06626506024094" type="line"/>
      <point x="259.50602409638554" y="445.1566265060241" type="line"/>
      <point x="242.96987951807228" y="445.1566265060241" type="line"/>
      <point x="311.9277108433735" y="291.4397590361446" type="line"/>
      <point x="409.3072289156627" y="347.21084337349396" type="line"/>
      <point x="311.0240963855422" y="494.3614457831325" type="line"/>
      <point x="288.2951807228916" y="462.7228915662651" type="line"/>
      <point x="466.0722891566265" y="450.8433734939759" type="line"/>
      <point x="466.0722891566265" y="560.789156626506" type="line"/>
      <point x="288.2951807228916" y="548.566265060241" type="line"/>
      <point x="311.0240963855422" y="517.3012048192771" type="line"/>
      <point x="409.3072289156627" y="663.421686746988" type="line"/>
      <point x="311.9277108433735" y="720.8795180722892" type="line"/>
      <point x="242.96987951807228" y="568.789156626506" type="line"/>
      <point x="259.50602409638554" y="568.789156626506" type="line"/>
      <point x="189.89156626506022" y="720.8795180722892" type="line"/>
      <point x="92.82530120481927" y="664.7349397590361" type="line"/>
      <point x="191.7650602409639" y="515.987951807229" type="line"/>
      <point x="213.83734939759034" y="548.566265060241" type="line"/>
      <point x="35.74698795180723" y="560.789156626506" type="line"/>
      <point x="35.74698795180723" y="451.1566265060241" type="line"/>
      <point x="213.52409638554215" y="462.7228915662651" type="line"/>
      <point x="190.4518072289157" y="494.3614457831325" type="line"/>
      <point x="91.82530120481927" y="347.21084337349396" type="line"/>
    </contour>
  </outline>
</glyph>
<glyph name="plus" format="2">
  <advance width="748.0"/>
  <unicode hex="002B"/>
  <outline>
    <contour>
      <point x="314.5421686746988" y="16.0" type="line"/>
      <point x="433.4578313253012" y="16.0" type="line"/>
      <point x="433.4578313253012" y="231.54216867469881" type="line"/>
      <point x="645.0" y="231.54216867469881" type="line"/>
      <point x="645.0" y="342.80120481927713" type="line"/>
      <point x="433.4578313253012" y="342.80120481927713" type="line"/>
      <point x="433.4578313253012" y="558.0" type="line"/>
      <point x="314.5421686746988" y="558.0" type="line"/>
      <point x="314.5421686746988" y="342.80120481927713" type="line"/>
      <point x="103.0" y="342.80120481927713" type="line"/>
      <point x="103.0" y="231.54216867469881" type="line"/>
      <point x="314.5421686746988" y="231.54216867469881" type="line"/>
    </contour>
  </outline>
</glyph>
<glyph name="hyphen" format="2">
  <advance width="540.5481927710844"/>
  <unicode hex="002D"/>
  <outline>
    <contour>
      <point x="82.15060240963855" y="203.97590361445785" type="line"/>
      <point x="458.3975903614458" y="203.97590361445785" type="line"/>
      <point x="458.3975903614458" y="333.6506024096385" type="line"/>
      <point x="82.15060240963855" y="333.6506024096385" type="line"/>
    </contour>
  </outline>
</glyph>
<glyph name="slash" format="2">
  <advance width="394.6746987951807"/>
  <unicode hex="002F"/>
  <outline>
    <contour>
      <point x="97.42168674698794" y="-78.63855421686746" type="line"/>
      <point x="418.67469879518075" y="722.0903614457832" type="line"/>
      <point x="297.2530120481928" y="767.3253012048192" type="line"/>
      <point x="-24.0" y="-33.403614457831324" type="line"/>
    </contour>
  </outline>
</glyph>
<glyph name="zero" format="2">
  <advance width="748.0"/>
  <unicode hex="0030"/>
  <outline>
    <contour>
      <point x="374.0" y="-10.626506024096384" type="curve" smooth="yes"/>
      <point x="579.4759036144578" y="-10.626506024096384"/>
      <point x="697.578313253012" y="122.62650602409639"/>
      <point x="697.578313253012" y="353.3433734939759" type="curve" smooth="yes"/>
      <point x="697.578313253012" y="583.3734939759037"/>
      <point x="579.4759036144579" y="715.6265060240964"/>
      <point x="374.0" y="715.6265060240964" type="curve" smooth="yes"/>
      <point x="168.86746987951807" y="715.6265060240964"/>
      <point x="50.42168674698796" y="583.0602409638554"/>
      <point x="50.42168674698796" y="352.0" type="curve" smooth="yes"/>
      <point x="50.42168674698796" y="121.96987951807229"/>
      <point x="168.86746987951807" y="-10.626506024096384"/>
    </contour>
    <contour>
      <point x="374.0" y="125.2710843373494" type="curve" smooth="yes"/>
      <point x="267.4397590361446" y="125.2710843373494"/>
      <point x="214.9879518072289" y="199.06626506024097"/>
      <point x="214.9879518072289" y="352.3433734939759" type="curve" smooth="yes"/>
      <point x="214.9879518072289" y="504.2469879518073"/>
      <point x="267.4397590361446" y="579.7289156626506"/>
      <point x="374.0" y="579.7289156626506" type="curve" smooth="yes"/>
      <point x="480.90361445783134" y="579.7289156626506"/>
      <point x="533.0120481927712" y="505.24698795180717"/>
      <point x="533.0120481927712" y="353.3433734939759" type="curve" smooth="yes"/>
      <point x="533.0120481927712" y="200.06626506024097"/>
      <point x="480.56024096385545" y="125.2710843373494"/>
    </contour>
  </outline>
</glyph>
<glyph name="one" format="2">
  <advance width="748.0"/>
  <unicode hex="0031"/>
  <outline>
    <contour>
      <point x="122.97590361445783" y="0.0" type="line"/>
      <point x="690.0060240963855" y="0.0" type="line"/>
      <point x="690.0060240963855" y="138.83734939759034" type="line"/>
      <point x="501.1385542168674" y="138.83734939759034" type="line"/>
      <point x="501.1385542168674" y="705.0" type="line"/>
      <point x="375.5542168674699" y="705.0" type="line"/>
      <point x="105.62048192771086" y="552.3012048192771" type="line"/>
      <point x="168.98795180722894" y="432.2831325301205" type="line"/>
      <point x="406.0" y="566.1927710843373" type="line"/>
      <point x="329.4096385542169" y="566.1927710843373" type="line"/>
      <point x="329.4096385542169" y="138.83734939759034" type="line"/>
      <point x="122.97590361445783" y="138.83734939759034" type="line"/>
    </contour>
  </outline>
</glyph>
<glyph name="two" format="2">
  <advance width="748.0"/>
  <unicode hex="0032"/>
  <outline>
    <contour>
      <point x="96.73493975903615" y="0.0" type="line"/>
      <point x="685.9518072289155" y="0.0" type="line"/>
      <point x="685.9518072289155" y="138.83734939759034" type="line"/>
      <point x="296.9698795180723" y="138.83734939759034" type="line"/>
      <point x="301.566265060241" y="119.64457831325299" type="line"/>
      <point x="499.7590361445783" y="267.5542168674699" type="line" smooth="yes"/>
      <point x="583.5301204819277" y="325.31325301204816"/>
      <point x="652.578313253012" y="407.2228915662651"/>
      <point x="652.578313253012" y="511.18072289156623" type="curve" smooth="yes"/>
      <point x="652.578313253012" y="641.0903614457831"/>
      <point x="547.1325301204819" y="715.6265060240964"/>
      <point x="363.21084337349396" y="715.6265060240964" type="curve" smooth="yes"/>
      <point x="244.5843373493976" y="715.6265060240964"/>
      <point x="137.39156626506028" y="684.222891566265"/>
      <point x="60.54216867469879" y="627.1024096385541" type="curve"/>
      <point x="122.0" y="501.4277108433736" type="line"/>
      <point x="185.77710843373495" y="549.6987951807229"/>
      <point x="265.74698795180717" y="575.1024096385541"/>
      <point x="351.6746987951807" y="575.1024096385541" type="curve" smooth="yes"/>
      <point x="438.33734939759034" y="575.1024096385541"/>
      <point x="482.7590361445783" y="547.4879518072289"/>
      <point x="482.7590361445783" y="491.76506024096386" type="curve" smooth="yes"/>
      <point x="482.7590361445783" y="427.7590361445783"/>
      <point x="425.08433734939763" y="380.17469879518075"/>
      <point x="388.3975903614458" y="351.77108433734935" type="curve" smooth="yes"/>
      <point x="96.73493975903615" y="125.6144578313253" type="line"/>
    </contour>
  </outline>
</glyph>
<glyph name="three" format="2">
  <advance width="748.0"/>
  <unicode hex="0033"/>
  <outline>
    <contour>
      <point x="359.21084337349396" y="-10.626506024096384" type="curve" smooth="yes"/>
      <point x="554.4457831325302" y="-10.626506024096384"/>
      <point x="678.1746987951808" y="66.62650602409639"/>
      <point x="678.1746987951808" y="195.22289156626505" type="curve" smooth="yes"/>
      <point x="678.1746987951808" y="291.59638554216866"/>
      <point x="608.8614457831325" y="356.9096385542169"/>
      <point x="488.4277108433735" y="372.5963855421687" type="curve"/>
      <point x="488.4277108433735" y="359.0" type="line"/>
      <point x="593.1144578313254" y="379.31325301204816"/>
      <point x="651.8614457831325" y="440.4036144578313"/>
      <point x="651.8614457831325" y="526.8373493975904" type="curve" smooth="yes"/>
      <point x="651.8614457831325" y="643.0903614457831"/>
      <point x="545.0722891566265" y="715.6265060240964"/>
      <point x="365.15060240963857" y="715.6265060240964" type="curve" smooth="yes"/>
      <point x="245.24096385542168" y="715.6265060240964"/>
      <point x="134.42168674698794" y="683.2530120481928"/>
      <point x="60.88554216867469" y="627.1024096385541" type="curve"/>
      <point x="121.6566265060241" y="502.11445783132535" type="line"/>
      <point x="185.77710843373492" y="551.698795180723"/>
      <point x="259.49397590361446" y="575.1024096385541"/>
      <point x="349.04819277108436" y="575.1024096385541" type="curve" smooth="yes"/>
      <point x="438.62048192771084" y="575.1024096385541"/>
      <point x="486.6385542168675" y="549.4578313253013"/>
      <point x="486.6385542168675" y="501.48192771084337" type="curve" smooth="yes"/>
      <point x="486.6385542168675" y="451.4759036144578"/>
      <point x="435.21686746987956" y="423.3674698795181"/>
      <point x="339.9277108433735" y="423.3674698795181" type="curve" smooth="yes"/>
      <point x="212.42168674698797" y="423.3674698795181" type="line"/>
      <point x="212.42168674698797" y="287.066265060241" type="line"/>
      <point x="356.06024096385545" y="287.066265060241" type="line" smooth="yes"/>
      <point x="461.84337349397595" y="287.066265060241"/>
      <point x="512.9518072289156" y="263.04819277108436"/>
      <point x="512.9518072289156" y="211.32530120481925" type="curve" smooth="yes"/>
      <point x="512.9518072289156" y="157.63253012048193"/>
      <point x="456.9638554216868" y="129.89759036144576"/>
      <point x="355.92771084337346" y="129.89759036144576" type="curve" smooth="yes"/>
      <point x="258.15060240963857" y="129.89759036144576"/>
      <point x="181.74698795180723" y="152.95783132530119"/>
      <point x="106.3132530120482" y="202.16867469879517" type="curve"/>
      <point x="46.19879518072289" y="74.18072289156628" type="line"/>
      <point x="115.91566265060241" y="21.74698795180723"/>
      <point x="233.36144578313255" y="-10.626506024096384"/>
    </contour>
  </outline>
</glyph>
<glyph name="four" format="2">
  <advance width="748.0"/>
  <unicode hex="0034"/>
  <outline>
    <contour>
      <point x="432.0843373493976" y="0.0" type="line"/>
      <point x="597.3975903614457" y="0.0" type="line"/>
      <point x="597.3975903614457" y="121.22891566265062" type="line"/>
      <point x="719.3253012048192" y="121.22891566265062" type="line"/>
      <point x="719.3253012048192" y="252.4277108433735" type="line"/>
      <point x="597.3975903614457" y="252.4277108433735" type="line"/>
      <point x="597.3975903614457" y="705.0" type="line"/>
      <point x="457.5301204819277" y="705.0" type="line"/>
      <point x="49.39156626506024" y="242.36746987951807" type="line"/>
      <point x="49.39156626506024" y="121.22891566265062" type="line"/>
      <point x="432.0843373493976" y="121.22891566265062" type="line"/>
    </contour>
    <contour>
      <point x="432.0843373493976" y="252.4277108433735" type="line"/>
      <point x="172.33734939759037" y="252.4277108433735" type="line"/>
      <point x="172.33734939759037" y="195.3132530120482" type="line"/>
      <point x="473.3072289156627" y="532.9578313253012" type="line"/>
      <point x="432.0843373493976" y="532.9578313253012" type="line"/>
    </contour>
  </outline>
</glyph>
<glyph name="five" format="2">
  <advance width="748.0"/>
  <unicode hex="0035"/>
  <outline>
    <contour>
      <point x="380.61445783132524" y="-10.626506024096384" type="curve" smooth="yes"/>
      <point x="579.1927710843373" y="-10.626506024096384"/>
      <point x="703.9518072289155" y="78.96987951807229"/>
      <point x="703.9518072289155" y="229.81927710843374" type="curve" smooth="yes"/>
      <point x="703.9518072289155" y="366.7590361445783"/>
      <point x="599.6987951807229" y="454.0722891566265"/>
      <point x="429.81927710843377" y="454.0722891566265" type="curve" smooth="yes"/>
      <point x="346.144578313253" y="454.0722891566265"/>
      <point x="271.65060240963857" y="431.8614457831325"/>
      <point x="229.90361445783134" y="393.5" type="curve"/>
      <point x="264.00602409638554" y="393.5" type="line"/>
      <point x="264.00602409638554" y="567.4759036144578" type="line"/>
      <point x="649.355421686747" y="567.4759036144578" type="line"/>
      <point x="649.355421686747" y="705.0" type="line"/>
      <point x="103.63253012048193" y="705.0" type="line"/>
      <point x="103.63253012048193" y="268.39156626506025" type="line"/>
      <point x="215.95180722891564" y="268.39156626506025" type="line"/>
      <point x="266.6385542168675" y="303.5301204819278"/>
      <point x="321.2530120481928" y="320.7710843373494"/>
      <point x="387.98795180722885" y="320.7710843373494" type="curve" smooth="yes"/>
      <point x="484.99397590361446" y="320.7710843373494"/>
      <point x="538.7289156626506" y="285.2289156626506"/>
      <point x="538.7289156626506" y="225.81927710843374" type="curve" smooth="yes"/>
      <point x="538.7289156626506" y="162.69277108433735"/>
      <point x="479.96385542168673" y="129.89759036144576"/>
      <point x="378.9879518072289" y="129.89759036144576" type="curve" smooth="yes"/>
      <point x="287.58433734939763" y="129.89759036144576"/>
      <point x="209.86746987951807" y="153.95783132530119"/>
      <point x="137.4036144578313" y="200.85542168674698" type="curve"/>
      <point x="77.28915662650603" y="72.86746987951808" type="line"/>
      <point x="143.34939759036146" y="22.403614457831328"/>
      <point x="260.7951807228916" y="-10.626506024096384"/>
    </contour>
  </outline>
</glyph>
<glyph name="six" format="2">
  <advance width="748.0"/>
  <unicode hex="0036"/>
  <outline>
    <contour>
      <point x="401.0301204819277" y="-10.626506024096384" type="curve" smooth="yes"/>
      <point x="582.9819277108434" y="-10.626506024096384"/>
      <point x="700.5481927710844" y="88.62650602409639"/>
      <point x="700.5481927710844" y="230.10240963855424" type="curve" smooth="yes"/>
      <point x="700.5481927710844" y="365.0120481927711"/>
      <point x="594.1746987951807" y="460.60843373493975"/>
      <point x="436.45783132530124" y="460.60843373493975" type="curve" smooth="yes"/>
      <point x="317.4096385542168" y="460.60843373493975"/>
      <point x="225.79518072289156" y="404.2771084337349"/>
      <point x="208.19879518072287" y="317.7048192771084" type="curve"/>
      <point x="223.42168674698794" y="317.7048192771084" type="line"/>
      <point x="223.42168674698794" y="375.80120481927713" type="line" smooth="yes"/>
      <point x="223.42168674698794" y="508.0963855421687"/>
      <point x="301.1566265060241" y="575.1024096385541"/>
      <point x="437.81927710843377" y="575.1024096385541" type="curve" smooth="yes"/>
      <point x="514.1927710843373" y="575.1024096385541"/>
      <point x="583.6566265060242" y="553.3554216867469"/>
      <point x="641.7168674698795" y="510.4879518072289" type="curve"/>
      <point x="701.144578313253" y="636.1626506024096" type="line"/>
      <point x="636.0120481927711" y="686.5361445783133"/>
      <point x="540.9216867469879" y="715.6265060240964"/>
      <point x="439.1626506024096" y="715.6265060240964" type="curve" smooth="yes"/>
      <point x="201.8975903614458" y="715.6265060240964"/>
      <point x="60.82530120481927" y="580.9698795180723"/>
      <point x="60.82530120481927" y="339.53614457831327" type="curve" smooth="yes"/>
      <point x="60.82530120481927" y="116.3433734939759"/>
      <point x="189.24096385542168" y="-10.626506024096384"/>
    </contour>
    <contour>
      <point x="397.68674698795184" y="120.39156626506023" type="curve" smooth="yes"/>
      <point x="308.68072289156623" y="120.39156626506023"/>
      <point x="252.79518072289156" y="160.8734939759036"/>
      <point x="252.79518072289156" y="224.81927710843374" type="curve" smooth="yes"/>
      <point x="252.79518072289156" y="289.10843373493975"/>
      <point x="308.68072289156623" y="330.27710843373495"/>
      <point x="397.68674698795184" y="330.27710843373495" type="curve" smooth="yes"/>
      <point x="485.6927710843374" y="330.27710843373495"/>
      <point x="541.5783132530121" y="289.10843373493975"/>
      <point x="541.5783132530121" y="224.81927710843374" type="curve" smooth="yes"/>
      <point x="541.5783132530121" y="160.8734939759036"/>
      <point x="485.6927710843374" y="120.39156626506023"/>
    </contour>
  </outline>
</glyph>
<glyph name="seven" format="2">
  <advance width="748.0"/>
  <unicode hex="0037"/>
  <outline>
    <contour>
      <point x="100.1144578313253" y="0.0" type="line"/>
      <point x="298.855421686747" y="0.0" type="line"/>
      <point x="685.4879518072289" y="577.1024096385541" type="line"/>
      <point x="685.4879518072289" y="705.0" type="line"/>
      <point x="63.16867469879517" y="705.0" type="line"/>
      <point x="63.16867469879517" y="560.222891566265" type="line"/>
      <point x="534.2349397590361" y="560.222891566265" type="line"/>
      <point x="532.2650602409639" y="615.8313253012049" type="line"/>
    </contour>
  </outline>
</glyph>
<glyph name="eight" format="2">
  <advance width="748.0"/>
  <unicode hex="0038"/>
  <outline>
    <contour>
      <point x="374.0" y="-10.626506024096384" type="curve" smooth="yes"/>
      <point x="584.4156626506024" y="-10.626506024096384"/>
      <point x="703.8915662650602" y="68.25301204819277"/>
      <point x="703.8915662650602" y="193.19277108433735" type="curve" smooth="yes"/>
      <point x="703.8915662650602" y="293.1927710843373"/>
      <point x="627.6084337349397" y="363.1325301204819"/>
      <point x="505.20481927710847" y="374.8192771084337" type="curve"/>
      <point x="505.20481927710847" y="347.77710843373495" type="line"/>
      <point x="613.6084337349397" y="365.1204819277108"/>
      <point x="682.2650602409639" y="433.4036144578313"/>
      <point x="682.2650602409639" y="524.0903614457831" type="curve" smooth="yes"/>
      <point x="682.2650602409639" y="644.0"/>
      <point x="568.0722891566265" y="715.6265060240964"/>
      <point x="374.0" y="715.6265060240964" type="curve" smooth="yes"/>
      <point x="179.9578313253012" y="715.6265060240964"/>
      <point x="66.42168674698794" y="643.3433734939758"/>
      <point x="66.42168674698794" y="525.4036144578313" type="curve" smooth="yes"/>
      <point x="66.42168674698794" y="433.7469879518072"/>
      <point x="135.07831325301206" y="365.46385542168673"/>
      <point x="242.7951807228916" y="347.77710843373495" type="curve"/>
      <point x="242.7951807228916" y="374.8192771084337" type="line"/>
      <point x="121.07831325301206" y="362.78915662650604"/>
      <point x="44.108433734939766" y="292.84939759036143"/>
      <point x="44.108433734939766" y="193.19277108433735" type="curve" smooth="yes"/>
      <point x="44.108433734939766" y="68.25301204819277"/>
      <point x="163.5843373493976" y="-10.626506024096384"/>
    </contour>
    <contour>
      <point x="374.0" y="118.39156626506023" type="curve" smooth="yes"/>
      <point x="261.1566265060241" y="118.39156626506023"/>
      <point x="201.79518072289156" y="149.06626506024097"/>
      <point x="201.79518072289156" y="206.0722891566265" type="curve" smooth="yes"/>
      <point x="201.79518072289156" y="263.39156626506025"/>
      <point x="260.1566265060241" y="292.00602409638554"/>
      <point x="374.0" y="292.00602409638554" type="curve" smooth="yes"/>
      <point x="488.5301204819277" y="292.00602409638554"/>
      <point x="546.2048192771085" y="263.39156626506025"/>
      <point x="546.2048192771085" y="206.0722891566265" type="curve" smooth="yes"/>
      <point x="546.2048192771085" y="149.06626506024097"/>
      <point x="487.5301204819277" y="118.39156626506023"/>
    </contour>
    <contour>
      <point x="374.0" y="421.36746987951807" type="curve" smooth="yes"/>
      <point x="277.2168674698795" y="421.36746987951807"/>
      <point x="224.42168674698794" y="451.38554216867465"/>
      <point x="224.42168674698794" y="504.9879518072289" type="curve" smooth="yes"/>
      <point x="224.42168674698794" y="557.5903614457832"/>
      <point x="277.53012048192767" y="586.6084337349397"/>
      <point x="374.0" y="586.6084337349397" type="curve" smooth="yes"/>
      <point x="470.46987951807233" y="586.6084337349397"/>
      <point x="524.265060240964" y="557.5903614457832"/>
      <point x="524.265060240964" y="504.9879518072289" type="curve" smooth="yes"/>
      <point x="524.265060240964" y="451.38554216867465"/>
      <point x="470.7831325301205" y="421.36746987951807"/>
    </contour>
  </outline>
</glyph>
<glyph name="nine" format="2">
  <advance width="748.0"/>
  <unicode hex="0039"/>
  <outline>
    <contour>
      <point x="309.5240963855422" y="-10.626506024096384" type="curve" smooth="yes"/>
      <point x="546.1024096385543" y="-10.626506024096384"/>
      <point x="687.1746987951808" y="124.71686746987952"/>
      <point x="687.1746987951808" y="365.46385542168673" type="curve" smooth="yes"/>
      <point x="687.1746987951808" y="588.6566265060242"/>
      <point x="559.4457831325301" y="715.6265060240964"/>
      <point x="346.9698795180723" y="715.6265060240964" type="curve" smooth="yes"/>
      <point x="165.70481927710844" y="715.6265060240964"/>
      <point x="47.45180722891567" y="617.0602409638554"/>
      <point x="47.45180722891567" y="474.8975903614458" type="curve" smooth="yes"/>
      <point x="47.45180722891567" y="339.9879518072289"/>
      <point x="154.5120481927711" y="244.39156626506028"/>
      <point x="311.5421686746988" y="244.39156626506028" type="curve" smooth="yes"/>
      <point x="431.27710843373495" y="244.39156626506028"/>
      <point x="522.8915662650602" y="300.7228915662651"/>
      <point x="539.8012048192771" y="387.2951807228916" type="curve"/>
      <point x="525.265060240964" y="387.2951807228916" type="line"/>
      <point x="525.265060240964" y="329.19879518072287" type="line" smooth="yes"/>
      <point x="525.265060240964" y="196.90361445783134"/>
      <point x="447.5301204819277" y="129.89759036144576"/>
      <point x="310.1807228915663" y="129.89759036144576" type="curve" smooth="yes"/>
      <point x="233.80722891566265" y="129.89759036144576"/>
      <point x="164.3433734939759" y="152.3313253012048"/>
      <point x="106.96987951807229" y="195.19879518072287" type="curve"/>
      <point x="46.855421686746986" y="69.52409638554218" type="line"/>
      <point x="112.67469879518073" y="19.150602409638555"/>
      <point x="207.07831325301206" y="-10.626506024096384"/>
    </contour>
    <contour>
      <point x="351.0" y="375.4096385542169" type="curve" smooth="yes"/>
      <point x="262.99397590361446" y="375.4096385542169"/>
      <point x="207.10843373493975" y="415.89156626506025"/>
      <point x="207.10843373493975" y="480.1807228915663" type="curve" smooth="yes"/>
      <point x="207.10843373493975" y="544.1265060240964"/>
      <point x="262.99397590361446" y="585.2951807228916"/>
      <point x="351.0" y="585.2951807228916" type="curve" smooth="yes"/>
      <point x="440.00602409638554" y="585.2951807228916"/>
      <point x="495.89156626506025" y="544.1265060240964"/>
      <point x="495.89156626506025" y="480.1807228915663" type="curve" smooth="yes"/>
      <point x="495.89156626506025" y="415.89156626506025"/>
      <point x="440.00602409638554" y="375.4096385542169"/>
    </contour>
  </outline>
</glyph>
<glyph name="colon" format="2">
  <advance width="309.78313253012044"/>
  <unicode hex="003A"/>
  <outline>
    <contour>
      <point x="66.98795180722891" y="318.41566265060237" type="line"/>
      <point x="242.79518072289156" y="318.41566265060237" type="line"/>
      <point x="242.79518072289156" y="490.566265060241" type="line"/>
      <point x="66.98795180722891" y="490.566265060241" type="line"/>
    </contour>
    <contour>
      <point x="66.98795180722891" y="0.0" type="line"/>
      <point x="242.79518072289156" y="0.0" type="line"/>
      <point x="242.79518072289156" y="172.83734939759034" type="line"/>
      <point x="66.98795180722891" y="172.83734939759034" type="line"/>
    </contour>
  </outline>
</glyph>
<glyph name="semicolon" format="2">
  <advance width="309.78313253012044"/>
  <unicode hex="003B"/>
  <outline>
    <contour>
      <point x="149.1144578313253" y="-149.9036144578313" type="line"/>
      <point x="218.5722891566265" y="-80.84939759036143"/>
      <point x="242.79518072289156" y="-24.180722891566262"/>
      <point x="242.79518072289156" y="57.054216867469876" type="curve" smooth="yes"/>
      <point x="242.79518072289156" y="172.83734939759034" type="line"/>
      <point x="66.98795180722891" y="172.83734939759034" type="line"/>
      <point x="66.98795180722891" y="0.0" type="line"/>
      <point x="187.8734939759036" y="0.0" type="line"/>
      <point x="154.8012048192771" y="34.265060240963855" type="line"/>
      <point x="154.14457831325302" y="-17.524096385542165"/>
      <point x="135.95180722891567" y="-53.28313253012048"/>
      <point x="88.28313253012048" y="-100.98192771084337" type="curve"/>
    </contour>
    <contour>
      <point x="66.98795180722891" y="318.41566265060237" type="line"/>
      <point x="242.79518072289156" y="318.41566265060237" type="line"/>
      <point x="242.79518072289156" y="490.566265060241" type="line"/>
      <point x="66.98795180722891" y="490.566265060241" type="line"/>
    </contour>
  </outline>
</glyph>
<glyph name="less" format="2">
  <advance width="748.0"/>
  <unicode hex="003C"/>
  <outline>
    <contour>
      <point x="642.9397590361446" y="22.837349397590366" type="line"/>
      <point x="642.9397590361446" y="147.97590361445785" type="line"/>
      <point x="151.1325301204819" y="325.60843373493975" type="line"/>
      <point x="151.1325301204819" y="248.73493975903617" type="line"/>
      <point x="642.9397590361446" y="426.0240963855422" type="line"/>
      <point x="642.9397590361446" y="551.8493975903615" type="line"/>
      <point x="103.0" y="349.36746987951807" type="line"/>
      <point x="103.0" y="224.97590361445782" type="line"/>
    </contour>
  </outline>
</glyph>
<glyph name="equal" format="2">
  <advance width="748.0"/>
  <unicode hex="003D"/>
  <outline>
    <contour>
      <point x="103.0" y="338.10843373493975" type="line"/>
      <point x="645.0" y="338.10843373493975" type="line"/>
      <point x="645.0" y="449.36746987951807" type="line"/>
      <point x="103.0" y="449.36746987951807" type="line"/>
    </contour>
    <contour>
      <point x="103.0" y="125.31927710843375" type="line"/>
      <point x="645.0" y="125.31927710843375" type="line"/>
      <point x="645.0" y="235.89156626506022" type="line"/>
      <point x="103.0" y="235.89156626506022" type="line"/>
    </contour>
  </outline>
</glyph>
<glyph name="greater" format="2">
  <advance width="748.0"/>
  <unicode hex="003E"/>
  <outline>
    <contour>
      <point x="103.0" y="22.837349397590366" type="line"/>
      <point x="642.9397590361446" y="224.97590361445782" type="line"/>
      <point x="642.9397590361446" y="349.36746987951807" type="line"/>
      <point x="103.0" y="551.8493975903615" type="line"/>
      <point x="103.0" y="426.0240963855422" type="line"/>
      <point x="595.4939759036143" y="248.73493975903617" type="line"/>
      <point x="595.4939759036143" y="325.60843373493975" type="line"/>
      <point x="103.0" y="147.97590361445785" type="line"/>
    </contour>
  </outline>
</glyph>
<glyph name="question" format="2">
  <advance width="573.2771084337348"/>
  <unicode hex="003F"/>
  <outline>
    <contour>
      <point x="227.93975903614458" y="231.66265060240966" type="line"/>
      <point x="326.5722891566265" y="231.66265060240966" type="line"/>
      <point x="329.5421686746988" y="256.6024096385542" type="line" smooth="yes"/>
      <point x="334.5722891566265" y="293.59036144578306"/>
      <point x="358.91566265060237" y="324.8614457831325"/>
      <point x="442.31927710843377" y="378.2228915662651" type="curve" smooth="yes"/>
      <point x="525.0361445783132" y="431.9277108433735"/>
      <point x="558.9457831325301" y="479.30120481927713"/>
      <point x="558.9457831325301" y="539.5843373493975" type="curve" smooth="yes"/>
      <point x="558.9457831325301" y="648.1204819277109"/>
      <point x="451.27710843373495" y="715.6265060240964"/>
      <point x="294.0120481927711" y="715.6265060240964" type="curve" smooth="yes"/>
      <point x="183.0722891566265" y="715.6265060240964"/>
      <point x="72.50602409638554" y="681.222891566265"/>
      <point x="0.6566265060240963" y="627.1024096385541" type="curve"/>
      <point x="61.42771084337349" y="501.4277108433736" type="line"/>
      <point x="128.51807228915663" y="550.6686746987951"/>
      <point x="199.98192771084337" y="575.1024096385541"/>
      <point x="283.1626506024096" y="575.1024096385541" type="curve" smooth="yes"/>
      <point x="349.73493975903614" y="575.1024096385541"/>
      <point x="389.1265060240964" y="557.144578313253"/>
      <point x="389.1265060240964" y="517.9156626506024" type="curve" smooth="yes"/>
      <point x="389.1265060240964" y="494.18072289156623"/>
      <point x="375.6024096385542" y="474.13253012048193"/>
      <point x="322.3012048192771" y="436.0843373493976" type="curve" smooth="yes"/>
      <point x="248.93975903614458" y="383.91566265060237"/>
      <point x="227.93975903614458" y="334.7048192771084"/>
      <point x="227.93975903614458" y="281.5240963855422" type="curve" smooth="yes"/>
    </contour>
    <contour>
      <point x="189.18072289156626" y="0.0" type="line"/>
      <point x="365.33132530120486" y="0.0" type="line"/>
      <point x="365.33132530120486" y="172.83734939759034" type="line"/>
      <point x="189.18072289156626" y="172.83734939759034" type="line"/>
    </contour>
  </outline>
</glyph>
<glyph name="at" format="2">
  <advance width="1191.0421686746988"/>
  <unicode hex="0040"/>
  <outline>
    <contour>
      <point x="608.4457831325302" y="-166.59638554216866" type="curve" smooth="yes"/>
      <point x="746.7771084337348" y="-166.59638554216866"/>
      <point x="877.7469879518071" y="-135.4156626506024"/>
      <point x="958.8072289156627" y="-80.05421686746989" type="curve"/>
      <point x="907.7650602409639" y="2.8192771084337336" type="line"/>
      <point x="833.7951807228916" y="-45.54216867469879"/>
      <point x="728.210843373494" y="-71.09638554216868"/>
      <point x="609.1024096385543" y="-71.09638554216868" type="curve" smooth="yes"/>
      <point x="343.83132530120486" y="-71.09638554216868"/>
      <point x="179.2469879518072" y="52.981927710843365"/>
      <point x="179.2469879518072" y="265.0903614457831" type="curve" smooth="yes"/>
      <point x="179.2469879518072" y="481.1385542168675"/>
      <point x="349.7710843373494" y="620.1265060240963"/>
      <point x="633.6385542168675" y="620.1265060240963" type="curve" smooth="yes"/>
      <point x="875.343373493976" y="620.1265060240963"/>
      <point x="1019.0481927710844" y="518.3614457831326"/>
      <point x="1019.0481927710844" y="339.0" type="curve" smooth="yes"/>
      <point x="1019.0481927710844" y="228.2048192771084"/>
      <point x="964.6867469879519" y="151.18674698795178"/>
      <point x="881.234939759036" y="151.18674698795178" type="curve" smooth="yes"/>
      <point x="841.9939759036145" y="151.18674698795178"/>
      <point x="822.5602409638553" y="168.6204819277108"/>
      <point x="822.5602409638553" y="207.11445783132527" type="curve" smooth="yes"/>
      <point x="822.5602409638553" y="227.33734939759034"/>
      <point x="828.5000000000001" y="253.81325301204816"/>
      <point x="831.5" y="266.81325301204816" type="curve" smooth="yes"/>
      <point x="883.3072289156627" y="491.2228915662651" type="line"/>
      <point x="760.1084337349398" y="491.2228915662651" type="line"/>
      <point x="738.1385542168674" y="397.53614457831327" type="line"/>
      <point x="760.8975903614457" y="397.53614457831327" type="line"/>
      <point x="740.644578313253" y="467.81927710843377"/>
      <point x="685.2409638554217" y="502.50602409638554"/>
      <point x="594.1807228915662" y="502.50602409638554" type="curve" smooth="yes"/>
      <point x="438.0903614457831" y="502.50602409638554"/>
      <point x="327.433734939759" y="397.1927710843374"/>
      <point x="327.433734939759" y="251.789156626506" type="curve" smooth="yes"/>
      <point x="327.433734939759" y="129.87951807228916"/>
      <point x="405.9096385542169" y="58.68674698795181"/>
      <point x="531.1927710843373" y="58.68674698795181" type="curve" smooth="yes"/>
      <point x="638.355421686747" y="58.68674698795181"/>
      <point x="714.0722891566265" y="111.81927710843374"/>
      <point x="753.7590361445783" y="209.39759036144576" type="curve"/>
      <point x="713.2710843373494" y="184.40361445783134" type="line"/>
      <point x="715.9397590361446" y="106.3433734939759"/>
      <point x="768.4759036144579" y="58.68674698795181"/>
      <point x="870.0421686746988" y="58.68674698795181" type="curve" smooth="yes"/>
      <point x="1025.1746987951806" y="58.68674698795181"/>
      <point x="1127.1144578313254" y="173.65662650602408"/>
      <point x="1127.1144578313254" y="341.3132530120482" type="curve" smooth="yes"/>
      <point x="1127.1144578313254" y="572.5963855421686"/>
      <point x="930.6084337349397" y="715.6265060240964"/>
      <point x="628.4457831325301" y="715.6265060240964" type="curve" smooth="yes"/>
      <point x="286.74698795180717" y="715.6265060240964"/>
      <point x="63.92771084337349" y="534.0602409638554"/>
      <point x="63.92771084337349" y="267.3734939759036" type="curve" smooth="yes"/>
      <point x="63.92771084337349" y="1.0602409638554215"/>
      <point x="284.96987951807233" y="-166.59638554216866"/>
    </contour>
    <contour>
      <point x="561.1445783132531" y="156.46987951807228" type="curve" smooth="yes"/>
      <point x="493.4096385542168" y="156.46987951807228"/>
      <point x="457.51204819277103" y="190.02409638554218"/>
      <point x="457.51204819277103" y="255.75903614457832" type="curve" smooth="yes"/>
      <point x="457.51204819277103" y="344.3313253012048"/>
      <point x="521.277108433735" y="404.7228915662651"/>
      <point x="618.9096385542168" y="404.7228915662651" type="curve" smooth="yes"/>
      <point x="684.0481927710844" y="404.7228915662651"/>
      <point x="720.8253012048193" y="376.855421686747"/>
      <point x="720.8253012048193" y="312.49397590361446" type="curve" smooth="yes"/>
      <point x="720.8253012048193" y="227.80120481927707"/>
      <point x="658.656626506024" y="156.46987951807228"/>
    </contour>
  </outline>
</glyph>
<glyph name="A" format="2">
  <advance width="928.9337349397591"/>
  <unicode hex="0041"/>
  <anchor x="464.6385542168675" y="0.0" name="bottom"/>
  <anchor x="877.1746987951808" y="0.0" name="ogonek"/>
  <anchor x="464.98192771084337" y="705.0" name="top"/>
  <outline>
    <contour>
      <point x="-5.963855421686745" y="0.0" type="line"/>
      <point x="172.42168674698794" y="0.0" type="line"/>
      <point x="277.1686746987952" y="194.49397590361446" type="line"/>
      <point x="201.45783132530119" y="147.03614457831327" type="line"/>
      <point x="726.789156626506" y="147.03614457831327" type="line"/>
      <point x="651.421686746988" y="194.49397590361446" type="line"/>
      <point x="756.512048192771" y="0.0" type="line"/>
      <point x="935.5843373493975" y="0.0" type="line"/>
      <point x="539.8554216867469" y="705.0" type="line"/>
      <point x="389.76506024096386" y="705.0" type="line"/>
    </contour>
    <contour>
      <point x="463.2951807228916" y="543.3734939759037" type="line"/>
      <point x="465.2951807228916" y="543.3734939759037" type="line"/>
      <point x="629.2289156626506" y="235.22289156626505" type="line"/>
      <point x="668.7048192771084" y="276.3975903614458" type="line"/>
      <point x="259.5421686746988" y="276.3975903614458" type="line"/>
      <point x="299.70481927710847" y="235.22289156626505" type="line"/>
    </contour>
  </outline>
</glyph>
<glyph name="B" format="2">
  <advance width="864.3674698795181"/>
  <unicode hex="0042"/>
  <anchor x="429.78915662650604" y="0.0" name="bottom"/>
  <anchor x="430.13253012048193" y="705.0" name="top"/>
  <outline>
    <contour>
      <point x="91.42168674698794" y="0.0" type="line"/>
      <point x="508.3975903614458" y="0.0" type="line" smooth="yes"/>
      <point x="694.8969638554216" y="0.0"/>
      <point x="803.6626506024095" y="74.22289156626506"/>
      <point x="803.6626506024095" y="196.22289156626505" type="curve" smooth="yes"/>
      <point x="803.6626506024095" y="295.37349397590367"/>
      <point x="732.2786506024096" y="354.77079518072287"/>
      <point x="604.5421686746987" y="372.2228915662651" type="curve"/>
      <point x="604.5421686746987" y="356.59638554216866" type="line"/>
      <point x="716.2193012048192" y="377.2156686746988"/>
      <point x="780.6927710843373" y="436.8493975903615"/>
      <point x="780.6927710843373" y="525.6566265060242" type="curve" smooth="yes"/>
      <point x="780.6927710843373" y="637.3734939759037"/>
      <point x="677.5851927710844" y="705.0"/>
      <point x="495.0240963855422" y="705.0" type="curve" smooth="yes"/>
      <point x="91.42168674698794" y="705.0" type="line"/>
    </contour>
    <contour>
      <point x="261.18072289156623" y="125.70481927710843" type="line"/>
      <point x="261.18072289156623" y="294.9759036144579" type="line"/>
      <point x="491.0120481927711" y="294.9759036144579" type="line" smooth="yes"/>
      <point x="561.6084337349398" y="294.9759036144579"/>
      <point x="632.843373493976" y="285.1265060240964"/>
      <point x="632.843373493976" y="211.01204819277106" type="curve" smooth="yes"/>
      <point x="632.843373493976" y="136.24096385542168"/>
      <point x="559.8915662650602" y="125.70481927710843"/>
      <point x="489.98192771084337" y="125.70481927710843" type="curve" smooth="yes"/>
    </contour>
    <contour>
      <point x="261.18072289156623" y="420.68072289156623" type="line"/>
      <point x="261.18072289156623" y="579.2951807228916" type="line"/>
      <point x="469.0421686746988" y="579.2951807228916" type="line" smooth="yes"/>
      <point x="569.4216867469879" y="579.2951807228916"/>
      <point x="610.2168674698796" y="555.5903614457832"/>
      <point x="610.2168674698796" y="500.30120481927713" type="curve" smooth="yes"/>
      <point x="610.2168674698796" y="444.35542168674704"/>
      <point x="569.7650602409639" y="420.68072289156623"/>
      <point x="469.7289156626506" y="420.68072289156623" type="curve" smooth="yes"/>
    </contour>
  </outline>
</glyph>
<glyph name="C" format="2">
  <advance width="846.3253012048193"/>
  <unicode hex="0043"/>
  <anchor x="487.6987951807229" y="0.0" name="bottom"/>
  <anchor x="488.7289156626506" y="705.0" name="top"/>
  <outline>
    <contour>
      <point x="499.51807228915663" y="-10.626506024096384" type="curve" smooth="yes"/>
      <point x="624.8313253012049" y="-10.626506024096384"/>
      <point x="734.0843373493976" y="21.120481927710845"/>
      <point x="805.7409638554216" y="78.5843373493976" type="curve"/>
      <point x="745.9096385542168" y="212.45180722891564" type="line"/>
      <point x="672.5361445783133" y="161.21084337349396"/>
      <point x="600.0421686746988" y="138.43373493975903"/>
      <point x="508.0843373493976" y="138.43373493975903" type="curve" smooth="yes"/>
      <point x="342.7686807228916" y="138.43373493975903"/>
      <point x="250.8192771084337" y="214.69277108433735"/>
      <point x="250.8192771084337" y="352.31325301204816" type="curve" smooth="yes"/>
      <point x="250.8192771084337" y="489.96385542168673"/>
      <point x="343.1120542168675" y="566.566265060241"/>
      <point x="508.0843373493976" y="566.566265060241" type="curve" smooth="yes"/>
      <point x="600.0421686746988" y="566.566265060241"/>
      <point x="672.5361445783133" y="543.789156626506"/>
      <point x="745.9096385542168" y="492.54819277108436" type="curve"/>
      <point x="805.7409638554216" y="626.4156626506024" type="line"/>
      <point x="734.0843373493976" y="684.566265060241"/>
      <point x="625.1746987951808" y="715.6265060240964"/>
      <point x="500.20481927710847" y="715.6265060240964" type="curve" smooth="yes"/>
      <point x="234.22289156626505" y="715.6265060240964"/>
      <point x="63.92771084337349" y="574.0602409638553"/>
      <point x="63.92771084337349" y="352.0" type="curve" smooth="yes"/>
      <point x="63.92771084337349" y="130.28313253012047"/>
      <point x="233.22289156626505" y="-10.626506024096384"/>
    </contour>
  </outline>
</glyph>
<glyph name="D" format="2">
  <advance width="953.4397590361446"/>
  <unicode hex="0044"/>
  <anchor x="473.26506024096386" y="0.0" name="bottom"/>
  <anchor x="241.48795180722888" y="358.0" name="center"/>
  <anchor x="473.60843373493975" y="705.0" name="top"/>
  <outline>
    <contour>
      <point x="91.42168674698794" y="0.0" type="line"/>
      <point x="435.80120481927713" y="0.0" type="line" smooth="yes"/>
      <point x="731.8132530120481" y="0.0"/>
      <point x="890.1987951807229" y="123.28313253012048"/>
      <point x="890.1987951807229" y="353.0" type="curve" smooth="yes"/>
      <point x="890.1987951807229" y="582.0602409638554"/>
      <point x="731.4999999999999" y="705.0"/>
      <point x="435.80120481927713" y="705.0" type="curve" smooth="yes"/>
      <point x="91.42168674698794" y="705.0" type="line"/>
    </contour>
    <contour>
      <point x="268.40361445783134" y="140.15060240963854" type="line"/>
      <point x="268.40361445783134" y="564.8493975903614" type="line"/>
      <point x="424.9216867469879" y="564.8493975903614" type="line" smooth="yes"/>
      <point x="622.078313253012" y="564.8493975903614"/>
      <point x="706.5903614457832" y="501.3072289156627"/>
      <point x="706.5903614457832" y="353.0" type="curve" smooth="yes"/>
      <point x="706.5903614457832" y="204.34939759036146"/>
      <point x="622.4216867469879" y="140.15060240963854"/>
      <point x="424.9216867469879" y="140.15060240963854" type="curve" smooth="yes"/>
    </contour>
  </outline>
</glyph>
<glyph name="E" format="2">
  <advance width="745.3373493975903"/>
  <unicode hex="0045"/>
  <anchor x="408.78915662650604" y="0.0" name="bottom"/>
  <anchor x="631.2951807228916" y="0.0" name="ogonek"/>
  <anchor x="408.78915662650604" y="705.0" name="top"/>
  <anchor x="25.74698795180723" y="705.0" name="topleft"/>
  <outline>
    <contour>
      <point x="91.42168674698794" y="0.0" type="line"/>
      <point x="683.7409638554217" y="0.0" type="line"/>
      <point x="683.7409638554217" y="132.3012048192771" type="line"/>
      <point x="261.18072289156623" y="132.3012048192771" type="line"/>
      <point x="261.18072289156623" y="292.3493975903615" type="line"/>
      <point x="651.6506024096385" y="292.3493975903615" type="line"/>
      <point x="651.6506024096385" y="424.6506024096385" type="line"/>
      <point x="261.18072289156623" y="424.6506024096385" type="line"/>
      <point x="261.18072289156623" y="572.698795180723" type="line"/>
      <point x="683.7409638554217" y="572.698795180723" type="line"/>
      <point x="683.7409638554217" y="705.0" type="line"/>
      <point x="91.42168674698794" y="705.0" type="line"/>
    </contour>
  </outline>
</glyph>
<glyph name="F" format="2">
  <advance width="702.0240963855422"/>
  <unicode hex="0046"/>
  <anchor x="373.50602409638554" y="0.0" name="bottom"/>
  <anchor x="378.1024096385542" y="705.0" name="top"/>
  <outline>
    <contour>
      <point x="91.42168674698794" y="0.0" type="line"/>
      <point x="268.40361445783134" y="0.0" type="line"/>
      <point x="268.40361445783134" y="285.4397590361446" type="line"/>
      <point x="647.0542168674699" y="285.4397590361446" type="line"/>
      <point x="647.0542168674699" y="417.74096385542174" type="line"/>
      <point x="268.40361445783134" y="417.74096385542174" type="line"/>
      <point x="268.40361445783134" y="572.698795180723" type="line"/>
      <point x="673.6807228915662" y="572.698795180723" type="line"/>
      <point x="673.6807228915662" y="705.0" type="line"/>
      <point x="91.42168674698794" y="705.0" type="line"/>
    </contour>
  </outline>
</glyph>
<glyph name="G" format="2">
  <advance width="918.2048192771085"/>
  <unicode hex="0047"/>
  <anchor x="510.23493975903614" y="0.0" name="bottom"/>
  <anchor x="501.23493975903614" y="705.0" name="top"/>
  <outline>
    <contour>
      <point x="519.2650602409639" y="-10.626506024096384" type="curve" smooth="yes"/>
      <point x="632.4879518072289" y="-10.626506024096384"/>
      <point x="749.4578313253011" y="11.03012048192771"/>
      <point x="833.4999999999999" y="47.28313253012048" type="curve"/>
      <point x="833.4999999999999" y="393.1144578313253" type="line"/>
      <point x="492.93975903614455" y="393.1144578313253" type="line"/>
      <point x="492.93975903614455" y="272.6024096385542" type="line"/>
      <point x="687.6927710843372" y="272.6024096385542" type="line"/>
      <point x="687.6927710843372" y="124.31927710843374" type="line"/>
      <point x="712.4819277108435" y="161.42168674698794" type="line"/>
      <point x="646.3614457831326" y="142.6144578313253"/>
      <point x="584.343373493976" y="132.52409638554215"/>
      <point x="522.6084337349398" y="132.52409638554215" type="curve" smooth="yes"/>
      <point x="341.5433313253012" y="132.52409638554215"/>
      <point x="247.5361445783132" y="207.37951807228916"/>
      <point x="247.5361445783132" y="350.6566265060241" type="curve" smooth="yes"/>
      <point x="247.5361445783132" y="493.5903614457831"/>
      <point x="341.5572048192771" y="569.1927710843374"/>
      <point x="518.9036144578313" y="569.1927710843374" type="curve" smooth="yes"/>
      <point x="615.7710843373495" y="569.1927710843374"/>
      <point x="691.8915662650602" y="548.0722891566265"/>
      <point x="766.9216867469879" y="500.11445783132535" type="curve"/>
      <point x="827.7530120481928" y="632.0120481927711" type="line"/>
      <point x="753.7831325301204" y="685.5361445783133"/>
      <point x="640.933734939759" y="715.6265060240964"/>
      <point x="514.3373493975903" y="715.6265060240964" type="curve" smooth="yes"/>
      <point x="236.53614457831324" y="715.6265060240964"/>
      <point x="63.92771084337349" y="576.0301204819276"/>
      <point x="63.92771084337349" y="350.0301204819277" type="curve" smooth="yes"/>
      <point x="63.92771084337349" y="124.62650602409639"/>
      <point x="234.25301204819277" y="-10.626506024096384"/>
    </contour>
  </outline>
</glyph>
<glyph name="H" format="2">
  <advance width="969.0542168674699"/>
  <unicode hex="0048"/>
  <anchor x="484.69879518072287" y="0.0" name="bottom"/>
  <anchor x="484.69879518072287" y="567.698795180723" name="center"/>
  <anchor x="484.35542168674704" y="705.0" name="top"/>
  <anchor x="25.74698795180723" y="705.0" name="topleft"/>
  <outline>
    <contour>
      <point x="91.42168674698794" y="0.0" type="line"/>
      <point x="268.40361445783134" y="0.0" type="line"/>
      <point x="268.40361445783134" y="287.4397590361446" type="line"/>
      <point x="700.6506024096386" y="287.4397590361446" type="line"/>
      <point x="700.6506024096386" y="0.0" type="line"/>
      <point x="877.6325301204819" y="0.0" type="line"/>
      <point x="877.6325301204819" y="705.0" type="line"/>
      <point x="700.6506024096386" y="705.0" type="line"/>
      <point x="700.6506024096386" y="427.59036144578306" type="line"/>
      <point x="268.40361445783134" y="427.59036144578306" type="line"/>
      <point x="268.40361445783134" y="705.0" type="line"/>
      <point x="91.42168674698794" y="705.0" type="line"/>
    </contour>
  </outline>
</glyph>
<glyph name="I" format="2">
  <advance width="359.1385542168675"/>
  <unicode hex="0049"/>
  <anchor x="180.08433734939757" y="0.0" name="bottom"/>
  <anchor x="229.34939759036146" y="0.0" name="ogonek"/>
  <anchor x="180.08433734939757" y="705.0" name="top"/>
  <anchor x="25.746987951807228" y="705.0" name="topleft"/>
  <outline>
    <contour>
      <point x="91.42168674698794" y="0.0" type="line"/>
      <point x="268.40361445783134" y="0.0" type="line"/>
      <point x="268.40361445783134" y="705.0" type="line"/>
      <point x="91.42168674698794" y="705.0" type="line"/>
    </contour>
  </outline>
</glyph>
<glyph name="J" format="2">
  <advance width="451.6144578313253"/>
  <unicode hex="004A"/>
  <anchor x="272.2168674698795" y="0.0" name="bottom"/>
  <anchor x="271.18674698795184" y="705.0" name="top"/>
  <outline>
    <contour>
      <point x="-2.807228915662651" y="-9.93975903614458" type="line"/>
      <point x="102.8433734939759" y="-4.96987951807229" type="line" smooth="yes"/>
      <point x="269.66264457831323" y="4.242825301204821"/>
      <point x="360.1927710843373" y="83.47590361445783"/>
      <point x="360.1927710843373" y="222.39759036144576" type="curve" smooth="yes"/>
      <point x="360.1927710843373" y="705.0" type="line"/>
      <point x="183.21084337349396" y="705.0" type="line"/>
      <point x="183.21084337349396" y="220.45783132530119" type="line" smooth="yes"/>
      <point x="183.21084337349396" y="167.6325301204819"/>
      <point x="146.93975903614458" y="136.27108433734938"/>
      <point x="76.54819277108433" y="132.24096385542168" type="curve" smooth="yes"/>
      <point x="-13.716867469879517" y="127.2710843373494" type="line"/>
    </contour>
  </outline>
</glyph>
<glyph name="K" format="2">
  <advance width="835.9397590361446"/>
  <unicode hex="004B"/>
  <anchor x="416.6204819277108" y="0.0" name="bottom"/>
  <anchor x="416.96385542168673" y="705.0" name="top"/>
  <anchor x="25.74698795180723" y="705.0" name="topleft"/>
  <outline>
    <contour>
      <point x="91.42168674698794" y="0.0" type="line"/>
      <point x="268.40361445783134" y="0.0" type="line"/>
      <point x="268.40361445783134" y="320.6144578313253" type="line"/>
      <point x="270.40361445783134" y="320.6144578313253" type="line"/>
      <point x="639.2409638554216" y="0.0" type="line"/>
      <point x="874.1445783132531" y="0.0" type="line"/>
      <point x="402.433734939759" y="390.01204819277115" type="line"/>
      <point x="401.77710843373495" y="339.15060240963857" type="line"/>
      <point x="854.9638554216867" y="705.0" type="line"/>
      <point x="631.9397590361446" y="705.0" type="line"/>
      <point x="270.40361445783134" y="399.98192771084337" type="line"/>
      <point x="268.40361445783134" y="399.98192771084337" type="line"/>
      <point x="268.40361445783134" y="705.0" type="line"/>
      <point x="91.42168674698794" y="705.0" type="line"/>
    </contour>
  </outline>
</glyph>
<glyph name="M" format="2">
  <advance width="1093.5602409638554"/>
  <unicode hex="004D"/>
  <anchor x="547.6385542168674" y="0.0" name="bottom"/>
  <anchor x="547.6385542168674" y="705.0" name="top"/>
  <outline>
    <contour>
      <point x="93.42168674698794" y="0.0" type="line"/>
      <point x="254.3012048192771" y="0.0" type="line"/>
      <point x="254.3012048192771" y="477.08433734939763" type="line"/>
      <point x="227.7048192771084" y="477.08433734939763" type="line"/>
      <point x="499.0903614457831" y="105.09036144578313" type="line"/>
      <point x="593.5602409638553" y="105.09036144578313" type="line"/>
      <point x="863.5722891566265" y="476.3975903614458" type="line"/>
      <point x="839.9457831325302" y="476.3975903614458" type="line"/>
      <point x="839.9457831325302" y="0.0" type="line"/>
      <point x="1000.8253012048193" y="0.0" type="line"/>
      <point x="1000.8253012048193" y="705.0" type="line"/>
      <point x="848.198795180723" y="705.0" type="line"/>
      <point x="528.9819277108434" y="246.25301204819274" type="line"/>
      <point x="568.5481927710845" y="246.25301204819274" type="line"/>
      <point x="245.39156626506025" y="705.0" type="line"/>
      <point x="93.42168674698794" y="705.0" type="line"/>
    </contour>
  </outline>
</glyph>
<glyph name="N" format="2">
  <advance width="937.8614457831325"/>
  <unicode hex="004E"/>
  <anchor x="469.4156626506024" y="0.0" name="bottom"/>
  <anchor x="469.1024096385542" y="705.0" name="top"/>
  <outline>
    <contour>
      <point x="91.42168674698794" y="0.0" type="line"/>
      <point x="259.83734939759034" y="0.0" type="line"/>
      <point x="259.83734939759034" y="491.24698795180734" type="line"/>
      <point x="227.42168674698794" y="491.24698795180734" type="line"/>
      <point x="712.8554216867469" y="0.0" type="line"/>
      <point x="846.4397590361446" y="0.0" type="line"/>
      <point x="846.4397590361446" y="705.0" type="line"/>
      <point x="678.0240963855422" y="705.0" type="line"/>
      <point x="678.0240963855422" y="214.43975903614458" type="line"/>
      <point x="711.1265060240964" y="214.43975903614458" type="line"/>
      <point x="225.34939759036146" y="705.0" type="line"/>
      <point x="91.42168674698794" y="705.0" type="line"/>
    </contour>
  </outline>
</glyph>
<glyph name="O" format="2">
  <advance width="986.066265060241"/>
  <unicode hex="004F"/>
  <anchor x="493.20481927710847" y="-10.626506024096384" name="Qtail"/>
  <anchor x="493.20481927710847" y="0.0" name="bottom"/>
  <anchor x="490.95180722891564" y="353.0" name="center"/>
  <anchor x="565.1746987951808" y="0.0" name="ogonek"/>
  <anchor x="493.54819277108436" y="705.0" name="top"/>
  <anchor x="30.96987951807229" y="705.0" name="topleft"/>
  <anchor x="581.6084337349398" y="705.0" name="topright"/>
  <outline>
    <contour>
      <point x="493.5481927710843" y="-10.626506024096384" type="curve" smooth="yes"/>
      <point x="750.5602409638554" y="-10.626506024096384"/>
      <point x="922.8253012048193" y="134.93975903614458"/>
      <point x="922.8253012048193" y="353.34337349397595" type="curve" smooth="yes"/>
      <point x="922.8253012048193" y="571.7469879518071"/>
      <point x="750.8734939759036" y="715.6265060240964"/>
      <point x="493.5481927710843" y="715.6265060240964" type="curve" smooth="yes"/>
      <point x="236.19277108433735" y="715.6265060240964"/>
      <point x="63.92771084337349" y="570.7469879518071"/>
      <point x="63.92771084337349" y="352.0" type="curve" smooth="yes"/>
      <point x="63.92771084337349" y="133.59638554216866"/>
      <point x="235.53614457831324" y="-10.626506024096384"/>
    </contour>
    <contour>
      <point x="493.5481927710843" y="132.52409638554215" type="curve" smooth="yes"/>
      <point x="341.01807228915663" y="132.52409638554215"/>
      <point x="247.5361445783132" y="216.06626506024097"/>
      <point x="247.5361445783132" y="352.0" type="curve" smooth="yes"/>
      <point x="247.5361445783132" y="488.6204819277108"/>
      <point x="342.01807228915663" y="572.4759036144578"/>
      <point x="493.5481927710843" y="572.4759036144578" type="curve" smooth="yes"/>
      <point x="646.0783132530121" y="572.4759036144578"/>
      <point x="739.2168674698796" y="489.62048192771084"/>
      <point x="739.2168674698796" y="353.0" type="curve" smooth="yes"/>
      <point x="739.2168674698796" y="217.06626506024097"/>
      <point x="644.7349397590363" y="132.52409638554215"/>
    </contour>
  </outline>
</glyph>
<glyph name="P" format="2">
  <advance width="821.0361445783132"/>
  <unicode hex="0050"/>
  <anchor x="414.95180722891564" y="0.0" name="bottom"/>
  <anchor x="415.29518072289153" y="705.0" name="top"/>
  <outline>
    <contour>
      <point x="91.42168674698794" y="0.0" type="line"/>
      <point x="268.40361445783134" y="0.0" type="line"/>
      <point x="268.40361445783134" y="247.72289156626505" type="line"/>
      <point x="497.8433734939759" y="247.72289156626505" type="line" smooth="yes"/>
      <point x="687.8167891566266" y="247.72289156626505"/>
      <point x="789.8855421686746" y="327.8855421686747"/>
      <point x="789.8855421686746" y="476.70481927710847" type="curve" smooth="yes"/>
      <point x="789.8855421686746" y="625.867469879518"/>
      <point x="687.8167891566266" y="705.0"/>
      <point x="497.8433734939759" y="705.0" type="curve" smooth="yes"/>
      <point x="91.42168674698794" y="705.0" type="line"/>
    </contour>
    <contour>
      <point x="268.40361445783134" y="379.33734939759034" type="line"/>
      <point x="268.40361445783134" y="573.3855421686748" type="line"/>
      <point x="474.23493975903614" y="573.3855421686748" type="line" smooth="yes"/>
      <point x="575.7048192771084" y="573.3855421686748"/>
      <point x="619.4096385542169" y="545.0542168674699"/>
      <point x="619.4096385542169" y="477.3614457831326" type="curve" smooth="yes"/>
      <point x="619.4096385542169" y="410.32530120481925"/>
      <point x="572.7349397590361" y="379.33734939759034"/>
      <point x="474.23493975903614" y="379.33734939759034" type="curve" smooth="yes"/>
    </contour>
  </outline>
</glyph>
<glyph name="R" format="2">
  <advance width="862.8132530120482"/>
  <unicode hex="0052"/>
  <anchor x="432.578313253012" y="0.0" name="bottom"/>
  <anchor x="432.23493975903614" y="705.0" name="top"/>
  <outline>
    <contour>
      <point x="91.42168674698794" y="0.0" type="line"/>
      <point x="268.40361445783134" y="0.0" type="line"/>
      <point x="268.40361445783134" y="263.3795180722892" type="line"/>
      <point x="390.50602409638554" y="263.3795180722892" type="line" smooth="yes"/>
      <point x="457.3614457831325" y="263.3795180722892"/>
      <point x="480.8855421686747" y="249.00602409638554"/>
      <point x="505.2168674698795" y="214.18072289156626" type="curve" smooth="yes"/>
      <point x="651.3072289156627" y="0.0" type="line"/>
      <point x="847.1385542168675" y="0.0" type="line"/>
      <point x="703.8072289156627" y="200.63253012048196" type="line" smooth="yes"/>
      <point x="663.8072289156627" y="257.00602409638554"/>
      <point x="612.5542168674699" y="282.6626506024096"/>
      <point x="548.2409638554217" y="282.6626506024096" type="curve" smooth="yes"/>
      <point x="491.9638554216867" y="282.6626506024096" type="line"/>
      <point x="480.5903614457831" y="266.066265060241" type="line"/>
      <point x="678.066265060241" y="266.066265060241"/>
      <point x="789.8855421686746" y="346.9156626506024"/>
      <point x="789.8855421686746" y="489.70481927710847" type="curve" smooth="yes"/>
      <point x="789.8855421686746" y="627.4939759036145"/>
      <point x="685.0361445783133" y="705.0"/>
      <point x="495.2168674698795" y="705.0" type="curve" smooth="yes"/>
      <point x="91.42168674698794" y="705.0" type="line"/>
    </contour>
    <contour>
      <point x="268.40361445783134" y="385.1746987951807" type="line"/>
      <point x="268.40361445783134" y="573.3855421686748" type="line"/>
      <point x="471.8614457831325" y="573.3855421686748" type="line" smooth="yes"/>
      <point x="575.644578313253" y="573.3855421686748"/>
      <point x="619.4096385542169" y="543.7409638554217"/>
      <point x="619.4096385542169" y="481.421686746988" type="curve" smooth="yes"/>
      <point x="619.4096385542169" y="417.4457831325301"/>
      <point x="575.644578313253" y="385.1746987951807"/>
      <point x="471.8614457831325" y="385.1746987951807" type="curve" smooth="yes"/>
    </contour>
  </outline>
</glyph>
<glyph name="S" format="2">
  <advance width="788.9036144578313"/>
  <unicode hex="0053"/>
  <anchor x="406.98192771084337" y="0.0" name="bottom"/>
  <anchor x="406.51807228915663" y="705.0" name="top"/>
  <outline>
    <contour>
      <point x="401.0120481927711" y="-10.626506024096384" type="curve" smooth="yes"/>
      <point x="619.277108433735" y="-10.626506024096384"/>
      <point x="753.3192771084337" y="72.16265060240964"/>
      <point x="753.3192771084337" y="208.5180722891566" type="curve" smooth="yes"/>
      <point x="753.3192771084337" y="320.83132530120486"/>
      <point x="670.0361445783133" y="384.2168674698795"/>
      <point x="510.37951807228916" y="408.1867469879518" type="curve" smooth="yes"/>
      <point x="351.93373493975906" y="432.12650602409633" type="line" smooth="yes"/>
      <point x="280.8072289156627" y="442.9036144578313"/>
      <point x="243.28313253012047" y="459.5783132530121"/>
      <point x="243.28313253012047" y="501.867469879518" type="curve" smooth="yes"/>
      <point x="243.28313253012047" y="549.277108433735"/>
      <point x="298.5120481927711" y="576.4156626506024"/>
      <point x="402.29518072289153" y="576.4156626506024" type="curve" smooth="yes"/>
      <point x="513.2650602409639" y="576.4156626506024"/>
      <point x="592.2349397590361" y="553.0120481927711"/>
      <point x="667.9518072289156" y="502.77108433734946" type="curve"/>
      <point x="723.156626506024" y="627.789156626506" type="line"/>
      <point x="651.1566265060242" y="683.5963855421686"/>
      <point x="538.0240963855422" y="715.6265060240964"/>
      <point x="412.11445783132535" y="715.6265060240964" type="curve" smooth="yes"/>
      <point x="206.19277108433735" y="715.6265060240964"/>
      <point x="69.21084337349397" y="629.433734939759"/>
      <point x="69.21084337349397" y="488.39156626506025" type="curve" smooth="yes"/>
      <point x="69.21084337349397" y="376.48192771084337"/>
      <point x="148.0301204819277" y="309.9759036144578"/>
      <point x="303.31325301204816" y="288.6325301204819" type="curve" smooth="yes"/>
      <point x="472.32530120481925" y="266.0060240963856" type="line" smooth="yes"/>
      <point x="538.8253012048192" y="256.8855421686747"/>
      <point x="578.5903614457832" y="244.9879518072289"/>
      <point x="578.5903614457832" y="200.60843373493975" type="curve" smooth="yes"/>
      <point x="578.5903614457832" y="153.94578313253012"/>
      <point x="521.7048192771084" y="128.58433734939757"/>
      <point x="411.8313253012048" y="128.58433734939757" type="curve" smooth="yes"/>
      <point x="294.14457831325296" y="128.58433734939757"/>
      <point x="200.32530120481928" y="154.24096385542168"/>
      <point x="107.04216867469879" y="207.73493975903614" type="curve"/>
      <point x="51.18072289156627" y="75.49397590361447" type="line"/>
      <point x="135.43373493975903" y="21.71686746987952"/>
      <point x="265.7590361445783" y="-10.626506024096384"/>
    </contour>
  </outline>
</glyph>
<glyph name="T" format="2">
  <advance width="776.8132530120482"/>
  <unicode hex="0054"/>
  <anchor x="388.578313253012" y="0.0" name="bottom"/>
  <anchor x="388.9216867469879" y="358.0" name="center"/>
  <anchor x="388.9216867469879" y="705.0" name="top"/>
  <outline>
    <contour>
      <point x="300.2590361445784" y="0.0" type="line"/>
      <point x="477.2409638554217" y="0.0" type="line"/>
      <point x="477.2409638554217" y="565.4759036144578" type="line"/>
      <point x="772.9036144578314" y="565.4759036144578" type="line"/>
      <point x="772.9036144578314" y="705.0" type="line"/>
      <point x="4.596385542168674" y="705.0" type="line"/>
      <point x="4.596385542168674" y="565.4759036144578" type="line"/>
      <point x="300.2590361445784" y="565.4759036144578" type="line"/>
    </contour>
  </outline>
</glyph>
<glyph name="U" format="2">
  <advance width="925.1746987951807"/>
  <unicode hex="0055"/>
  <anchor x="462.41566265060237" y="0.0" name="bottom"/>
  <anchor x="533.0722891566265" y="0.0" name="ogonek"/>
  <anchor x="462.41566265060237" y="705.0" name="top"/>
  <anchor x="711.9879518072289" y="705.0" name="topright"/>
  <outline>
    <contour>
      <point x="463.7289156626506" y="-10.626506024096384" type="curve" smooth="yes"/>
      <point x="715.277108433735" y="-10.626506024096384"/>
      <point x="839.7530120481927" y="94.53614457831326"/>
      <point x="839.7530120481927" y="297.54819277108436" type="curve" smooth="yes"/>
      <point x="839.7530120481927" y="705.0" type="line"/>
      <point x="664.710843373494" y="705.0" type="line"/>
      <point x="664.710843373494" y="298.9518072289157" type="line" smooth="yes"/>
      <point x="664.710843373494" y="191.4819277108434"/>
      <point x="597.3192771084338" y="132.52409638554215"/>
      <point x="463.7289156626506" y="132.52409638554215" type="curve" smooth="yes"/>
      <point x="330.48192771084337" y="132.52409638554215"/>
      <point x="262.0602409638554" y="191.4819277108434"/>
      <point x="262.0602409638554" y="298.9518072289157" type="curve" smooth="yes"/>
      <point x="262.0602409638554" y="705.0" type="line"/>
      <point x="85.07831325301204" y="705.0" type="line"/>
      <point x="85.07831325301204" y="297.54819277108436" type="line" smooth="yes"/>
      <point x="85.07831325301204" y="95.84939759036145"/>
      <point x="211.52409638554218" y="-10.626506024096384"/>
    </contour>
  </outline>
</glyph>
<glyph name="V" format="2">
  <advance width="892.9156626506025"/>
  <unicode hex="0056"/>
  <anchor x="446.45783132530124" y="0.0" name="bottom"/>
  <anchor x="446.45783132530124" y="705.0" name="top"/>
  <outline>
    <contour>
      <point x="370.5542168674699" y="0.0" type="line"/>
      <point x="522.3614457831325" y="0.0" type="line"/>
      <point x="911.5240963855422" y="705.0" type="line"/>
      <point x="721.0060240963855" y="705.0" type="line"/>
      <point x="424.32530120481925" y="144.22289156626508" type="line"/>
      <point x="476.5301204819277" y="144.22289156626508" type="line"/>
      <point x="179.16265060240963" y="705.0" type="line"/>
      <point x="-18.60843373493976" y="705.0" type="line"/>
    </contour>
  </outline>
</glyph>
<glyph name="W" format="2">
  <advance width="1389.1144578313254"/>
  <unicode hex="0057"/>
  <anchor x="695.4156626506024" y="0.0" name="bottom"/>
  <anchor x="695.3855421686746" y="705.0" name="top"/>
  <outline>
    <contour>
      <point x="329.9578313253012" y="0.0" type="line"/>
      <point x="477.4216867469879" y="0.0" type="line"/>
      <point x="707.0120481927711" y="480.5783132530121" type="line"/>
      <point x="681.7590361445783" y="480.5783132530121" type="line"/>
      <point x="911.6927710843372" y="0.0" type="line"/>
      <point x="1059.5" y="0.0" type="line"/>
      <point x="1367.7831325301204" y="705.0" type="line"/>
      <point x="1192.6807228915661" y="705.0" type="line"/>
      <point x="961.4036144578313" y="178.96385542168673" type="line"/>
      <point x="1011.0722891566264" y="178.96385542168673" type="line"/>
      <point x="767.289156626506" y="705.0" type="line"/>
      <point x="631.6746987951807" y="705.0" type="line"/>
      <point x="387.54819277108436" y="178.96385542168673" type="line"/>
      <point x="438.933734939759" y="178.96385542168673" type="line"/>
      <point x="207.65662650602408" y="705.0" type="line"/>
      <point x="22.36144578313253" y="705.0" type="line"/>
    </contour>
  </outline>
</glyph>
<glyph name="X" format="2">
  <advance width="841.0361445783132"/>
  <unicode hex="0058"/>
  <anchor x="421.51807228915663" y="0.0" name="bottom"/>
  <anchor x="421.51807228915663" y="705.0" name="top"/>
  <outline>
    <contour>
      <point x="-15.993975903614453" y="0.0" type="line"/>
      <point x="196.0301204819277" y="0.0" type="line"/>
      <point x="447.5903614457831" y="272.36746987951807" type="line"/>
      <point x="390.13253012048193" y="272.36746987951807" type="line"/>
      <point x="640.7530120481928" y="0.0" type="line"/>
      <point x="859.9698795180723" y="0.0" type="line"/>
      <point x="493.10843373493975" y="394.60843373493975" type="line"/>
      <point x="493.10843373493975" y="318.5722891566265" type="line"/>
      <point x="847.2228915662652" y="705.0" type="line"/>
      <point x="635.5421686746987" y="705.0" type="line"/>
      <point x="395.1927710843374" y="439.5602409638554" type="line"/>
      <point x="449.53012048192767" y="439.5602409638554" type="line"/>
      <point x="211.7168674698795" y="705.0" type="line"/>
      <point x="-7.499999999999994" y="705.0" type="line"/>
      <point x="348.6144578313253" y="318.5722891566265" type="line"/>
      <point x="348.6144578313253" y="394.60843373493975" type="line"/>
    </contour>
  </outline>
</glyph>
<glyph name="Y" format="2">
  <advance width="772.6927710843373"/>
  <unicode hex="0059"/>
  <anchor x="385.51807228915663" y="0.0" name="bottom"/>
  <anchor x="387.17469879518075" y="705.0" name="top"/>
  <anchor x="18.656626506024097" y="705.0" name="topleft"/>
  <outline>
    <contour>
      <point x="297.85542168674704" y="0.0" type="line"/>
      <point x="474.83734939759034" y="0.0" type="line"/>
      <point x="474.83734939759034" y="357.6566265060241" type="line"/>
      <point x="441.855421686747" y="265.27710843373495" type="line"/>
      <point x="810.1807228915663" y="705.0" type="line"/>
      <point x="613.4096385542168" y="705.0" type="line"/>
      <point x="371.6385542168675" y="416.5602409638554" type="line"/>
      <point x="407.6807228915663" y="416.5602409638554" type="line"/>
      <point x="167.6265060240964" y="705.0" type="line"/>
      <point x="-37.48795180722891" y="705.0" type="line"/>
      <point x="331.8674698795181" y="265.27710843373495" type="line"/>
      <point x="297.85542168674704" y="357.6566265060241" type="line"/>
    </contour>
  </outline>
</glyph>
<glyph name="Z" format="2">
  <advance width="756.2469879518073"/>
  <unicode hex="005A"/>
  <anchor x="391.69879518072287" y="0.0" name="bottom"/>
  <anchor x="391.35542168674704" y="705.0" name="top"/>
  <outline>
    <contour>
      <point x="56.03012048192771" y="0.0" type="line"/>
      <point x="731.5903614457832" y="0.0" type="line"/>
      <point x="731.5903614457832" y="135.55421686746988" type="line"/>
      <point x="235.63855421686745" y="135.55421686746988" type="line"/>
      <point x="235.63855421686745" y="91.5722891566265" type="line"/>
      <point x="713.6204819277108" y="580.0722891566265" type="line"/>
      <point x="713.6204819277108" y="705.0" type="line"/>
      <point x="56.03012048192771" y="705.0" type="line"/>
      <point x="56.03012048192771" y="569.4457831325302" type="line"/>
      <point x="534.355421686747" y="569.4457831325302" type="line"/>
      <point x="534.355421686747" y="614.1144578313254" type="line"/>
      <point x="56.03012048192771" y="124.92771084337349" type="line"/>
    </contour>
  </outline>
</glyph>
<glyph name="bracketleft" format="2">
  <advance width="447.6566265060241"/>
  <unicode hex="005B"/>
  <outline>
    <contour>
      <point x="129.43373493975903" y="-180.0" type="line"/>
      <point x="433.5240963855422" y="-180.0" type="line"/>
      <point x="433.5240963855422" y="-57.608433734939766" type="line"/>
      <point x="296.2530120481928" y="-57.608433734939766" type="line"/>
      <point x="296.2530120481928" y="582.6084337349397" type="line"/>
      <point x="433.5240963855422" y="582.6084337349397" type="line"/>
      <point x="433.5240963855422" y="705.0" type="line"/>
      <point x="129.43373493975903" y="705.0" type="line"/>
    </contour>
  </outline>
</glyph>
<glyph name="bracketright" format="2">
  <advance width="447.6566265060241"/>
  <unicode hex="005D"/>
  <outline>
    <contour>
      <point x="14.132530120481928" y="-180.0" type="line"/>
      <point x="318.56626506024094" y="-180.0" type="line"/>
      <point x="318.56626506024094" y="705.0" type="line"/>
      <point x="14.132530120481928" y="705.0" type="line"/>
      <point x="14.132530120481928" y="582.6084337349397" type="line"/>
      <point x="151.74698795180723" y="582.6084337349397" type="line"/>
      <point x="151.74698795180723" y="-57.608433734939766" type="line"/>
      <point x="14.132530120481928" y="-57.608433734939766" type="line"/>
    </contour>
  </outline>
</glyph>
<glyph name="asciicircum" format="2">
  <advance width="748.0"/>
  <unicode hex="005E"/>
  <outline>
    <contour>
      <point x="63.22891566265061" y="130.64457831325302" type="line"/>
      <point x="188.36746987951807" y="130.64457831325302" type="line"/>
      <point x="412.60843373493975" y="580.55421686747" type="line"/>
      <point x="336.078313253012" y="580.55421686747" type="line"/>
      <point x="559.632530120482" y="130.64457831325302" type="line"/>
      <point x="684.7710843373493" y="130.64457831325302" type="line"/>
      <point x="436.0240963855422" y="627.656626506024" type="line"/>
      <point x="311.9759036144578" y="627.656626506024" type="line"/>
    </contour>
  </outline>
</glyph>
<glyph name="underscore" format="2">
  <advance width="620.9397590361446"/>
  <unicode hex="005F"/>
  <outline>
    <contour>
      <point x="22.96987951807229" y="-95.09638554216866" type="line"/>
      <point x="597.9698795180723" y="-95.09638554216866" type="line"/>
      <point x="597.9698795180723" y="0.0" type="line"/>
      <point x="22.96987951807229" y="0.0" type="line"/>
    </contour>
  </outline>
</glyph>
<glyph name="a" format="2">
  <advance width="684.9036144578313"/>
  <unicode hex="0061"/>
  <anchor x="343.0120481927711" y="0.0" name="bottom"/>
  <anchor x="577.9638554216868" y="0.0" name="ogonek"/>
  <anchor x="348.32530120481925" y="484.0" name="top"/>
  <outline>
    <contour>
      <point x="276.37349397590356" y="-10.626506024096384" type="curve" smooth="yes"/>
      <point x="376.2409638554217" y="-10.626506024096384"/>
      <point x="442.0481927710843" y="31.524096385542173"/>
      <point x="465.19879518072287" y="105.2409638554217" type="curve"/>
      <point x="454.4819277108434" y="104.8975903614458" type="line"/>
      <point x="454.4819277108434" y="0.0" type="line"/>
      <point x="610.4518072289158" y="0.0" type="line"/>
      <point x="610.4518072289158" y="280.6024096385542" type="line" smooth="yes"/>
      <point x="610.4518072289158" y="432.3734939759036"/>
      <point x="521.722891566265" y="501.1927710843374"/>
      <point x="335.1927710843374" y="501.1927710843374" type="curve" smooth="yes"/>
      <point x="247.28313253012047" y="501.1927710843374"/>
      <point x="139.95783132530119" y="477.53614457831327"/>
      <point x="74.45180722891565" y="440.50602409638554" type="curve"/>
      <point x="118.77710843373494" y="327.9638554216868" type="line"/>
      <point x="181.3433734939759" y="361.0542168674699"/>
      <point x="256.2530120481928" y="378.7710843373494"/>
      <point x="334.5361445783132" y="378.7710843373494" type="curve" smooth="yes"/>
      <point x="415.58433734939763" y="378.7710843373494"/>
      <point x="452.1686746987952" y="356.1566265060241"/>
      <point x="452.1686746987952" y="305.8975903614458" type="curve" smooth="yes"/>
      <point x="452.1686746987952" y="202.65662650602408" type="line" smooth="yes"/>
      <point x="452.1686746987952" y="140.4277108433735"/>
      <point x="386.8072289156626" y="99.97590361445783"/>
      <point x="304.98192771084337" y="99.97590361445783" type="curve" smooth="yes"/>
      <point x="242.53012048192772" y="99.97590361445783"/>
      <point x="210.76506024096383" y="122.62048192771084"/>
      <point x="210.76506024096383" y="155.78915662650604" type="curve" smooth="yes"/>
      <point x="210.76506024096383" y="188.89759036144576"/>
      <point x="242.25903614457832" y="205.36144578313252"/>
      <point x="372.83734939759034" y="205.36144578313252" type="curve" smooth="yes"/>
      <point x="471.421686746988" y="205.36144578313252" type="line"/>
      <point x="471.421686746988" y="291.2228915662651" type="line"/>
      <point x="372.12048192771084" y="291.2228915662651" type="line" smooth="yes"/>
      <point x="127.33132530120483" y="291.2228915662651"/>
      <point x="49.45180722891567" y="244.47590361445782"/>
      <point x="49.45180722891567" y="151.50602409638554" type="curve" smooth="yes"/>
      <point x="49.45180722891567" y="58.28313253012048"/>
      <point x="141.9879518072289" y="-10.626506024096384"/>
    </contour>
  </outline>
</glyph>
<glyph name="b" format="2">
  <advance width="752.6204819277109"/>
  <unicode hex="0062"/>
  <anchor x="382.0903614457831" y="0.0" name="bottom"/>
  <anchor x="392.0421686746988" y="705.0" name="top"/>
  <outline>
    <contour>
      <point x="439.34939759036143" y="-10.626506024096384" type="curve" smooth="yes"/>
      <point x="599.9759036144578" y="-10.626506024096384"/>
      <point x="707.9759036144578" y="90.3433734939759"/>
      <point x="707.9759036144578" y="245.6265060240964" type="curve" smooth="yes"/>
      <point x="707.9759036144578" y="400.9096385542169"/>
      <point x="599.9759036144578" y="501.1927710843374"/>
      <point x="439.34939759036143" y="501.1927710843374" type="curve" smooth="yes"/>
      <point x="346.67469879518075" y="501.1927710843374"/>
      <point x="262.92771084337346" y="461.6385542168675"/>
      <point x="228.3313253012048" y="398.0240963855421" type="curve"/>
      <point x="243.95783132530119" y="398.0240963855421" type="line"/>
      <point x="243.95783132530119" y="705.0" type="line"/>
      <point x="77.13855421686746" y="705.0" type="line"/>
      <point x="77.13855421686746" y="0.0" type="line"/>
      <point x="241.644578313253" y="0.0" type="line"/>
      <point x="241.644578313253" y="93.22891566265059" type="line"/>
      <point x="228.3313253012048" y="93.22891566265059" type="line"/>
      <point x="262.92771084337346" y="28.927710843373497"/>
      <point x="346.3313253012048" y="-10.626506024096384"/>
    </contour>
    <contour>
      <point x="390.7289156626506" y="112.45180722891565" type="curve" smooth="yes"/>
      <point x="296.4096385542169" y="112.45180722891565"/>
      <point x="241.644578313253" y="162.933734939759"/>
      <point x="241.644578313253" y="245.6265060240964" type="curve" smooth="yes"/>
      <point x="241.644578313253" y="328.31927710843377"/>
      <point x="296.4096385542169" y="378.1144578313253"/>
      <point x="390.7289156626506" y="378.1144578313253" type="curve" smooth="yes"/>
      <point x="484.36144578313247" y="378.1144578313253"/>
      <point x="539.8132530120481" y="328.31927710843377"/>
      <point x="539.8132530120481" y="245.6265060240964" type="curve" smooth="yes"/>
      <point x="539.8132530120481" y="162.933734939759"/>
      <point x="484.36144578313247" y="112.45180722891565"/>
    </contour>
  </outline>
</glyph>
<glyph name="c" format="2">
  <advance width="589.5481927710844"/>
  <unicode hex="0063"/>
  <anchor x="354.41566265060237" y="0.0" name="bottom"/>
  <anchor x="354.41566265060237" y="484.0" name="top"/>
  <outline>
    <contour>
      <point x="359.2349397590362" y="-10.626506024096384" type="curve" smooth="yes"/>
      <point x="445.80120481927713" y="-10.626506024096384"/>
      <point x="527.6204819277108" y="11.433734939759038"/>
      <point x="578.6204819277109" y="47.89759036144578" type="curve"/>
      <point x="527.698795180723" y="162.37951807228916" type="line"/>
      <point x="481.63855421686753" y="130.85542168674698"/>
      <point x="427.54819277108436" y="114.76506024096385"/>
      <point x="372.0240963855421" y="114.76506024096385" type="curve" smooth="yes"/>
      <point x="271.19879518072287" y="114.76506024096385"/>
      <point x="216.09036144578312" y="164.90361445783134"/>
      <point x="216.09036144578312" y="244.6265060240964" type="curve" smooth="yes"/>
      <point x="216.09036144578312" y="325.3493975903615"/>
      <point x="271.19879518072287" y="375.80120481927713"/>
      <point x="372.68072289156623" y="375.80120481927713" type="curve" smooth="yes"/>
      <point x="427.54819277108436" y="375.80120481927713"/>
      <point x="483.5783132530121" y="359.39759036144585"/>
      <point x="527.698795180723" y="329.21686746987956" type="curve"/>
      <point x="578.6204819277109" y="442.6686746987952" type="line"/>
      <point x="529.2771084337348" y="479.81927710843377"/>
      <point x="446.80120481927713" y="501.1927710843374"/>
      <point x="359.2349397590362" y="501.1927710843374" type="curve" smooth="yes"/>
      <point x="167.06024096385542" y="501.1927710843374"/>
      <point x="44.644578313253014" y="400.2228915662651"/>
      <point x="44.644578313253014" y="244.96987951807228" type="curve" smooth="yes"/>
      <point x="44.644578313253014" y="89.6867469879518"/>
      <point x="167.06024096385542" y="-10.626506024096384"/>
    </contour>
  </outline>
</glyph>
<glyph name="d" format="2">
  <advance width="752.6204819277109"/>
  <unicode hex="0064"/>
  <anchor x="377.9518072289157" y="0.0" name="bottom"/>
  <anchor x="369.4457831325301" y="246.3132530120482" name="center"/>
  <anchor x="528.0722891566265" y="591.5060240963855" name="stroke"/>
  <anchor x="376.60843373493975" y="484.0" name="top"/>
  <anchor x="723.722891566265" y="705.0" name="topright"/>
  <outline>
    <contour>
      <point x="314.3012048192771" y="-10.626506024096384" type="curve" smooth="yes"/>
      <point x="406.28915662650604" y="-10.626506024096384"/>
      <point x="490.37951807228916" y="28.24096385542169"/>
      <point x="523.9457831325301" y="92.19879518072288" type="curve"/>
      <point x="510.9759036144578" y="92.19879518072288" type="line"/>
      <point x="510.9759036144578" y="0.0" type="line"/>
      <point x="675.4819277108433" y="0.0" type="line"/>
      <point x="675.4819277108433" y="705.0" type="line"/>
      <point x="508.6626506024097" y="705.0" type="line"/>
      <point x="508.6626506024097" y="399.05421686746985" type="line"/>
      <point x="523.9457831325301" y="399.05421686746985" type="line"/>
      <point x="490.37951807228916" y="462.3253012048193"/>
      <point x="406.63253012048193" y="501.1927710843374"/>
      <point x="314.3012048192771" y="501.1927710843374" type="curve" smooth="yes"/>
      <point x="151.95783132530124" y="501.1927710843374"/>
      <point x="44.644578313253014" y="400.9096385542169"/>
      <point x="44.644578313253014" y="245.6265060240964" type="curve" smooth="yes"/>
      <point x="44.644578313253014" y="90.3433734939759"/>
      <point x="151.95783132530124" y="-10.626506024096384"/>
    </contour>
    <contour>
      <point x="361.89156626506025" y="112.45180722891565" type="curve" smooth="yes"/>
      <point x="267.57228915662654" y="112.45180722891565"/>
      <point x="212.80722891566265" y="162.933734939759"/>
      <point x="212.80722891566265" y="245.6265060240964" type="curve" smooth="yes"/>
      <point x="212.80722891566265" y="328.31927710843377"/>
      <point x="267.57228915662654" y="378.1144578313253"/>
      <point x="361.89156626506025" y="378.1144578313253" type="curve" smooth="yes"/>
      <point x="455.5240963855421" y="378.1144578313253"/>
      <point x="510.9759036144578" y="328.31927710843377"/>
      <point x="510.9759036144578" y="245.6265060240964" type="curve" smooth="yes"/>
      <point x="510.9759036144578" y="162.933734939759"/>
      <point x="455.5240963855421" y="112.45180722891565"/>
    </contour>
  </outline>
</glyph>
<glyph name="e" format="2">
  <advance width="671.2650602409639"/>
  <unicode hex="0065"/>
  <anchor x="348.9096385542169" y="0.0" name="bottom"/>
  <anchor x="498.37951807228916" y="0.0" name="ogonek"/>
  <anchor x="363.35542168674704" y="484.0" name="top"/>
  <outline>
    <contour>
      <point x="382.4879518072289" y="-10.626506024096384" type="curve" smooth="yes"/>
      <point x="484.0843373493976" y="-10.626506024096384"/>
      <point x="577.6807228915662" y="13.120481927710845"/>
      <point x="628.5602409638554" y="48.6144578313253" type="curve"/>
      <point x="585.8915662650602" y="156.8132530120482" type="line"/>
      <point x="540.4277108433735" y="128.19879518072287"/>
      <point x="470.51807228915663" y="111.79518072289156"/>
      <point x="391.4277108433735" y="111.79518072289156" type="curve" smooth="yes"/>
      <point x="251.53012048192775" y="111.79518072289156"/>
      <point x="203.9277108433735" y="162.84337349397592"/>
      <point x="203.9277108433735" y="251.50602409638554" type="curve" smooth="yes"/>
      <point x="203.9277108433735" y="259.4759036144578" type="line" smooth="yes"/>
      <point x="203.9277108433735" y="343.73493975903614"/>
      <point x="256.8132530120482" y="392.5903614457832"/>
      <point x="360.0722891566265" y="392.5903614457832" type="curve" smooth="yes"/>
      <point x="449.3313253012048" y="392.5903614457832"/>
      <point x="495.4397590361446" y="353.4819277108434"/>
      <point x="497.4096385542169" y="278.7289156626506" type="curve"/>
      <point x="520.3795180722891" y="297.07228915662654" type="line"/>
      <point x="180.644578313253" y="297.07228915662654" type="line"/>
      <point x="180.644578313253" y="209.8975903614458" type="line"/>
      <point x="638.5602409638554" y="209.8975903614458" type="line"/>
      <point x="638.5602409638554" y="248.83734939759037" type="line" smooth="yes"/>
      <point x="638.5602409638554" y="406.0301204819277"/>
      <point x="530.144578313253" y="501.1927710843374"/>
      <point x="354.16265060240966" y="501.1927710843374" type="curve" smooth="yes"/>
      <point x="172.09036144578315" y="501.1927710843374"/>
      <point x="44.644578313253014" y="396.9096385542169"/>
      <point x="44.644578313253014" y="242.5963855421687" type="curve" smooth="yes"/>
      <point x="44.644578313253014" y="86.3132530120482"/>
      <point x="174.3734939759036" y="-10.626506024096384"/>
    </contour>
  </outline>
</glyph>
<glyph name="f" format="2">
  <advance width="458.95783132530124"/>
  <unicode hex="0066"/>
  <anchor x="203.21686746987953" y="0.0" name="bottom"/>
  <anchor x="203.21686746987953" y="705.0" name="top"/>
  <outline>
    <contour>
      <point x="119.46385542168674" y="0.0" type="line"/>
      <point x="286.28313253012044" y="0.0" type="line"/>
      <point x="286.28313253012044" y="370.80120481927713" type="line"/>
      <point x="450.5843373493976" y="370.80120481927713" type="line"/>
      <point x="450.5843373493976" y="490.566265060241" type="line"/>
      <point x="250.01807228915663" y="490.566265060241" type="line"/>
      <point x="286.28313253012044" y="454.644578313253" type="line"/>
      <point x="286.28313253012044" y="506.0903614457831" type="line" smooth="yes"/>
      <point x="286.28313253012044" y="559.7831325301204"/>
      <point x="318.9578313253012" y="582.2048192771084"/>
      <point x="405.51204819277103" y="586.8614457831326" type="curve" smooth="yes"/>
      <point x="479.8975903614458" y="591.1746987951808" type="line"/>
      <point x="469.3012048192771" y="710.6265060240964" type="line"/>
      <point x="389.6204819277108" y="705.343373493976" type="line" smooth="yes"/>
      <point x="206.22289156626508" y="693.0602409638554"/>
      <point x="119.46385542168674" y="619.5542168674699"/>
      <point x="119.46385542168674" y="475.8855421686747" type="curve" smooth="yes"/>
      <point x="119.46385542168674" y="454.3012048192771" type="line"/>
      <point x="156.07228915662648" y="490.566265060241" type="line"/>
      <point x="2.060240963855422" y="490.566265060241" type="line"/>
      <point x="2.060240963855422" y="370.80120481927713" type="line"/>
      <point x="119.46385542168674" y="370.80120481927713" type="line"/>
    </contour>
  </outline>
</glyph>
<glyph name="g" format="2">
  <advance width="755.9036144578314"/>
  <unicode hex="0067"/>
  <anchor x="377.6385542168674" y="484.0" name="top"/>
  <outline>
    <contour>
      <point x="353.7168674698795" y="-190.6265060240964" type="curve" smooth="yes"/>
      <point x="571.8132530120482" y="-190.6265060240964"/>
      <point x="678.7650602409639" y="-107.80722891566265"/>
      <point x="678.7650602409639" y="61.42771084337349" type="curve" smooth="yes"/>
      <point x="678.7650602409639" y="490.566265060241" type="line"/>
      <point x="514.2590361445782" y="490.566265060241" type="line"/>
      <point x="514.2590361445782" y="399.3674698795181" type="line"/>
      <point x="525.9156626506025" y="399.3674698795181" type="line"/>
      <point x="499.9156626506024" y="462.3253012048193"/>
      <point x="419.76506024096386" y="501.1927710843374"/>
      <point x="316.5843373493976" y="501.1927710843374" type="curve" smooth="yes"/>
      <point x="150.64457831325305" y="501.1927710843374"/>
      <point x="44.644578313253014" y="406.87951807228916"/>
      <point x="44.644578313253014" y="256.93975903614455" type="curve" smooth="yes"/>
      <point x="44.644578313253014" y="107.0"/>
      <point x="151.30120481927713" y="12.0"/>
      <point x="318.55421686746985" y="12.0" type="curve" smooth="yes"/>
      <point x="420.7349397590361" y="12.0"/>
      <point x="499.9156626506024" y="50.867469879518076"/>
      <point x="525.9156626506024" y="114.1686746987952" type="curve"/>
      <point x="515.5421686746988" y="114.1686746987952" type="line"/>
      <point x="515.5421686746988" y="42.60843373493976" type="line" smooth="yes"/>
      <point x="515.5421686746988" y="-31.87349397590362"/>
      <point x="461.6746987951807" y="-68.20481927710844"/>
      <point x="351.43373493975906" y="-68.20481927710844" type="curve" smooth="yes"/>
      <point x="261.68674698795184" y="-68.20481927710844"/>
      <point x="172.42168674698794" y="-49.92168674698796"/>
      <point x="115.80722891566265" y="-13.963855421686748" type="curve"/>
      <point x="71.79518072289156" y="-125.81927710843374" type="line"/>
      <point x="130.9156626506024" y="-168.3132530120482"/>
      <point x="235.33132530120483" y="-190.6265060240964"/>
    </contour>
    <contour>
      <point x="363.8614457831325" y="135.07831325301203" type="curve" smooth="yes"/>
      <point x="269.8855421686747" y="135.07831325301203"/>
      <point x="212.80722891566265" y="181.56024096385542"/>
      <point x="212.80722891566265" y="256.93975903614455" type="curve" smooth="yes"/>
      <point x="212.80722891566265" y="332.3192771084337"/>
      <point x="269.8855421686747" y="378.1144578313253"/>
      <point x="363.8614457831325" y="378.1144578313253" type="curve" smooth="yes"/>
      <point x="457.8373493975904" y="378.1144578313253"/>
      <point x="514.9156626506025" y="332.3192771084337"/>
      <point x="514.9156626506025" y="256.93975903614455" type="curve" smooth="yes"/>
      <point x="514.9156626506025" y="181.56024096385542"/>
      <point x="457.8373493975904" y="135.07831325301203"/>
    </contour>
  </outline>
</glyph>
<glyph name="h" format="2">
  <advance width="733.933734939759"/>
  <unicode hex="0068"/>
  <anchor x="367.921686746988" y="0.0" name="bottom"/>
  <anchor x="367.921686746988" y="249.28313253012047" name="center"/>
  <anchor x="389.4277108433735" y="351.3734939759036" name="dot"/>
  <anchor x="222.8614457831325" y="591.5060240963855" name="stroke"/>
  <anchor x="369.578313253012" y="705.0" name="top"/>
  <anchor x="278.8554216867469" y="705.0" name="topright"/>
  <outline>
    <contour>
      <point x="77.13855421686746" y="0.0" type="line"/>
      <point x="243.95783132530119" y="0.0" type="line"/>
      <point x="243.95783132530119" y="248.1204819277108" type="line" smooth="yes"/>
      <point x="243.95783132530119" y="316.8433734939759"/>
      <point x="299.3192771084337" y="373.51807228915663"/>
      <point x="386.69879518072287" y="373.51807228915663" type="curve" smooth="yes"/>
      <point x="453.3313253012048" y="373.51807228915663"/>
      <point x="492.6626506024097" y="346.9036144578314"/>
      <point x="492.6626506024097" y="262.2710843373494" type="curve" smooth="yes"/>
      <point x="492.6626506024097" y="0.0" type="line"/>
      <point x="659.4819277108434" y="0.0" type="line"/>
      <point x="659.4819277108434" y="268.5542168674699" type="line" smooth="yes"/>
      <point x="659.4819277108434" y="434.77710843373495"/>
      <point x="583.6445783132531" y="501.1927710843374"/>
      <point x="444.45180722891564" y="501.1927710843374" type="curve" smooth="yes"/>
      <point x="347.18072289156623" y="501.1927710843374"/>
      <point x="277.49397590361446" y="462.6686746987952"/>
      <point x="233.95783132530119" y="393.20481927710847" type="curve"/>
      <point x="244.6144578313253" y="393.20481927710847" type="line"/>
      <point x="243.95783132530119" y="705.0" type="line"/>
      <point x="77.13855421686746" y="705.0" type="line"/>
    </contour>
  </outline>
</glyph>
<glyph name="i" format="2">
  <advance width="321.09638554216866"/>
  <unicode hex="0069"/>
  <anchor x="161.51807228915663" y="0.0" name="bottom"/>
  <anchor x="207.84337349397592" y="0.0" name="ogonek"/>
  <outline>
    <contour>
      <point x="68.01807228915662" y="581.5722891566265" type="line"/>
      <point x="252.04819277108433" y="581.5722891566265" type="line"/>
      <point x="252.04819277108433" y="732.5903614457832" type="line"/>
      <point x="68.01807228915662" y="732.5903614457832" type="line"/>
    </contour>
    <contour>
      <point x="77.13855421686746" y="0.0" type="line"/>
      <point x="243.95783132530119" y="0.0" type="line"/>
      <point x="243.95783132530119" y="490.566265060241" type="line"/>
      <point x="77.13855421686746" y="490.566265060241" type="line"/>
    </contour>
  </outline>
</glyph>
<glyph name="k" format="2">
  <advance width="674.7469879518071"/>
  <unicode hex="006B"/>
  <anchor x="337.21686746987945" y="0.0" name="bottom"/>
  <anchor x="369.578313253012" y="705.0" name="top"/>
  <outline>
    <contour>
      <point x="76.10843373493975" y="0.0" type="line"/>
      <point x="242.9277108433735" y="0.0" type="line"/>
      <point x="242.9277108433735" y="208.10843373493978" type="line"/>
      <point x="244.9277108433735" y="208.10843373493978" type="line"/>
      <point x="485.8072289156626" y="0.0" type="line"/>
      <point x="701.6987951807229" y="0.0" type="line"/>
      <point x="365.82530120481925" y="281.13253012048193" type="line"/>
      <point x="365.82530120481925" y="229.06024096385542" type="line"/>
      <point x="685.4277108433735" y="490.566265060241" type="line"/>
      <point x="476.16265060240966" y="490.566265060241" type="line"/>
      <point x="244.9277108433735" y="291.20481927710847" type="line"/>
      <point x="242.9277108433735" y="291.20481927710847" type="line"/>
      <point x="242.9277108433735" y="705.0" type="line"/>
      <point x="76.10843373493975" y="705.0" type="line"/>
    </contour>
  </outline>
</glyph>
<glyph name="l" format="2">
  <advance width="400.6024096385542"/>
  <unicode hex="006C"/>
  <anchor x="239.3855421686747" y="0.0" name="bottom"/>
  <anchor x="170.2048192771084" y="357.0" name="center"/>
  <anchor x="404.0421686746988" y="357.0" name="dot"/>
  <anchor x="159.17469879518072" y="705.0" name="top"/>
  <anchor x="291.48192771084337" y="705.0" name="topright"/>
  <outline>
    <contour>
      <point x="294.2349397590361" y="-10.626506024096384" type="curve" smooth="yes"/>
      <point x="327.33734939759034" y="-10.626506024096384"/>
      <point x="359.78313253012044" y="-6.656626506024096"/>
      <point x="386.72289156626505" y="-0.37349397590361466" type="curve"/>
      <point x="389.4096385542169" y="127.67469879518072" type="line"/>
      <point x="378.60240963855415" y="124.644578313253"/>
      <point x="355.9759036144578" y="122.98795180722891"/>
      <point x="338.9759036144578" y="122.98795180722891" type="curve" smooth="yes"/>
      <point x="275.7048192771084" y="122.98795180722891"/>
      <point x="242.9277108433735" y="152.1987951807229"/>
      <point x="242.9277108433735" y="204.65060240963854" type="curve" smooth="yes"/>
      <point x="242.9277108433735" y="705.0" type="line"/>
      <point x="76.10843373493975" y="705.0" type="line"/>
      <point x="76.10843373493975" y="194.36746987951807" type="line" smooth="yes"/>
      <point x="76.10843373493975" y="59.87951807228915"/>
      <point x="145.9578313253012" y="-10.626506024096384"/>
    </contour>
  </outline>
</glyph>
<glyph name="m" format="2">
  <advance width="1099.1566265060242"/>
  <unicode hex="006D"/>
  <anchor x="550.9216867469879" y="0.0" name="bottom"/>
  <anchor x="550.9216867469879" y="484.0" name="top"/>
  <outline>
    <contour>
      <point x="79.13855421686746" y="0.0" type="line"/>
      <point x="245.95783132530119" y="0.0" type="line"/>
      <point x="245.95783132530119" y="248.1204819277108" type="line" smooth="yes"/>
      <point x="245.95783132530119" y="316.8433734939759"/>
      <point x="296.289156626506" y="373.51807228915663"/>
      <point x="374.95180722891564" y="373.51807228915663" type="curve" smooth="yes"/>
      <point x="432.867469879518" y="373.51807228915663"/>
      <point x="467.1686746987952" y="346.9036144578314"/>
      <point x="467.1686746987952" y="261.92771084337346" type="curve" smooth="yes"/>
      <point x="467.1686746987952" y="0.0" type="line"/>
      <point x="633.9879518072289" y="0.0" type="line"/>
      <point x="633.9879518072289" y="248.1204819277108" type="line" smooth="yes"/>
      <point x="633.9879518072289" y="316.8433734939759"/>
      <point x="685.0060240963855" y="373.51807228915663"/>
      <point x="762.9819277108434" y="373.51807228915663" type="curve" smooth="yes"/>
      <point x="821.5843373493975" y="373.51807228915663"/>
      <point x="855.8855421686746" y="346.9036144578314"/>
      <point x="855.8855421686746" y="261.92771084337346" type="curve" smooth="yes"/>
      <point x="855.8855421686746" y="0.0" type="line"/>
      <point x="1022.7048192771084" y="0.0" type="line"/>
      <point x="1022.7048192771084" y="268.5542168674699" type="line" smooth="yes"/>
      <point x="1022.7048192771084" y="434.77710843373495"/>
      <point x="949.9763012048193" y="501.1927710843374"/>
      <point x="815.1686746987953" y="501.1927710843374" type="curve" smooth="yes"/>
      <point x="721.0440843373493" y="501.1927710843374"/>
      <point x="648.988108433735" y="462.59153012048193"/>
      <point x="605.4819277108434" y="392.8614457831325" type="curve"/>
      <point x="615.4819277108434" y="392.8614457831325" type="line"/>
      <point x="586.8435180722892" y="469.93804216867466"/>
      <point x="524.4478674698795" y="501.1927710843374"/>
      <point x="432.70481927710847" y="501.1927710843374" type="curve" smooth="yes"/>
      <point x="342.15060240963857" y="501.1927710843374"/>
      <point x="274.55421686746985" y="461.6686746987952"/>
      <point x="231.67469879518072" y="393.20481927710847" type="curve"/>
      <point x="242.3313253012048" y="393.20481927710847" type="line"/>
      <point x="242.3313253012048" y="490.566265060241" type="line"/>
      <point x="79.13855421686746" y="490.566265060241" type="line"/>
    </contour>
  </outline>
</glyph>
<glyph name="n" format="2">
  <advance width="733.933734939759"/>
  <unicode hex="006E"/>
  <anchor x="366.921686746988" y="0.0" name="bottom"/>
  <anchor x="366.921686746988" y="484.0" name="top"/>
  <outline>
    <contour>
      <point x="77.13855421686746" y="0.0" type="line"/>
      <point x="243.95783132530119" y="0.0" type="line"/>
      <point x="243.95783132530119" y="248.1204819277108" type="line" smooth="yes"/>
      <point x="243.95783132530119" y="316.8433734939759"/>
      <point x="299.3192771084337" y="373.51807228915663"/>
      <point x="386.69879518072287" y="373.51807228915663" type="curve" smooth="yes"/>
      <point x="453.3313253012048" y="373.51807228915663"/>
      <point x="492.6626506024097" y="346.9036144578314"/>
      <point x="492.6626506024097" y="262.2710843373494" type="curve" smooth="yes"/>
      <point x="492.6626506024097" y="0.0" type="line"/>
      <point x="659.4819277108434" y="0.0" type="line"/>
      <point x="659.4819277108434" y="268.5542168674699" type="line" smooth="yes"/>
      <point x="659.4819277108434" y="434.77710843373495"/>
      <point x="583.6445783132531" y="501.1927710843374"/>
      <point x="444.45180722891564" y="501.1927710843374" type="curve" smooth="yes"/>
      <point x="347.18072289156623" y="501.1927710843374"/>
      <point x="273.210843373494" y="462.6686746987952"/>
      <point x="229.67469879518072" y="393.20481927710847" type="curve"/>
      <point x="240.3313253012048" y="393.20481927710847" type="line"/>
      <point x="240.3313253012048" y="490.566265060241" type="line"/>
      <point x="77.13855421686746" y="490.566265060241" type="line"/>
    </contour>
  </outline>
</glyph>
<glyph name="o" format="2">
  <advance width="723.7831325301205"/>
  <unicode hex="006F"/>
  <anchor x="361.89156626506025" y="0.0" name="bottom"/>
  <anchor x="360.51807228915663" y="245.6265060240964" name="center"/>
  <anchor x="408.93373493975906" y="0.0" name="ogonek"/>
  <anchor x="361.89156626506025" y="484.0" name="top"/>
  <anchor x="428.3975903614458" y="484.0" name="topright"/>
  <outline>
    <contour>
      <point x="361.89156626506025" y="-10.626506024096384" type="curve" smooth="yes"/>
      <point x="561.3192771084338" y="-10.626506024096384"/>
      <point x="679.1385542168674" y="94.28313253012048"/>
      <point x="679.1385542168674" y="245.6265060240964" type="curve" smooth="yes"/>
      <point x="679.1385542168674" y="396.2831325301205"/>
      <point x="561.3192771084338" y="501.1927710843374"/>
      <point x="361.89156626506025" y="501.1927710843374" type="curve" smooth="yes"/>
      <point x="161.77710843373495" y="501.1927710843374"/>
      <point x="44.644578313253014" y="396.2831325301205"/>
      <point x="44.644578313253014" y="245.6265060240964" type="curve" smooth="yes"/>
      <point x="44.644578313253014" y="94.28313253012048"/>
      <point x="161.77710843373495" y="-10.626506024096384"/>
    </contour>
    <contour>
      <point x="361.89156626506025" y="112.45180722891565" type="curve" smooth="yes"/>
      <point x="267.2289156626506" y="112.45180722891565"/>
      <point x="212.80722891566265" y="162.933734939759"/>
      <point x="212.80722891566265" y="245.6265060240964" type="curve" smooth="yes"/>
      <point x="212.80722891566265" y="328.31927710843377"/>
      <point x="267.2289156626506" y="378.1144578313253"/>
      <point x="361.89156626506025" y="378.1144578313253" type="curve" smooth="yes"/>
      <point x="455.867469879518" y="378.1144578313253"/>
      <point x="510.9759036144578" y="328.31927710843377"/>
      <point x="510.9759036144578" y="245.6265060240964" type="curve" smooth="yes"/>
      <point x="510.9759036144578" y="162.933734939759"/>
      <point x="455.867469879518" y="112.45180722891565"/>
    </contour>
  </outline>
</glyph>
<glyph name="r" format="2">
  <advance width="495.5240963855422"/>
  <unicode hex="0072"/>
  <anchor x="162.17469879518072" y="0.0" name="bottom"/>
  <anchor x="285.1746987951807" y="484.0" name="top"/>
  <outline>
    <contour>
      <point x="77.13855421686746" y="0.0" type="line"/>
      <point x="247.24096385542168" y="0.0" type="line"/>
      <point x="247.24096385542168" y="246.5722891566265" type="line" smooth="yes"/>
      <point x="247.24096385542168" y="312.3373493975904"/>
      <point x="292.63253012048193" y="346.78915662650604"/>
      <point x="396.33734939759034" y="356.4759036144579" type="curve" smooth="yes"/>
      <point x="491.46385542168673" y="365.04216867469876" type="line"/>
      <point x="480.86746987951807" y="503.87951807228916" type="line"/>
      <point x="431.5722891566265" y="500.566265060241" type="line" smooth="yes"/>
      <point x="321.63253012048193" y="492.87951807228916"/>
      <point x="249.88554216867468" y="450.0301204819277"/>
      <point x="227.3313253012048" y="368.2831325301205" type="curve"/>
      <point x="240.3313253012048" y="368.2831325301205" type="line"/>
      <point x="240.3313253012048" y="490.566265060241" type="line"/>
      <point x="77.13855421686746" y="490.566265060241" type="line"/>
    </contour>
  </outline>
</glyph>
<glyph name="s" format="2">
  <advance width="607.9819277108434"/>
  <unicode hex="0073"/>
  <anchor x="307.566265060241" y="0.0" name="bottom"/>
  <anchor x="313.789156626506" y="484.0" name="top"/>
  <outline>
    <contour>
      <point x="305.93975903614455" y="-10.626506024096384" type="curve" smooth="yes"/>
      <point x="464.4879518072289" y="-10.626506024096384"/>
      <point x="568.1867469879518" y="52.566265060240966"/>
      <point x="568.1867469879518" y="153.95180722891564" type="curve" smooth="yes"/>
      <point x="568.1867469879518" y="230.80120481927707"/>
      <point x="513.2469879518072" y="276.39759036144574"/>
      <point x="413.90361445783134" y="287.4277108433735" type="curve" smooth="yes"/>
      <point x="265.60843373493975" y="304.4578313253012" type="line" smooth="yes"/>
      <point x="222.53012048192772" y="308.8313253012048"/>
      <point x="209.2590361445783" y="324.7590361445783"/>
      <point x="209.2590361445783" y="344.1506024096385" type="curve" smooth="yes"/>
      <point x="209.2590361445783" y="371.2289156626506"/>
      <point x="238.27710843373495" y="390.27710843373495"/>
      <point x="309.1927710843374" y="390.27710843373495" type="curve" smooth="yes"/>
      <point x="377.9397590361446" y="390.27710843373495"/>
      <point x="451.07228915662654" y="374.90361445783134"/>
      <point x="510.54819277108436" y="345.066265060241" type="curve"/>
      <point x="553.9036144578314" y="447.0421686746988" type="line"/>
      <point x="506.6807228915663" y="480.16265060240966"/>
      <point x="422.17469879518075" y="501.1927710843374"/>
      <point x="320.69879518072287" y="501.1927710843374" type="curve" smooth="yes"/>
      <point x="165.0" y="501.1927710843374"/>
      <point x="58.795180722891565" y="433.93975903614455"/>
      <point x="58.795180722891565" y="336.8975903614458" type="curve" smooth="yes"/>
      <point x="58.795180722891565" y="263.70481927710847"/>
      <point x="114.01807228915663" y="212.4518072289157"/>
      <point x="214.2409638554217" y="201.07831325301208" type="curve" smooth="yes"/>
      <point x="362.53614457831327" y="184.04819277108436" type="line" smooth="yes"/>
      <point x="402.4819277108433" y="179.3012048192771"/>
      <point x="418.37951807228916" y="166.06024096385542"/>
      <point x="418.37951807228916" y="145.3855421686747" type="curve" smooth="yes"/>
      <point x="418.37951807228916" y="116.96385542168674"/>
      <point x="381.6746987951807" y="99.63253012048192"/>
      <point x="320.0421686746988" y="99.63253012048192" type="curve" smooth="yes"/>
      <point x="242.23493975903614" y="99.63253012048192"/>
      <point x="149.25301204819277" y="117.31927710843374"/>
      <point x="84.46385542168674" y="149.37951807228913" type="curve"/>
      <point x="50.33132530120483" y="42.18072289156627" type="line"/>
      <point x="104.83734939759037" y="9.74698795180723"/>
      <point x="197.0301204819277" y="-10.626506024096384"/>
    </contour>
  </outline>
</glyph>
<glyph name="t" format="2">
  <advance width="484.4939759036144"/>
  <unicode hex="0074"/>
  <anchor x="288.71084337349396" y="0.0" name="bottom"/>
  <anchor x="226.68072289156626" y="254.9277108433735" name="center"/>
  <anchor x="199.5602409638554" y="635.0" name="top"/>
  <anchor x="347.8554216867469" y="705.0" name="topright"/>
  <outline>
    <contour>
      <point x="354.933734939759" y="-10.626506024096384" type="curve" smooth="yes"/>
      <point x="408.37951807228916" y="-10.626506024096384"/>
      <point x="453.3192771084337" y="-2.3132530120481927"/>
      <point x="489.70481927710847" y="14.596385542168676" type="curve"/>
      <point x="466.54216867469876" y="134.0180722891566" type="line"/>
      <point x="441.2289156626506" y="126.67469879518072"/>
      <point x="416.16867469879514" y="122.98795180722891"/>
      <point x="389.1385542168675" y="122.98795180722891" type="curve" smooth="yes"/>
      <point x="314.86746987951807" y="122.98795180722891"/>
      <point x="282.6265060240964" y="148.2590361445783"/>
      <point x="282.6265060240964" y="208.42771084337346" type="curve" smooth="yes"/>
      <point x="282.6265060240964" y="370.80120481927713" type="line"/>
      <point x="465.8975903614458" y="370.80120481927713" type="line"/>
      <point x="465.8975903614458" y="490.566265060241" type="line"/>
      <point x="282.6265060240964" y="490.566265060241" type="line"/>
      <point x="282.6265060240964" y="635.0" type="line"/>
      <point x="115.80722891566265" y="635.0" type="line"/>
      <point x="115.80722891566265" y="490.566265060241" type="line"/>
      <point x="-1.2530120481927707" y="490.566265060241" type="line"/>
      <point x="-1.2530120481927707" y="370.80120481927713" type="line"/>
      <point x="115.80722891566265" y="370.80120481927713" type="line"/>
      <point x="115.80722891566265" y="199.42771084337346" type="line" smooth="yes"/>
      <point x="115.80722891566265" y="60.22289156626506"/>
      <point x="198.2831325301205" y="-10.626506024096384"/>
    </contour>
  </outline>
</glyph>
<glyph name="u" format="2">
  <advance width="727.5903614457832"/>
  <unicode hex="0075"/>
  <anchor x="363.29518072289153" y="0.0" name="bottom"/>
  <anchor x="617.6204819277109" y="0.0" name="ogonek"/>
  <anchor x="363.29518072289153" y="484.68674698795184" name="top"/>
  <anchor x="526.2831325301205" y="484.0" name="topright"/>
  <outline>
    <contour>
      <point x="285.7951807228916" y="-10.626506024096384" type="curve" smooth="yes"/>
      <point x="381.8798192771085" y="-10.626506024096384"/>
      <point x="453.88813253012046" y="28.53746385542169"/>
      <point x="497.5722891566265" y="97.70481927710843" type="curve"/>
      <point x="487.2590361445783" y="97.70481927710843" type="line"/>
      <point x="487.2590361445783" y="0.0" type="line"/>
      <point x="650.4518072289156" y="0.0" type="line"/>
      <point x="650.4518072289156" y="490.566265060241" type="line"/>
      <point x="483.63253012048193" y="490.566265060241" type="line"/>
      <point x="483.63253012048193" y="241.75903614457832" type="line" smooth="yes"/>
      <point x="483.63253012048193" y="173.03614457831324"/>
      <point x="429.2425722891566" y="117.04819277108433"/>
      <point x="344.23493975903614" y="117.04819277108433" type="curve" smooth="yes"/>
      <point x="279.01051807228913" y="117.04819277108433"/>
      <point x="241.27108433734938" y="142.97590361445782"/>
      <point x="241.27108433734938" y="227.95180722891567" type="curve" smooth="yes"/>
      <point x="241.27108433734938" y="490.566265060241" type="line"/>
      <point x="74.45180722891565" y="490.566265060241" type="line"/>
      <point x="74.45180722891565" y="222.35542168674695" type="line" smooth="yes"/>
      <point x="74.45180722891565" y="56.13253012048193"/>
      <point x="149.43142771084337" y="-10.626506024096384"/>
    </contour>
  </outline>
</glyph>
<glyph name="v" format="2">
  <advance width="656.7710843373494"/>
  <unicode hex="0076"/>
  <anchor x="330.35542168674704" y="0.0" name="bottom"/>
  <anchor x="330.35542168674704" y="484.0" name="top"/>
  <outline>
    <contour>
      <point x="257.39156626506025" y="0.0" type="line"/>
      <point x="399.37951807228916" y="0.0" type="line"/>
      <point x="667.5722891566265" y="490.566265060241" type="line"/>
      <point x="500.63253012048193" y="490.566265060241" type="line"/>
      <point x="310.4759036144578" y="130.93975903614455" type="line"/>
      <point x="356.83132530120486" y="130.93975903614455" type="line"/>
      <point x="167.36144578313252" y="490.566265060241" type="line"/>
      <point x="-10.457831325301203" y="490.566265060241" type="line"/>
    </contour>
  </outline>
</glyph>
<glyph name="w" format="2">
  <advance width="1065.7409638554218"/>
  <unicode hex="0077"/>
  <anchor x="533.0421686746988" y="0.0" name="bottom"/>
  <anchor x="533.0421686746988" y="484.0" name="top"/>
  <outline>
    <contour>
      <point x="246.55421686746988" y="0.0" type="line"/>
      <point x="390.57228915662654" y="0.0" type="line"/>
      <point x="566.8012048192771" y="357.77710843373495" type="line"/>
      <point x="499.6265060240964" y="357.77710843373495" type="line"/>
      <point x="675.855421686747" y="0.0" type="line"/>
      <point x="820.2168674698795" y="0.0" type="line"/>
      <point x="1063.0481927710844" y="490.566265060241" type="line"/>
      <point x="896.1084337349398" y="490.566265060241" type="line"/>
      <point x="736.8493975903615" y="147.35542168674698" type="line"/>
      <point x="760.9096385542168" y="147.35542168674698" type="line"/>
      <point x="593.2469879518072" y="490.566265060241" type="line"/>
      <point x="481.06024096385545" y="490.566265060241" type="line"/>
      <point x="313.0542168674699" y="147.35542168674698" type="line"/>
      <point x="337.80120481927713" y="147.35542168674698" type="line"/>
      <point x="180.855421686747" y="490.566265060241" type="line"/>
      <point x="3.036144578313256" y="490.566265060241" type="line"/>
    </contour>
  </outline>
</glyph>
<glyph name="x" format="2">
  <advance width="683.6927710843373"/>
  <unicode hex="0078"/>
  <anchor x="342.8614457831325" y="0.0" name="bottom"/>
  <anchor x="342.8614457831325" y="484.0" name="top"/>
  <outline>
    <contour>
      <point x="-9.650602409638552" y="0.0" type="line"/>
      <point x="187.6144578313253" y="0.0" type="line"/>
      <point x="370.8433734939759" y="188.2289156626506" type="line"/>
      <point x="313.50602409638554" y="188.2289156626506" type="line"/>
      <point x="491.1385542168675" y="0.0" type="line"/>
      <point x="696.343373493976" y="0.0" type="line"/>
      <point x="411.10843373493975" y="290.20481927710847" type="line"/>
      <point x="411.10843373493975" y="216.01807228915663" type="line"/>
      <point x="679.7168674698795" y="490.566265060241" type="line"/>
      <point x="482.45180722891564" y="490.566265060241" type="line"/>
      <point x="313.50602409638554" y="316.6506024096385" type="line"/>
      <point x="372.2168674698795" y="316.6506024096385" type="line"/>
      <point x="211.18072289156626" y="490.566265060241" type="line"/>
      <point x="6.319277108433739" y="490.566265060241" type="line"/>
      <point x="274.9578313253012" y="216.3012048192771" type="line"/>
      <point x="274.9578313253012" y="290.2951807228916" type="line"/>
    </contour>
  </outline>
</glyph>
<glyph name="y" format="2">
  <advance width="656.4277108433736"/>
  <unicode hex="0079"/>
  <anchor x="515.4397590361446" y="0.0" name="bottom"/>
  <anchor x="329.38554216867465" y="484.0" name="top"/>
  <outline>
    <contour>
      <point x="129.90361445783134" y="-180.0" type="line"/>
      <point x="301.4397590361446" y="-180.0" type="line"/>
      <point x="667.5722891566264" y="490.566265060241" type="line"/>
      <point x="500.289156626506" y="490.566265060241" type="line"/>
      <point x="316.1024096385542" y="140.84939759036143" type="line"/>
      <point x="351.89156626506025" y="140.84939759036143" type="line"/>
      <point x="167.0180722891566" y="490.566265060241" type="line"/>
      <point x="-10.801204819277105" y="490.566265060241" type="line"/>
      <point x="260.51204819277115" y="-6.240963855421686" type="line"/>
      <point x="260.51204819277115" y="60.65060240963855" type="line"/>
    </contour>
  </outline>
</glyph>
<glyph name="z" format="2">
  <advance width="590.8313253012049"/>
  <unicode hex="007A"/>
  <anchor x="302.78915662650604" y="0.0" name="bottom"/>
  <anchor x="302.78915662650604" y="484.0" name="top"/>
  <outline>
    <contour>
      <point x="57.554216867469876" y="0.0" type="line"/>
      <point x="561.0542168674699" y="0.0" type="line"/>
      <point x="561.0542168674699" y="119.76506024096385" type="line"/>
      <point x="205.3313253012048" y="119.76506024096385" type="line"/>
      <point x="205.3313253012048" y="78.81325301204818" type="line"/>
      <point x="547.367469879518" y="381.08433734939763" type="line"/>
      <point x="547.367469879518" y="490.566265060241" type="line"/>
      <point x="57.554216867469876" y="490.566265060241" type="line"/>
      <point x="57.554216867469876" y="370.80120481927713" type="line"/>
      <point x="395.9939759036145" y="370.80120481927713" type="line"/>
      <point x="395.9939759036145" y="412.4397590361446" type="line"/>
      <point x="57.554216867469876" y="109.48192771084338" type="line"/>
    </contour>
  </outline>
</glyph>
<glyph name="braceleft" format="2">
  <advance width="494.31325301204816"/>
  <unicode hex="007B"/>
  <outline>
    <contour>
      <point x="331.90361445783134" y="-180.0" type="curve" smooth="yes"/>
      <point x="480.18072289156623" y="-180.0" type="line"/>
      <point x="480.18072289156623" y="-57.608433734939766" type="line"/>
      <point x="395.9698795180723" y="-57.608433734939766" type="line" smooth="yes"/>
      <point x="361.2831325301205" y="-57.608433734939766"/>
      <point x="342.9096385542169" y="-40.234939759036145"/>
      <point x="342.9096385542169" y="-8.89156626506025" type="curve" smooth="yes"/>
      <point x="342.9096385542169" y="142.01807228915663" type="line" smooth="yes"/>
      <point x="342.9096385542169" y="213.49397590361446"/>
      <point x="293.34337349397595" y="263.6867469879518"/>
      <point x="222.12048192771084" y="263.6867469879518" type="curve"/>
      <point x="222.12048192771084" y="259.6867469879518" type="line"/>
      <point x="293.34337349397595" y="259.6867469879518"/>
      <point x="342.9096385542169" y="310.22289156626505"/>
      <point x="342.9096385542169" y="381.69879518072287" type="curve" smooth="yes"/>
      <point x="342.9096385542169" y="533.8915662650602" type="line" smooth="yes"/>
      <point x="342.9096385542169" y="565.2349397590361"/>
      <point x="361.2831325301205" y="582.6084337349397"/>
      <point x="395.9698795180723" y="582.6084337349397" type="curve" smooth="yes"/>
      <point x="480.18072289156623" y="582.6084337349397" type="line"/>
      <point x="480.18072289156623" y="705.0" type="line"/>
      <point x="331.90361445783134" y="705.0" type="line" smooth="yes"/>
      <point x="234.4156626506024" y="705.0"/>
      <point x="176.09036144578312" y="651.9879518072289"/>
      <point x="176.09036144578312" y="563.7530120481929" type="curve" smooth="yes"/>
      <point x="176.09036144578312" y="402.1144578313253" type="line" smooth="yes"/>
      <point x="176.09036144578312" y="347.33734939759034"/>
      <point x="153.59638554216866" y="329.0240963855421"/>
      <point x="97.81927710843374" y="325.0240963855422" type="curve" smooth="yes"/>
      <point x="50.524096385542165" y="321.3975903614458" type="line"/>
      <point x="50.524096385542165" y="202.97590361445785" type="line"/>
      <point x="97.81927710843374" y="199.34939759036146" type="line" smooth="yes"/>
      <point x="155.65662650602408" y="195.34939759036143"/>
      <point x="176.09036144578312" y="173.97590361445782"/>
      <point x="176.09036144578312" y="121.60240963855424" type="curve" smooth="yes"/>
      <point x="176.09036144578312" y="-38.75301204819277" type="line" smooth="yes"/>
      <point x="176.09036144578312" y="-126.98795180722891"/>
      <point x="234.4156626506024" y="-180.0"/>
    </contour>
  </outline>
</glyph>
<glyph name="braceright" format="2">
  <advance width="494.31325301204816"/>
  <unicode hex="007D"/>
  <outline>
    <contour>
      <point x="14.132530120481928" y="-180.0" type="line"/>
      <point x="162.75301204819274" y="-180.0" type="line" smooth="yes"/>
      <point x="260.2409638554217" y="-180.0"/>
      <point x="318.56626506024094" y="-126.98795180722891"/>
      <point x="318.56626506024094" y="-38.75301204819277" type="curve" smooth="yes"/>
      <point x="318.56626506024094" y="121.60240963855424" type="line" smooth="yes"/>
      <point x="318.56626506024094" y="173.97590361445785"/>
      <point x="338.6566265060241" y="195.34939759036146"/>
      <point x="396.49397590361446" y="199.34939759036146" type="curve" smooth="yes"/>
      <point x="444.13253012048193" y="202.97590361445785" type="line"/>
      <point x="444.13253012048193" y="321.3975903614458" type="line"/>
      <point x="396.49397590361446" y="325.0240963855422" type="line" smooth="yes"/>
      <point x="340.7168674698795" y="328.68072289156623"/>
      <point x="318.56626506024094" y="347.33734939759034"/>
      <point x="318.56626506024094" y="402.1144578313253" type="curve" smooth="yes"/>
      <point x="318.56626506024094" y="563.7530120481929" type="line" smooth="yes"/>
      <point x="318.56626506024094" y="651.9879518072288"/>
      <point x="260.2409638554217" y="705.0"/>
      <point x="162.75301204819274" y="705.0" type="curve" smooth="yes"/>
      <point x="14.132530120481928" y="705.0" type="line"/>
      <point x="14.132530120481928" y="582.6084337349397" type="line"/>
      <point x="99.03012048192771" y="582.6084337349397" type="line" smooth="yes"/>
      <point x="133.3734939759036" y="582.6084337349397"/>
      <point x="151.74698795180723" y="565.2349397590361"/>
      <point x="151.74698795180723" y="533.8915662650602" type="curve" smooth="yes"/>
      <point x="151.74698795180723" y="381.69879518072287" type="line" smooth="yes"/>
      <point x="151.74698795180723" y="310.22289156626505"/>
      <point x="201.6566265060241" y="259.6867469879518"/>
      <point x="272.1927710843373" y="259.6867469879518" type="curve"/>
      <point x="272.1927710843373" y="263.6867469879518" type="line"/>
      <point x="201.6566265060241" y="263.6867469879518"/>
      <point x="151.74698795180723" y="213.83734939759034"/>
      <point x="151.74698795180723" y="142.01807228915663" type="curve" smooth="yes"/>
      <point x="151.74698795180723" y="-8.89156626506025" type="line" smooth="yes"/>
      <point x="151.74698795180723" y="-40.234939759036145"/>
      <point x="133.3734939759036" y="-57.608433734939766"/>
      <point x="99.03012048192771" y="-57.608433734939766" type="curve" smooth="yes"/>
      <point x="14.132530120481928" y="-57.608433734939766" type="line"/>
    </contour>
  </outline>
</glyph>
<glyph name="asciitilde" format="2">
  <advance width="748.0"/>
  <unicode hex="007E"/>
  <outline>
    <contour>
      <point x="500.43373493975906" y="200.67469879518072" type="curve" smooth="yes"/>
      <point x="578.1626506024097" y="200.67469879518072"/>
      <point x="632.8915662650602" y="236.49397590361446"/>
      <point x="667.3253012048193" y="310.7469879518072" type="curve"/>
      <point x="581.7650602409639" y="364.14457831325296" type="line"/>
      <point x="559.9578313253011" y="323.6807228915663"/>
      <point x="535.644578313253" y="307.0240963855421"/>
      <point x="497.9277108433735" y="307.0240963855421" type="curve" smooth="yes"/>
      <point x="468.30120481927713" y="307.0240963855421"/>
      <point x="435.3313253012048" y="318.6807228915663"/>
      <point x="385.40361445783134" y="338.1746987951807" type="curve" smooth="yes"/>
      <point x="314.22289156626505" y="364.98192771084337"/>
      <point x="280.9698795180723" y="373.66867469879514"/>
      <point x="246.25301204819277" y="373.66867469879514" type="curve" smooth="yes"/>
      <point x="169.52409638554218" y="373.66867469879514"/>
      <point x="114.13855421686748" y="337.1927710843373"/>
      <point x="80.67469879518072" y="262.59638554216866" type="curve"/>
      <point x="167.63855421686745" y="210.19879518072293" type="line"/>
      <point x="187.7289156626506" y="250.31927710843377"/>
      <point x="213.01204819277106" y="267.6325301204819"/>
      <point x="251.75903614457832" y="267.6325301204819" type="curve" smooth="yes"/>
      <point x="279.4759036144578" y="267.6325301204819"/>
      <point x="302.4759036144579" y="258.2891566265061"/>
      <point x="364.59638554216866" y="234.855421686747" type="curve" smooth="yes"/>
      <point x="432.77710843373495" y="209.04819277108436"/>
      <point x="464.06024096385545" y="200.67469879518072"/>
    </contour>
  </outline>
</glyph>
<glyph name="exclamdown" format="2">
  <advance width="310.43975903614455"/>
  <unicode hex="00A1"/>
  <outline>
    <contour>
      <point x="54.63253012048193" y="-180.0" type="line"/>
      <point x="255.80722891566265" y="-180.0" type="line"/>
      <point x="204.69277108433735" y="258.56024096385545" type="line"/>
      <point x="105.74698795180723" y="258.56024096385545" type="line"/>
    </contour>
    <contour>
      <point x="67.644578313253" y="317.7289156626506" type="line"/>
      <point x="243.45180722891564" y="317.7289156626506" type="line"/>
      <point x="243.45180722891564" y="490.566265060241" type="line"/>
      <point x="67.644578313253" y="490.566265060241" type="line"/>
    </contour>
  </outline>
</glyph>
<glyph name="cent" format="2">
  <advance width="748.0"/>
  <unicode hex="00A2"/>
  <outline>
    <contour>
      <point x="331.0963855421687" y="-115.0" type="line"/>
      <point x="463.7710843373494" y="-115.0" type="line"/>
      <point x="463.7710843373494" y="24.759036144578314" type="line"/>
      <point x="425.9819277108434" y="-6.0" type="line"/>
      <point x="516.5481927710842" y="-5.656626506024097"/>
      <point x="599.6807228915663" y="16.403614457831324"/>
      <point x="650.3373493975903" y="52.524096385542165" type="curve"/>
      <point x="599.1024096385541" y="169.28915662650604" type="line"/>
      <point x="554.7289156626506" y="139.10843373493975"/>
      <point x="498.26506024096386" y="122.01807228915662"/>
      <point x="433.4277108433735" y="122.01807228915662" type="curve" smooth="yes"/>
      <point x="332.2289156626506" y="122.01807228915662"/>
      <point x="270.49397590361446" y="168.21686746987953"/>
      <point x="270.49397590361446" y="245.6265060240964" type="curve" smooth="yes"/>
      <point x="270.49397590361446" y="324.00602409638554"/>
      <point x="333.19879518072287" y="371.51807228915663"/>
      <point x="435.0843373493976" y="371.51807228915663" type="curve" smooth="yes"/>
      <point x="498.9216867469879" y="371.51807228915663"/>
      <point x="556.9819277108434" y="354.1144578313253"/>
      <point x="599.7590361445783" y="324.5903614457832" type="curve"/>
      <point x="650.3373493975903" y="438.0421686746988" type="line"/>
      <point x="601.9939759036146" y="474.84939759036143"/>
      <point x="517.8614457831326" y="496.56626506024094"/>
      <point x="426.6686746987952" y="496.566265060241" type="curve"/>
      <point x="463.7710843373494" y="464.40361445783134" type="line"/>
      <point x="463.7710843373494" y="610.9096385542168" type="line"/>
      <point x="331.0963855421687" y="610.9096385542168" type="line"/>
      <point x="331.0963855421687" y="454.5542168674699" type="line"/>
      <point x="355.5421686746988" y="491.3132530120482" type="line"/>
      <point x="198.1686746987952" y="472.5542168674699"/>
      <point x="99.04819277108435" y="379.8072289156627"/>
      <point x="99.04819277108435" y="244.96987951807228" type="curve" smooth="yes"/>
      <point x="99.04819277108435" y="107.81927710843374"/>
      <point x="201.4518072289157" y="14.415662650602407"/>
      <point x="363.73493975903614" y="-2.4036144578313268" type="curve"/>
      <point x="331.0963855421687" y="33.295180722891565" type="line"/>
    </contour>
  </outline>
</glyph>
<glyph name="sterling" format="2">
  <advance width="748.0"/>
  <unicode hex="00A3"/>
  <outline>
    <contour>
      <point x="54.867469879518076" y="0.0" type="line"/>
      <point x="704.0120481927711" y="0.0" type="line"/>
      <point x="704.0120481927711" y="136.89759036144576" type="line"/>
      <point x="334.76506024096386" y="136.89759036144576" type="line"/>
      <point x="334.76506024096386" y="296.10843373493975" type="line"/>
      <point x="531.801204819277" y="296.10843373493975" type="line"/>
      <point x="531.801204819277" y="411.26506024096386" type="line"/>
      <point x="334.76506024096386" y="411.26506024096386" type="line"/>
      <point x="334.76506024096386" y="480.9759036144578" type="line" smooth="yes"/>
      <point x="334.76506024096386" y="556.4277108433736"/>
      <point x="374.81325301204816" y="582.9819277108435"/>
      <point x="464.01204819277115" y="582.9819277108435" type="curve" smooth="yes"/>
      <point x="540.9698795180723" y="582.9819277108435"/>
      <point x="602.4638554216868" y="563.8614457831326"/>
      <point x="658.8373493975903" y="522.5903614457832" type="curve"/>
      <point x="721.9819277108433" y="642.6987951807229" type="line"/>
      <point x="659.355421686747" y="688.8795180722891"/>
      <point x="559.1024096385543" y="715.6265060240964"/>
      <point x="455.9698795180723" y="715.6265060240964" type="curve" smooth="yes"/>
      <point x="263.76506024096386" y="715.6265060240964"/>
      <point x="156.4698795180723" y="635.9277108433736"/>
      <point x="156.4698795180723" y="489.82530120481925" type="curve" smooth="yes"/>
      <point x="156.4698795180723" y="411.26506024096386" type="line"/>
      <point x="54.867469879518076" y="411.26506024096386" type="line"/>
      <point x="54.867469879518076" y="296.10843373493975" type="line"/>
      <point x="156.4698795180723" y="296.10843373493975" type="line"/>
      <point x="156.4698795180723" y="136.89759036144576" type="line"/>
      <point x="54.867469879518076" y="136.89759036144576" type="line"/>
    </contour>
  </outline>
</glyph>
<glyph name="currency" format="2">
  <advance width="748.0"/>
  <unicode hex="00A4"/>
  <outline>
    <contour>
      <point x="145.7289156626506" y="-33.506024096385545" type="line"/>
      <point x="226.0421686746988" y="43.15060240963856" type="line"/>
      <point x="267.07228915662654" y="15.373493975903614"/>
      <point x="318.1927710843374" y="-1.030120481927711"/>
      <point x="374.34337349397595" y="-1.030120481927711" type="curve" smooth="yes"/>
      <point x="430.49397590361446" y="-1.030120481927711"/>
      <point x="481.6144578313253" y="15.716867469879519"/>
      <point x="522.644578313253" y="43.15060240963856" type="curve"/>
      <point x="602.9578313253012" y="-33.506024096385545" type="line"/>
      <point x="665.1626506024096" y="32.355421686746986" type="line"/>
      <point x="587.1626506024096" y="106.01204819277108" type="line"/>
      <point x="615.6265060240964" y="146.0722891566265"/>
      <point x="631.6867469879519" y="193.84939759036143"/>
      <point x="631.6867469879519" y="246.3132530120482" type="curve" smooth="yes"/>
      <point x="631.6867469879519" y="298.7771084337349"/>
      <point x="615.6265060240964" y="346.89759036144574"/>
      <point x="587.5060240963855" y="386.6144578313253" type="curve"/>
      <point x="664.8192771084337" y="460.6144578313253" type="line"/>
      <point x="602.9578313253013" y="526.132530120482" type="line"/>
      <point x="522.644578313253" y="449.4759036144578" type="line"/>
      <point x="481.2710843373494" y="477.2530120481928"/>
      <point x="430.4939759036145" y="493.6566265060241"/>
      <point x="374.34337349397595" y="493.6566265060241" type="curve" smooth="yes"/>
      <point x="317.84939759036143" y="493.6566265060241"/>
      <point x="267.4156626506024" y="477.2530120481928"/>
      <point x="225.6987951807229" y="449.4759036144579" type="curve"/>
      <point x="145.3855421686747" y="525.789156626506" type="line"/>
      <point x="83.18072289156626" y="460.9578313253012" type="line"/>
      <point x="160.83734939759037" y="386.95783132530124" type="line"/>
      <point x="132.7168674698795" y="346.8975903614458"/>
      <point x="116.6566265060241" y="299.1204819277109"/>
      <point x="116.6566265060241" y="246.3132530120482" type="curve" smooth="yes"/>
      <point x="116.6566265060241" y="193.84939759036143"/>
      <point x="133.06024096385542" y="145.7289156626506"/>
      <point x="160.83734939759037" y="106.355421686747" type="curve"/>
      <point x="83.18072289156626" y="32.355421686746986" type="line"/>
    </contour>
    <contour>
      <point x="374.3433734939759" y="110.22891566265059" type="curve" smooth="yes"/>
      <point x="294.3072289156626" y="110.22891566265059"/>
      <point x="234.8855421686747" y="169.3674698795181"/>
      <point x="234.8855421686747" y="246.3132530120482" type="curve" smooth="yes"/>
      <point x="234.8855421686747" y="323.94578313253015"/>
      <point x="293.96385542168673" y="383.0843373493976"/>
      <point x="374.3433734939759" y="383.0843373493976" type="curve" smooth="yes"/>
      <point x="454.7228915662651" y="382.7409638554217"/>
      <point x="513.4578313253012" y="323.94578313253015"/>
      <point x="513.4578313253012" y="246.3132530120482" type="curve" smooth="yes"/>
      <point x="513.4578313253012" y="169.3674698795181"/>
      <point x="454.7228915662651" y="110.22891566265059"/>
    </contour>
  </outline>
</glyph>
<glyph name="yen" format="2">
  <advance width="748.0"/>
  <unicode hex="00A5"/>
  <outline>
    <contour>
      <point x="285.68072289156623" y="0.0" type="line"/>
      <point x="463.3192771084337" y="0.0" type="line"/>
      <point x="463.3192771084337" y="152.33132530120486" type="line"/>
      <point x="668.7590361445783" y="152.33132530120486" type="line"/>
      <point x="668.7590361445783" y="252.47590361445782" type="line"/>
      <point x="463.3192771084337" y="252.47590361445782" type="line"/>
      <point x="463.3192771084337" y="308.8975903614458" type="line"/>
      <point x="668.7590361445783" y="308.8975903614458" type="line"/>
      <point x="668.7590361445783" y="409.0421686746988" type="line"/>
      <point x="496.2289156626506" y="409.0421686746988" type="line"/>
      <point x="496.2289156626506" y="387.0722891566265" type="line"/>
      <point x="772.5180722891565" y="705.0" type="line"/>
      <point x="580.2831325301205" y="705.0" type="line"/>
      <point x="356.15060240963857" y="442.8253012048193" type="line"/>
      <point x="393.50602409638554" y="442.8253012048193" type="line"/>
      <point x="169.7168674698795" y="705.0" type="line"/>
      <point x="-23.204819277108435" y="705.0" type="line"/>
      <point x="260.3373493975904" y="387.0722891566265" type="line"/>
      <point x="260.3373493975904" y="409.0421686746988" type="line"/>
      <point x="80.55421686746988" y="409.0421686746988" type="line"/>
      <point x="80.55421686746988" y="308.8975903614458" type="line"/>
      <point x="285.68072289156623" y="308.8975903614458" type="line"/>
      <point x="285.68072289156623" y="252.47590361445782" type="line"/>
      <point x="80.55421686746988" y="252.47590361445782" type="line"/>
      <point x="80.55421686746988" y="152.33132530120486" type="line"/>
      <point x="285.68072289156623" y="152.33132530120486" type="line"/>
    </contour>
  </outline>
</glyph>
<glyph name="brokenbar" format="2">
  <advance width="359.6626506024096"/>
  <unicode hex="00A6"/>
  <outline>
    <contour>
      <point x="96.42168674698794" y="371.68674698795184" type="line"/>
      <point x="263.2409638554217" y="371.68674698795184" type="line"/>
      <point x="263.2409638554217" y="705.0" type="line"/>
      <point x="96.42168674698794" y="705.0" type="line"/>
    </contour>
    <contour>
      <point x="96.42168674698794" y="-180.0" type="line"/>
      <point x="263.2409638554217" y="-180.0" type="line"/>
      <point x="263.2409638554217" y="154.0" type="line"/>
      <point x="96.42168674698794" y="154.0" type="line"/>
    </contour>
  </outline>
</glyph>
<glyph name="section" format="2">
  <advance width="713.2289156626506"/>
  <unicode hex="00A7"/>
  <outline>
    <contour>
      <point x="329.144578313253" y="-190.6265060240964" type="curve" smooth="yes"/>
      <point x="515.5722891566265" y="-190.6265060240964"/>
      <point x="623.644578313253" y="-122.0"/>
      <point x="623.644578313253" y="-4.150602409638555" type="curve" smooth="yes"/>
      <point x="623.644578313253" y="40.95180722891567"/>
      <point x="607.4819277108434" y="77.11445783132531"/>
      <point x="571.5" y="111.96385542168674" type="curve"/>
      <point x="558.277108433735" y="68.07228915662651" type="line"/>
      <point x="635.4819277108434" y="111.29518072289157"/>
      <point x="673.9879518072289" y="166.2048192771084"/>
      <point x="673.9879518072289" y="233.30722891566265" type="curve" smooth="yes"/>
      <point x="673.9879518072289" y="310.93373493975906"/>
      <point x="625.4216867469879" y="362.78313253012044"/>
      <point x="510.0903614457832" y="404.27710843373495" type="curve" smooth="yes"/>
      <point x="330.0240963855422" y="467.6626506024096" type="line" smooth="yes"/>
      <point x="273.1385542168675" y="487.8734939759036"/>
      <point x="250.89759036144576" y="509.54819277108436"/>
      <point x="250.89759036144576" y="540.0301204819277" type="curve" smooth="yes"/>
      <point x="250.89759036144576" y="579.289156626506"/>
      <point x="293.3192771084337" y="602.710843373494"/>
      <point x="373.5481927710843" y="602.710843373494" type="curve" smooth="yes"/>
      <point x="447.578313253012" y="602.710843373494"/>
      <point x="525.6084337349397" y="584.9337349397591"/>
      <point x="589.9939759036145" y="554.8132530120482" type="curve"/>
      <point x="635.6927710843373" y="659.7590361445783" type="line"/>
      <point x="579.8132530120482" y="694.8795180722892"/>
      <point x="486.93373493975906" y="715.6265060240964"/>
      <point x="385.4277108433735" y="715.6265060240964" type="curve" smooth="yes"/>
      <point x="199.0" y="715.6265060240964"/>
      <point x="90.9277108433735" y="646.9999999999999"/>
      <point x="90.9277108433735" y="529.1506024096385" type="curve" smooth="yes"/>
      <point x="90.9277108433735" y="484.04819277108436"/>
      <point x="107.09036144578313" y="447.88554216867465"/>
      <point x="143.0722891566265" y="413.03614457831327" type="curve"/>
      <point x="156.29518072289153" y="456.9277108433735" type="line"/>
      <point x="79.09036144578313" y="413.7048192771084"/>
      <point x="40.584337349397586" y="358.79518072289153"/>
      <point x="40.584337349397586" y="291.6927710843374" type="curve" smooth="yes"/>
      <point x="40.584337349397586" y="214.066265060241"/>
      <point x="89.15060240963855" y="162.2168674698795"/>
      <point x="204.4819277108434" y="120.72289156626508" type="curve" smooth="yes"/>
      <point x="384.5481927710843" y="57.33734939759036" type="line" smooth="yes"/>
      <point x="440.12048192771084" y="37.78313253012048"/>
      <point x="463.6746987951807" y="15.451807228915666"/>
      <point x="463.6746987951807" y="-14.373493975903614" type="curve" smooth="yes"/>
      <point x="463.6746987951807" y="-54.31927710843374"/>
      <point x="419.9397590361446" y="-77.71084337349397"/>
      <point x="342.99397590361446" y="-77.71084337349397" type="curve" smooth="yes"/>
      <point x="258.6506024096385" y="-77.71084337349397"/>
      <point x="163.8313253012048" y="-53.71084337349397"/>
      <point x="105.29518072289156" y="-16.993975903614462" type="curve"/>
      <point x="57.6566265060241" y="-125.90963855421687" type="line"/>
      <point x="119.78915662650603" y="-167.28313253012047"/>
      <point x="218.92168674698792" y="-190.6265060240964"/>
    </contour>
    <contour>
      <point x="188.36144578313252" y="322.7048192771084" type="curve" smooth="yes"/>
      <point x="188.36144578313252" y="347.91566265060237"/>
      <point x="200.7951807228916" y="369.7530120481928"/>
      <point x="227.31927710843374" y="388.8132530120482" type="curve"/>
      <point x="186.90361445783134" y="389.8132530120482" type="line"/>
      <point x="207.68072289156626" y="373.8855421686747"/>
      <point x="249.5481927710843" y="355.04819277108436"/>
      <point x="285.0602409638554" y="342.5240963855421" type="curve" smooth="yes"/>
      <point x="422.4578313253012" y="292.39156626506025" type="line" smooth="yes"/>
      <point x="499.7469879518072" y="264.1506024096385"/>
      <point x="526.210843373494" y="240.6566265060241"/>
      <point x="526.210843373494" y="202.29518072289153" type="curve" smooth="yes"/>
      <point x="526.210843373494" y="177.08433734939757"/>
      <point x="513.777108433735" y="155.2469879518072"/>
      <point x="487.2530120481928" y="136.18674698795178" type="curve"/>
      <point x="527.6686746987953" y="135.1867469879518" type="line"/>
      <point x="506.8915662650602" y="151.11445783132532"/>
      <point x="464.6807228915663" y="170.29518072289153"/>
      <point x="429.5120481927711" y="182.47590361445782" type="curve" smooth="yes"/>
      <point x="292.11445783132524" y="232.60843373493972" type="line" smooth="yes"/>
      <point x="215.16867469879517" y="260.50602409638554"/>
      <point x="188.36144578313252" y="284.3433734939759"/>
    </contour>
  </outline>
</glyph>
<glyph name="copyright" format="2">
  <advance width="1014.9397590361446"/>
  <unicode hex="00A9"/>
  <outline>
    <contour>
      <point x="507.9698795180723" y="-10.626506024096384" type="curve" smooth="yes"/>
      <point x="773.9698795180722" y="-10.626506024096384"/>
      <point x="960.8795180722892" y="139.3132530120482"/>
      <point x="960.8795180722892" y="353.0" type="curve" smooth="yes"/>
      <point x="960.8795180722892" y="566.3433734939758"/>
      <point x="774.6265060240963" y="715.6265060240964"/>
      <point x="507.9698795180723" y="715.6265060240964" type="curve" smooth="yes"/>
      <point x="241.96987951807228" y="715.6265060240964"/>
      <point x="55.06024096385542" y="565.6867469879518"/>
      <point x="55.06024096385542" y="352.0" type="curve" smooth="yes"/>
      <point x="55.06024096385542" y="138.65662650602408"/>
      <point x="241.3132530120482" y="-10.626506024096384"/>
    </contour>
    <contour>
      <point x="531.0421686746988" y="137.0" type="curve" smooth="yes"/>
      <point x="606.6987951807228" y="137.0"/>
      <point x="672.9819277108434" y="154.7168674698795"/>
      <point x="714.6987951807229" y="185.49397590361446" type="curve"/>
      <point x="670.9698795180724" y="276.9036144578313" type="line"/>
      <point x="630.566265060241" y="252.06626506024097"/>
      <point x="596.1024096385543" y="243.00602409638554"/>
      <point x="545.5481927710844" y="243.00602409638554" type="curve" smooth="yes"/>
      <point x="449.3192771084337" y="243.00602409638554"/>
      <point x="398.7048192771084" y="280.0240963855422"/>
      <point x="398.7048192771084" y="354.3433734939759" type="curve" smooth="yes"/>
      <point x="398.7048192771084" y="425.9759036144579"/>
      <point x="448.6626506024096" y="461.99397590361446"/>
      <point x="544.2650602409639" y="461.99397590361446" type="curve" smooth="yes"/>
      <point x="594.5060240963857" y="461.99397590361446"/>
      <point x="628.9698795180723" y="452.2469879518073"/>
      <point x="670.9698795180724" y="427.09638554216866" type="curve"/>
      <point x="714.6987951807229" y="518.8795180722892" type="line"/>
      <point x="669.6987951807229" y="550.9698795180723"/>
      <point x="604.0722891566265" y="568.0"/>
      <point x="527.7289156626506" y="568.0" type="curve" smooth="yes"/>
      <point x="362.59638554216866" y="568.0"/>
      <point x="258.15060240963857" y="485.40361445783134"/>
      <point x="258.15060240963857" y="352.3734939759036" type="curve" smooth="yes"/>
      <point x="258.15060240963857" y="220.0"/>
      <point x="363.6265060240964" y="137.0"/>
    </contour>
    <contour>
      <point x="507.9698795180723" y="50.66867469879518" type="curve" smooth="yes"/>
      <point x="277.13253012048193" y="50.66867469879518"/>
      <point x="122.98192771084337" y="170.81927710843374"/>
      <point x="122.98192771084337" y="352.0" type="curve" smooth="yes"/>
      <point x="122.98192771084337" y="533.1807228915662"/>
      <point x="277.4759036144578" y="654.3313253012049"/>
      <point x="507.9698795180723" y="654.3313253012049" type="curve" smooth="yes"/>
      <point x="739.4939759036143" y="654.3313253012049"/>
      <point x="892.9578313253013" y="534.1807228915662"/>
      <point x="892.9578313253013" y="353.0" type="curve" smooth="yes"/>
      <point x="892.9578313253013" y="171.81927710843374"/>
      <point x="739.1506024096385" y="50.66867469879518"/>
    </contour>
  </outline>
</glyph>
<glyph name="ordfeminine" format="2">
  <advance width="424.48795180722897"/>
  <unicode hex="00AA"/>
  <outline>
    <contour>
      <point x="169.7168674698795" y="405.46385542168673" type="curve" smooth="yes"/>
      <point x="227.65662650602408" y="405.46385542168673"/>
      <point x="265.06024096385545" y="425.77710843373495"/>
      <point x="284.5240963855422" y="467.40361445783134" type="curve"/>
      <point x="287.18072289156623" y="467.40361445783134" type="line"/>
      <point x="287.18072289156623" y="412.0903614457831" type="line"/>
      <point x="387.5903614457831" y="412.0903614457831" type="line"/>
      <point x="387.5903614457831" y="579.3614457831326" type="line" smooth="yes"/>
      <point x="387.5903614457831" y="670.433734939759"/>
      <point x="331.77108433734935" y="715.6265060240964"/>
      <point x="214.81927710843374" y="715.6265060240964" type="curve" smooth="yes"/>
      <point x="149.59638554216866" y="715.6265060240964"/>
      <point x="84.71686746987952" y="701.9698795180723"/>
      <point x="40.21084337349398" y="677.9698795180723" type="curve"/>
      <point x="66.03012048192771" y="609.9156626506024" type="line"/>
      <point x="104.90963855421687" y="629.6024096385543"/>
      <point x="155.84939759036143" y="640.9759036144578"/>
      <point x="204.87951807228916" y="640.9759036144578" type="curve" smooth="yes"/>
      <point x="256.5542168674699" y="640.9759036144578"/>
      <point x="281.6144578313253" y="630.1385542168674"/>
      <point x="281.6144578313253" y="596.4638554216866" type="curve" smooth="yes"/>
      <point x="281.6144578313253" y="529.8674698795181" type="line" smooth="yes"/>
      <point x="281.6144578313253" y="497.1927710843373"/>
      <point x="242.7168674698795" y="472.5783132530121"/>
      <point x="191.7289156626506" y="472.5783132530121" type="curve" smooth="yes"/>
      <point x="154.14457831325302" y="472.5783132530121"/>
      <point x="131.24698795180723" y="486.0722891566265"/>
      <point x="131.24698795180723" y="505.6265060240964" type="curve" smooth="yes"/>
      <point x="131.24698795180723" y="533.8072289156626"/>
      <point x="175.1867469879518" y="538.6144578313254"/>
      <point x="234.12048192771084" y="538.6144578313254" type="curve" smooth="yes"/>
      <point x="293.55421686746985" y="538.6144578313254" type="line"/>
      <point x="293.55421686746985" y="590.566265060241" type="line"/>
      <point x="233.74698795180723" y="590.566265060241" type="line" smooth="yes"/>
      <point x="84.55421686746989" y="590.566265060241"/>
      <point x="25.24096385542169" y="566.2530120481928"/>
      <point x="25.24096385542169" y="505.3132530120482" type="curve" smooth="yes"/>
      <point x="25.24096385542169" y="446.7469879518073"/>
      <point x="86.46385542168676" y="405.46385542168673"/>
    </contour>
  </outline>
</glyph>
<glyph name="logicalnot" format="2">
  <advance width="748.0"/>
  <unicode hex="00AC"/>
  <outline>
    <contour>
      <point x="526.0843373493976" y="130.64457831325302" type="line"/>
      <point x="645.0" y="130.64457831325302" type="line"/>
      <point x="645.0" y="442.51807228915663" type="line"/>
      <point x="103.0" y="442.51807228915663" type="line"/>
      <point x="103.0" y="331.2590361445783" type="line"/>
      <point x="526.0843373493976" y="331.2590361445783" type="line"/>
    </contour>
  </outline>
</glyph>
<glyph name="registered" format="2">
  <advance width="1014.9397590361446"/>
  <unicode hex="00AE"/>
  <outline>
    <contour>
      <point x="507.9698795180723" y="-10.626506024096384" type="curve" smooth="yes"/>
      <point x="773.9698795180722" y="-10.626506024096384"/>
      <point x="960.8795180722892" y="139.3132530120482"/>
      <point x="960.8795180722892" y="353.0" type="curve" smooth="yes"/>
      <point x="960.8795180722892" y="566.3433734939758"/>
      <point x="774.6265060240963" y="715.6265060240964"/>
      <point x="507.9698795180723" y="715.6265060240964" type="curve" smooth="yes"/>
      <point x="241.96987951807228" y="715.6265060240964"/>
      <point x="55.06024096385542" y="565.6867469879518"/>
      <point x="55.06024096385542" y="352.0" type="curve" smooth="yes"/>
      <point x="55.06024096385542" y="138.65662650602408"/>
      <point x="241.3132530120482" y="-10.626506024096384"/>
    </contour>
    <contour>
      <point x="507.9698795180723" y="50.66867469879518" type="curve" smooth="yes"/>
      <point x="277.13253012048193" y="50.66867469879518"/>
      <point x="122.98192771084337" y="170.81927710843374"/>
      <point x="122.98192771084337" y="352.0" type="curve" smooth="yes"/>
      <point x="122.98192771084337" y="533.1807228915662"/>
      <point x="277.4759036144578" y="654.3313253012049"/>
      <point x="507.9698795180723" y="654.3313253012049" type="curve" smooth="yes"/>
      <point x="739.4939759036143" y="654.3313253012049"/>
      <point x="892.9578313253013" y="534.1807228915662"/>
      <point x="892.9578313253013" y="353.0" type="curve" smooth="yes"/>
      <point x="892.9578313253013" y="171.81927710843374"/>
      <point x="739.1506024096385" y="50.66867469879518"/>
    </contour>
    <contour>
      <point x="311.1084337349398" y="143.3132530120482" type="line"/>
      <point x="430.933734939759" y="143.3132530120482" type="line"/>
      <point x="430.933734939759" y="320.5843373493976" type="line"/>
      <point x="400.1746987951807" y="296.3915662650602" type="line"/>
      <point x="491.70481927710836" y="296.3915662650602" type="line" smooth="yes"/>
      <point x="531.4216867469879" y="296.3915662650602"/>
      <point x="547.198795180723" y="284.7048192771084"/>
      <point x="556.9759036144578" y="261.89759036144574" type="curve" smooth="yes"/>
      <point x="603.6807228915663" y="143.3132530120482" type="line"/>
      <point x="735.1024096385543" y="143.3132530120482" type="line"/>
      <point x="680.0843373493976" y="276.15060240963857" type="line" smooth="yes"/>
      <point x="664.0240963855422" y="315.7771084337349"/>
      <point x="635.0843373493976" y="332.0903614457832"/>
      <point x="590.6385542168674" y="332.0903614457832" type="curve"/>
      <point x="547.222891566265" y="318.77710843373495" type="line"/>
      <point x="662.1325301204819" y="318.77710843373495"/>
      <point x="727.3855421686746" y="362.43373493975906"/>
      <point x="727.3855421686746" y="443.4036144578313" type="curve" smooth="yes"/>
      <point x="727.3855421686746" y="520.3734939759036"/>
      <point x="667.4457831325301" y="564.6566265060242"/>
      <point x="556.5060240963855" y="564.6566265060242" type="curve" smooth="yes"/>
      <point x="311.1084337349398" y="564.6566265060242" type="line"/>
    </contour>
    <contour>
      <point x="430.933734939759" y="382.32530120481925" type="line"/>
      <point x="430.933734939759" y="478.3795180722891" type="line"/>
      <point x="537.777108433735" y="478.3795180722891" type="line" smooth="yes"/>
      <point x="585.2590361445783" y="478.3795180722891"/>
      <point x="606.8734939759037" y="463.5421686746988"/>
      <point x="606.8734939759037" y="430.8674698795181" type="curve" smooth="yes"/>
      <point x="606.8734939759037" y="398.5060240963855"/>
      <point x="583.9457831325301" y="382.32530120481925"/>
      <point x="537.777108433735" y="382.32530120481925" type="curve" smooth="yes"/>
    </contour>
  </outline>
</glyph>
<glyph name="degree" format="2">
  <advance width="426.2951807228916"/>
  <unicode hex="00B0"/>
  <outline>
    <contour>
      <point x="213.16265060240963" y="373.48192771084337" type="curve" smooth="yes"/>
      <point x="314.26506024096386" y="373.48192771084337"/>
      <point x="388.80120481927713" y="446.39156626506025"/>
      <point x="388.80120481927713" y="544.8975903614457" type="curve" smooth="yes"/>
      <point x="388.80120481927713" y="642.4036144578313"/>
      <point x="313.29518072289153" y="715.9698795180723"/>
      <point x="213.16265060240963" y="715.9698795180723" type="curve" smooth="yes"/>
      <point x="112.6867469879518" y="715.9698795180723"/>
      <point x="37.837349397590366" y="642.0602409638554"/>
      <point x="37.837349397590366" y="544.8975903614457" type="curve" smooth="yes"/>
      <point x="37.837349397590366" y="446.7349397590362"/>
      <point x="112.37349397590361" y="373.48192771084337"/>
    </contour>
    <contour>
      <point x="213.16265060240963" y="460.13253012048193" type="curve" smooth="yes"/>
      <point x="165.89156626506022" y="460.13253012048193"/>
      <point x="132.74096385542168" y="496.6265060240964"/>
      <point x="132.74096385542168" y="544.8975903614457" type="curve" smooth="yes"/>
      <point x="132.74096385542168" y="592.1686746987953"/>
      <point x="165.89156626506022" y="629.3192771084338"/>
      <point x="213.16265060240963" y="629.3192771084338" type="curve" smooth="yes"/>
      <point x="259.433734939759" y="629.3192771084338"/>
      <point x="292.89759036144574" y="592.1686746987953"/>
      <point x="292.89759036144574" y="544.8975903614457" type="curve" smooth="yes"/>
      <point x="292.89759036144574" y="496.6265060240964"/>
      <point x="259.433734939759" y="460.13253012048193"/>
    </contour>
  </outline>
</glyph>
<glyph name="micro" format="2">
  <advance width="727.5903614457832"/>
  <unicode hex="00B5"/>
  <outline>
    <contour>
      <point x="75.13855421686748" y="-180.0" type="line"/>
      <point x="241.9578313253012" y="-180.0" type="line"/>
      <point x="228.10843373493978" y="36.66265060240964" type="line"/>
      <point x="227.61445783132532" y="36.66265060240964" type="line"/>
      <point x="253.04819277108436" y="1.8674698795180733"/>
      <point x="290.49999999999994" y="-10.626506024096384"/>
      <point x="338.04216867469876" y="-10.626506024096384" type="curve" smooth="yes"/>
      <point x="417.5542168674699" y="-10.626506024096384"/>
      <point x="465.5421686746988" y="28.897590361445786"/>
      <point x="488.7530120481928" y="97.70481927710843" type="curve"/>
      <point x="487.9457831325301" y="97.70481927710843" type="line"/>
      <point x="487.9457831325301" y="0.0" type="line"/>
      <point x="651.1385542168675" y="0.0" type="line"/>
      <point x="651.1385542168675" y="490.566265060241" type="line"/>
      <point x="484.3192771084337" y="490.566265060241" type="line"/>
      <point x="484.3192771084337" y="242.44578313253012" type="line" smooth="yes"/>
      <point x="484.3192771084337" y="173.72289156626505"/>
      <point x="429.6144578313253" y="117.73493975903614"/>
      <point x="344.9216867469879" y="117.73493975903614" type="curve" smooth="yes"/>
      <point x="279.94578313253015" y="117.73493975903614"/>
      <point x="241.9578313253012" y="143.66265060240963"/>
      <point x="241.9578313253012" y="228.63855421686748" type="curve" smooth="yes"/>
      <point x="241.9578313253012" y="490.566265060241" type="line"/>
      <point x="75.13855421686748" y="490.566265060241" type="line"/>
    </contour>
  </outline>
</glyph>
<glyph name="paragraph" format="2">
  <advance width="785.1204819277108"/>
  <unicode hex="00B6"/>
  <outline>
    <contour>
      <point x="310.10240963855426" y="-180.0" type="line"/>
      <point x="429.644578313253" y="-180.0" type="line"/>
      <point x="429.644578313253" y="591.1144578313254" type="line"/>
      <point x="574.156626506024" y="591.1144578313254" type="line"/>
      <point x="574.156626506024" y="-180.0" type="line"/>
      <point x="693.6987951807229" y="-180.0" type="line"/>
      <point x="693.6987951807229" y="705.0" type="line"/>
      <point x="313.38554216867465" y="705.0" type="line" smooth="yes"/>
      <point x="145.09036144578312" y="705.0"/>
      <point x="40.33132530120482" y="619.2409638554216"/>
      <point x="40.33132530120482" y="481.5722891566265" type="curve" smooth="yes"/>
      <point x="40.33132530120482" y="343.5903614457832"/>
      <point x="144.43373493975903" y="255.83132530120483"/>
      <point x="310.10240963855426" y="255.83132530120483" type="curve"/>
    </contour>
  </outline>
</glyph>
<glyph name="periodcentered" format="2">
  <advance width="310.43975903614455"/>
  <unicode hex="00B7"/>
  <outline>
    <contour>
      <point x="63.70481927710843" y="182.03614457831327" type="line"/>
      <point x="246.07831325301203" y="182.03614457831327" type="line"/>
      <point x="246.07831325301203" y="354.8734939759036" type="line"/>
      <point x="63.70481927710843" y="354.8734939759036" type="line"/>
    </contour>
  </outline>
</glyph>
<glyph name="ordmasculine" format="2">
  <advance width="442.710843373494"/>
  <unicode hex="00BA"/>
  <outline>
    <contour>
      <point x="221.6987951807229" y="405.12048192771084" type="curve" smooth="yes"/>
      <point x="344.3674698795181" y="405.12048192771084"/>
      <point x="420.21686746987945" y="464.12048192771084"/>
      <point x="420.21686746987945" y="560.7168674698795" type="curve" smooth="yes"/>
      <point x="420.21686746987945" y="656.6265060240964"/>
      <point x="344.3674698795181" y="715.6265060240964"/>
      <point x="221.6987951807229" y="715.6265060240964" type="curve" smooth="yes"/>
      <point x="98.3433734939759" y="715.6265060240964"/>
      <point x="22.49397590361446" y="656.6265060240964"/>
      <point x="22.49397590361446" y="560.7168674698795" type="curve" smooth="yes"/>
      <point x="22.49397590361446" y="464.12048192771084"/>
      <point x="98.3433734939759" y="405.12048192771084"/>
    </contour>
    <contour>
      <point x="221.6987951807229" y="483.1144578313253" type="curve" smooth="yes"/>
      <point x="163.99397590361446" y="483.1144578313253"/>
      <point x="131.09638554216866" y="510.98192771084337"/>
      <point x="131.09638554216866" y="560.7168674698795" type="curve" smooth="yes"/>
      <point x="131.09638554216866" y="610.4518072289158"/>
      <point x="163.99397590361446" y="638.3192771084338"/>
      <point x="221.6987951807229" y="638.3192771084338" type="curve" smooth="yes"/>
      <point x="278.71686746987956" y="638.3192771084338"/>
      <point x="311.6144578313253" y="610.4518072289155"/>
      <point x="311.6144578313253" y="560.7168674698795" type="curve" smooth="yes"/>
      <point x="311.6144578313253" y="510.98192771084337"/>
      <point x="278.71686746987956" y="483.1144578313253"/>
    </contour>
  </outline>
</glyph>
<glyph name="questiondown" format="2">
  <advance width="573.2771084337348"/>
  <unicode hex="00BF"/>
  <outline>
    <contour>
      <point x="276.6385542168674" y="-190.93975903614458" type="curve" smooth="yes"/>
      <point x="387.921686746988" y="-190.93975903614458"/>
      <point x="498.4879518072289" y="-157.87951807228916"/>
      <point x="571.9939759036145" y="-102.4156626506024" type="curve"/>
      <point x="510.53614457831327" y="22.915662650602407" type="line"/>
      <point x="442.13253012048193" y="-26.638554216867472"/>
      <point x="371.32530120481925" y="-50.415662650602414"/>
      <point x="286.8313253012048" y="-50.415662650602414" type="curve" smooth="yes"/>
      <point x="219.1987951807229" y="-50.415662650602414"/>
      <point x="183.52409638554215" y="-33.4578313253012"/>
      <point x="183.52409638554215" y="0.05421686746987864" type="curve" smooth="yes"/>
      <point x="183.52409638554215" y="24.072289156626503"/>
      <point x="201.67469879518072" y="45.403614457831324"/>
      <point x="250.34939759036146" y="75.16867469879517" type="curve" smooth="yes"/>
      <point x="318.0542168674699" y="117.05421686746986"/>
      <point x="344.0240963855422" y="158.92168674698794"/>
      <point x="344.0240963855422" y="209.04216867469881" type="curve" smooth="yes"/>
      <point x="344.0240963855422" y="259.2469879518072" type="line"/>
      <point x="246.07831325301208" y="259.2469879518072" type="line"/>
      <point x="242.42168674698797" y="234.30722891566265" type="line" smooth="yes"/>
      <point x="236.70481927710847" y="200.72289156626505"/>
      <point x="214.4518072289157" y="173.855421686747"/>
      <point x="129.9879518072289" y="125.77710843373494" type="curve" smooth="yes"/>
      <point x="49.30120481927711" y="79.78915662650601"/>
      <point x="13.704819277108435" y="34.415662650602414"/>
      <point x="13.704819277108435" y="-25.58433734939759" type="curve" smooth="yes"/>
      <point x="13.704819277108435" y="-126.09036144578313"/>
      <point x="119.0" y="-190.93975903614458"/>
    </contour>
    <contour>
      <point x="207.31927710843377" y="317.7289156626506" type="line"/>
      <point x="382.78313253012044" y="317.7289156626506" type="line"/>
      <point x="382.78313253012044" y="490.566265060241" type="line"/>
      <point x="207.31927710843377" y="490.566265060241" type="line"/>
    </contour>
  </outline>
</glyph>
<glyph name="AE" format="2">
  <advance width="1238.4578313253012"/>
  <unicode hex="00C6"/>
  <anchor x="608.2831325301205" y="0.0" name="bottom"/>
  <anchor x="608.2530120481928" y="705.0" name="top"/>
  <outline>
    <contour>
      <point x="-52.18674698795181" y="0.0" type="line"/>
      <point x="144.04819277108433" y="0.0" type="line"/>
      <point x="285.5421686746988" y="191.24096385542168" type="line"/>
      <point x="211.66867469879514" y="147.03614457831327" type="line"/>
      <point x="691.789156626506" y="147.03614457831327" type="line"/>
      <point x="634.644578313253" y="197.18072289156626" type="line"/>
      <point x="691.3012048192771" y="0.0" type="line"/>
      <point x="1176.8614457831327" y="0.0" type="line"/>
      <point x="1176.8614457831327" y="132.3012048192771" type="line"/>
      <point x="775.5903614457831" y="132.3012048192771" type="line"/>
      <point x="836.0481927710844" y="86.69277108433735" type="line"/>
      <point x="762.8373493975903" y="339.15060240963857" type="line"/>
      <point x="725.1686746987951" y="292.3493975903615" type="line"/>
      <point x="1150.2349397590363" y="292.3493975903615" type="line"/>
      <point x="1150.2349397590363" y="424.6506024096385" type="line"/>
      <point x="695.5" y="424.6506024096385" type="line"/>
      <point x="751.2710843373494" y="377.5060240963855" type="line"/>
      <point x="683.3132530120482" y="610.8313253012049" type="line"/>
      <point x="642.5120481927711" y="572.698795180723" type="line"/>
      <point x="1176.8614457831327" y="572.698795180723" type="line"/>
      <point x="1176.8614457831327" y="705.0" type="line"/>
      <point x="487.5722891566265" y="705.0" type="line"/>
    </contour>
    <contour>
      <point x="536.9698795180723" y="531.7469879518072" type="line"/>
      <point x="538.9698795180723" y="531.7469879518072" type="line"/>
      <point x="624.0783132530121" y="233.22289156626505" type="line"/>
      <point x="660.9397590361446" y="279.6807228915663" type="line"/>
      <point x="293.10843373493975" y="279.6807228915663" type="line"/>
      <point x="319.86746987951807" y="238.13253012048193" type="line"/>
    </contour>
  </outline>
</glyph>
<glyph name="multiply" format="2">
  <advance width="748.0"/>
  <unicode hex="00D7"/>
  <outline>
    <contour>
      <point x="195.14457831325302" y="29.584337349397593" type="line"/>
      <point x="374.0" y="208.7831325301205" type="line"/>
      <point x="552.855421686747" y="29.584337349397593" type="line"/>
      <point x="631.7590361445783" y="108.144578313253" type="line"/>
      <point x="452.5602409638554" y="286.3132530120482" type="line"/>
      <point x="631.7590361445783" y="465.8554216867469" type="line"/>
      <point x="552.855421686747" y="545.1024096385543" type="line"/>
      <point x="373.6566265060241" y="367.2168674698795" type="line"/>
      <point x="193.7710843373494" y="545.1024096385543" type="line"/>
      <point x="116.24096385542168" y="465.8554216867469" type="line"/>
      <point x="295.0963855421687" y="286.6566265060241" type="line"/>
      <point x="116.24096385542168" y="108.144578313253" type="line"/>
    </contour>
  </outline>
</glyph>
<glyph name="Thorn" format="2">
  <advance width="818.4096385542168"/>
  <unicode hex="00DE"/>
  <anchor x="417.578313253012" y="0.0" name="bottom"/>
  <anchor x="417.9216867469879" y="705.0" name="top"/>
  <outline>
    <contour>
      <point x="91.42168674698794" y="0.0" type="line"/>
      <point x="268.40361445783134" y="0.0" type="line"/>
      <point x="268.40361445783134" y="138.33132530120486" type="line"/>
      <point x="497.84337349397583" y="138.33132530120486" type="line" smooth="yes"/>
      <point x="687.7228915662649" y="138.33132530120486"/>
      <point x="789.8855421686746" y="218.49397590361446"/>
      <point x="789.8855421686746" y="367.31325301204816" type="curve" smooth="yes"/>
      <point x="789.8855421686746" y="516.4759036144577"/>
      <point x="687.7228915662649" y="595.6084337349398"/>
      <point x="497.84337349397583" y="595.6084337349398" type="curve" smooth="yes"/>
      <point x="268.40361445783134" y="595.6084337349398" type="line"/>
      <point x="268.40361445783134" y="705.0" type="line"/>
      <point x="91.42168674698794" y="705.0" type="line"/>
    </contour>
    <contour>
      <point x="268.40361445783134" y="269.94578313253015" type="line"/>
      <point x="268.40361445783134" y="463.99397590361446" type="line"/>
      <point x="474.23493975903614" y="463.99397590361446" type="line" smooth="yes"/>
      <point x="575.7048192771084" y="463.99397590361446"/>
      <point x="619.4096385542169" y="435.66265060240966"/>
      <point x="619.4096385542169" y="367.9698795180723" type="curve" smooth="yes"/>
      <point x="619.4096385542169" y="300.93373493975906"/>
      <point x="572.7349397590361" y="269.94578313253015"/>
      <point x="474.23493975903614" y="269.94578313253015" type="curve" smooth="yes"/>
    </contour>
  </outline>
</glyph>
<glyph name="germandbls" format="2">
  <advance width="821.656626506024"/>
  <unicode hex="00DF"/>
  <outline>
    <contour>
      <point x="543.7349397590361" y="-10.626506024096384" type="curve" smooth="yes"/>
      <point x="701.9096385542168" y="-10.626506024096384"/>
      <point x="797.7289156626506" y="55.84939759036144"/>
      <point x="797.7289156626506" y="162.89156626506022" type="curve" smooth="yes"/>
      <point x="797.7289156626506" y="245.8313253012048"/>
      <point x="739.6084337349398" y="291.0240963855422"/>
      <point x="623.8915662650602" y="311.36746987951807" type="curve" smooth="yes"/>
      <point x="530.6385542168674" y="328.0240963855421"/>
      <point x="503.8433734939759" y="336.83132530120486"/>
      <point x="503.8433734939759" y="368.59638554216866" type="curve" smooth="yes"/>
      <point x="503.8433734939759" y="392.8975903614458"/>
      <point x="523.7409638554217" y="407.0180722891566"/>
      <point x="569.6807228915662" y="441.21084337349396" type="curve" smooth="yes"/>
      <point x="624.5180722891566" y="479.86746987951807"/>
      <point x="653.7590361445783" y="516.8975903614457"/>
      <point x="653.7590361445783" y="567.0481927710842" type="curve" smooth="yes"/>
      <point x="653.7590361445783" y="663.1204819277109"/>
      <point x="562.1807228915663" y="715.6265060240964"/>
      <point x="394.5903614457832" y="715.6265060240964" type="curve" smooth="yes"/>
      <point x="184.43373493975903" y="715.6265060240964"/>
      <point x="76.10843373493975" y="632.1506024096385"/>
      <point x="76.10843373493975" y="469.9759036144578" type="curve" smooth="yes"/>
      <point x="76.10843373493975" y="0.0" type="line"/>
      <point x="242.9277108433735" y="0.0" type="line"/>
      <point x="242.9277108433735" y="485.10843373493975" type="line" smooth="yes"/>
      <point x="242.9277108433735" y="562.8734939759037"/>
      <point x="294.48192771084337" y="599.4277108433735"/>
      <point x="399.49999999999994" y="599.4277108433735" type="curve" smooth="yes"/>
      <point x="464.54819277108436" y="599.4277108433735"/>
      <point x="496.72891566265065" y="584.277108433735"/>
      <point x="496.72891566265065" y="551.2590361445782" type="curve" smooth="yes"/>
      <point x="496.72891566265065" y="525.2409638554218"/>
      <point x="478.0843373493976" y="509.4036144578313"/>
      <point x="439.93373493975906" y="479.43373493975906" type="curve" smooth="yes"/>
      <point x="379.5602409638554" y="433.67469879518075"/>
      <point x="351.09638554216866" y="394.3614457831326"/>
      <point x="351.09638554216866" y="344.2409638554217" type="curve" smooth="yes"/>
      <point x="351.09638554216866" y="263.9277108433735"/>
      <point x="412.12650602409633" y="221.07831325301208"/>
      <point x="529.8132530120482" y="204.33132530120486" type="curve" smooth="yes"/>
      <point x="622.4277108433736" y="190.55421686746988"/>
      <point x="645.6385542168674" y="177.65662650602408"/>
      <point x="645.6385542168674" y="155.29518072289156" type="curve" smooth="yes"/>
      <point x="645.6385542168674" y="125.1566265060241"/>
      <point x="615.4698795180723" y="108.82530120481927"/>
      <point x="558.210843373494" y="108.82530120481927" type="curve" smooth="yes"/>
      <point x="493.21084337349396" y="108.82530120481927"/>
      <point x="416.01807228915663" y="125.16867469879517"/>
      <point x="352.39156626506025" y="161.97590361445785" type="curve"/>
      <point x="302.43975903614455" y="53.77710843373494" type="line"/>
      <point x="364.289156626506" y="12.403614457831326"/>
      <point x="459.79518072289153" y="-10.626506024096384"/>
    </contour>
  </outline>
</glyph>
<glyph name="ae" format="2">
  <advance width="1072.1927710843374"/>
  <unicode hex="00E6"/>
  <anchor x="529.789156626506" y="0.0" name="bottom"/>
  <anchor x="529.789156626506" y="484.0" name="top"/>
  <outline>
    <contour>
      <point x="287.22289156626505" y="-10.626506024096384" type="curve" smooth="yes"/>
      <point x="411.22289156626505" y="-10.626506024096384"/>
      <point x="499.2831325301205" y="36.2710843373494"/>
      <point x="534.8795180722891" y="117.94578313253011" type="curve"/>
      <point x="490.83734939759034" y="117.94578313253011" type="line"/>
      <point x="539.8493975903615" y="34.89759036144578"/>
      <point x="647.132530120482" y="-10.626506024096384"/>
      <point x="783.4156626506024" y="-10.626506024096384" type="curve" smooth="yes"/>
      <point x="884.6686746987951" y="-10.626506024096384"/>
      <point x="978.6084337349397" y="13.120481927710845"/>
      <point x="1029.487951807229" y="47.30120481927712" type="curve"/>
      <point x="988.789156626506" y="156.18674698795184" type="line"/>
      <point x="943.3253012048193" y="129.5421686746988"/>
      <point x="873.4156626506024" y="112.13855421686746"/>
      <point x="796.012048192771" y="112.13855421686746" type="curve" smooth="yes"/>
      <point x="667.3072289156626" y="112.13855421686746"/>
      <point x="611.8855421686748" y="155.6204819277108"/>
      <point x="611.8855421686748" y="251.50602409638554" type="curve" smooth="yes"/>
      <point x="611.8855421686748" y="259.4759036144578" type="line" smooth="yes"/>
      <point x="611.8855421686748" y="342.45180722891564"/>
      <point x="664.7409638554217" y="392.5903614457832"/>
      <point x="762.3132530120481" y="392.5903614457832" type="curve" smooth="yes"/>
      <point x="849.9457831325302" y="392.5903614457832"/>
      <point x="896.367469879518" y="353.7951807228916"/>
      <point x="898.3373493975904" y="278.7289156626506" type="curve"/>
      <point x="920.9638554216867" y="295.5060240963855" type="line"/>
      <point x="584.6626506024096" y="295.5060240963855" type="line"/>
      <point x="584.6626506024096" y="209.64457831325302" type="line"/>
      <point x="1039.487951807229" y="209.64457831325302" type="line"/>
      <point x="1039.487951807229" y="248.83734939759037" type="line" smooth="yes"/>
      <point x="1039.487951807229" y="405.68674698795184"/>
      <point x="931.4156626506024" y="501.1927710843374"/>
      <point x="755.433734939759" y="501.1927710843374" type="curve" smooth="yes"/>
      <point x="671.2831325301205" y="501.1927710843374"/>
      <point x="585.2349397590361" y="470.54819277108436"/>
      <point x="535.789156626506" y="417.4096385542169" type="curve"/>
      <point x="558.2951807228916" y="417.4096385542169" type="line"/>
      <point x="522.9698795180723" y="472.26506024096386"/>
      <point x="446.7168674698795" y="501.1927710843374"/>
      <point x="340.8192771084337" y="501.1927710843374" type="curve" smooth="yes"/>
      <point x="244.65662650602408" y="501.1927710843374"/>
      <point x="142.58433734939757" y="478.1927710843373"/>
      <point x="74.45180722891565" y="440.50602409638554" type="curve"/>
      <point x="118.77710843373494" y="327.62048192771084" type="line"/>
      <point x="179.6867469879518" y="360.3975903614458"/>
      <point x="255.90963855421685" y="378.7710843373494"/>
      <point x="331.2530120481928" y="378.7710843373494" type="curve" smooth="yes"/>
      <point x="415.3313253012048" y="378.7710843373494"/>
      <point x="451.94578313253015" y="356.12650602409644"/>
      <point x="451.94578313253015" y="305.8975903614458" type="curve" smooth="yes"/>
      <point x="451.94578313253015" y="202.3132530120482" type="line" smooth="yes"/>
      <point x="451.94578313253015" y="143.0843373493976"/>
      <point x="390.83734939759034" y="99.97590361445783"/>
      <point x="304.98192771084337" y="99.97590361445783" type="curve" smooth="yes"/>
      <point x="245.8132530120482" y="99.97590361445783"/>
      <point x="210.76506024096383" y="121.30722891566265"/>
      <point x="210.76506024096383" y="155.78915662650604" type="curve" smooth="yes"/>
      <point x="210.76506024096383" y="195.89759036144576"/>
      <point x="255.37951807228916" y="209.64457831325302"/>
      <point x="372.83734939759034" y="209.64457831325302" type="curve" smooth="yes"/>
      <point x="471.4216867469879" y="209.64457831325302" type="line"/>
      <point x="471.4216867469879" y="295.5060240963855" type="line"/>
      <point x="372.46385542168673" y="295.5060240963855" type="line" smooth="yes"/>
      <point x="140.3313253012048" y="295.5060240963855"/>
      <point x="49.45180722891567" y="252.789156626506"/>
      <point x="49.45180722891567" y="150.84939759036146" type="curve" smooth="yes"/>
      <point x="49.45180722891567" y="54.3433734939759"/>
      <point x="143.95783132530119" y="-10.626506024096384"/>
    </contour>
  </outline>
</glyph>
<glyph name="eth" format="2">
  <advance width="726.3795180722892"/>
  <unicode hex="00F0"/>
  <outline>
    <contour>
      <point x="360.89156626506025" y="-10.626506024096384" type="curve" smooth="yes"/>
      <point x="567.289156626506" y="-10.626506024096384"/>
      <point x="684.3915662650603" y="89.31325301204818"/>
      <point x="684.3915662650603" y="263.35542168674704" type="curve" smooth="yes"/>
      <point x="684.3915662650603" y="416.55421686746985"/>
      <point x="620.4518072289158" y="523.867469879518"/>
      <point x="497.9457831325301" y="599.1204819277109" type="curve"/>
      <point x="499.6325301204819" y="583.9277108433735" type="line"/>
      <point x="621.2289156626506" y="634.2409638554217" type="line"/>
      <point x="586.0060240963854" y="715.9698795180723" type="line"/>
      <point x="397.99397590361446" y="638.7469879518072" type="line"/>
      <point x="433.96385542168673" y="634.656626506024" type="line"/>
      <point x="363.98192771084337" y="666.8493975903614"/>
      <point x="273.2831325301205" y="696.2530120481928"/>
      <point x="161.49397590361446" y="715.9698795180723" type="curve"/>
      <point x="143.61445783132532" y="628.7530120481928" type="line"/>
      <point x="208.7951807228916" y="618.6626506024096"/>
      <point x="267.9759036144578" y="600.1686746987951"/>
      <point x="305.67469879518075" y="586.2590361445783" type="curve"/>
      <point x="306.9277108433735" y="602.4819277108434" type="line"/>
      <point x="133.67469879518075" y="530.8253012048193" type="line"/>
      <point x="169.55421686746988" y="449.09638554216866" type="line"/>
      <point x="404.3855421686747" y="545.9156626506025" type="line"/>
      <point x="379.0301204819277" y="547.9457831325301" type="line"/>
      <point x="466.433734939759" y="498.6024096385542"/>
      <point x="528.1084337349397" y="421.27108433734935"/>
      <point x="527.3915662650603" y="321.80120481927713" type="curve"/>
      <point x="575.0301204819277" y="321.80120481927713" type="line"/>
      <point x="537.6144578313252" y="405.77710843373495"/>
      <point x="447.12048192771084" y="442.5240963855422"/>
      <point x="334.3132530120482" y="442.5240963855422" type="curve" smooth="yes"/>
      <point x="161.12048192771084" y="442.5240963855422"/>
      <point x="44.644578313253014" y="351.5240963855422"/>
      <point x="44.644578313253014" y="216.43373493975903" type="curve" smooth="yes"/>
      <point x="44.644578313253014" y="77.74698795180723"/>
      <point x="168.03012048192772" y="-10.626506024096384"/>
    </contour>
    <contour>
      <point x="361.54819277108436" y="110.48192771084337" type="curve" smooth="yes"/>
      <point x="267.57228915662654" y="110.48192771084337"/>
      <point x="212.80722891566265" y="150.33734939759034"/>
      <point x="212.80722891566265" y="216.12048192771084" type="curve" smooth="yes"/>
      <point x="212.80722891566265" y="281.56024096385545"/>
      <point x="267.9156626506024" y="321.0722891566265"/>
      <point x="361.54819277108436" y="321.0722891566265" type="curve" smooth="yes"/>
      <point x="455.8674698795181" y="321.0722891566265"/>
      <point x="510.9759036144579" y="281.56024096385545"/>
      <point x="510.9759036144579" y="216.12048192771084" type="curve" smooth="yes"/>
      <point x="510.9759036144579" y="149.99397590361448"/>
      <point x="455.8674698795181" y="110.48192771084337"/>
    </contour>
  </outline>
</glyph>
<glyph name="divide" format="2">
  <advance width="748.0"/>
  <unicode hex="00F7"/>
  <outline>
    <contour>
      <point x="103.0" y="231.54216867469881" type="line"/>
      <point x="645.0" y="231.54216867469881" type="line"/>
      <point x="645.0" y="342.80120481927713" type="line"/>
      <point x="103.0" y="342.80120481927713" type="line"/>
    </contour>
    <contour>
      <point x="308.421686746988" y="29.644578313253014" type="line"/>
      <point x="439.5783132530121" y="29.644578313253014" type="line"/>
      <point x="439.5783132530121" y="149.26506024096383" type="line"/>
      <point x="308.421686746988" y="149.26506024096383" type="line"/>
    </contour>
    <contour>
      <point x="308.421686746988" y="425.0783132530121" type="line"/>
      <point x="439.5783132530121" y="425.0783132530121" type="line"/>
      <point x="439.5783132530121" y="544.698795180723" type="line"/>
      <point x="308.421686746988" y="544.698795180723" type="line"/>
    </contour>
  </outline>
</glyph>
